<?xml version="1.0" encoding="UTF-8" standalone="no"?>
<!DOCTYPE svg PUBLIC "-//W3C//DTD SVG 1.1//EN" "http://www.w3.org/Graphics/SVG/1.1/DTD/svg11.dtd">
<svg xmlns="http://www.w3.org/2000/svg" version="1.1" viewBox="0.00 0.00 512.00 512.00">
<path fill="#2b2c6b" d="
  M 91.55 109.27
  C 101.24 112.99 108.49 115.28 109.58 125.23
  Q 109.94 128.52 108.38 133.65
  Q 86.97 204.11 65.59 274.53
  Q 63.12 282.67 61.12 285.23
  Q 57.06 290.45 49.74 290.48
  Q 34.97 290.53 20.18 290.46
  Q 19.71 290.46 19.71 289.99
  L 19.71 97.99
  A 0.61 0.60 -1.0 0 1 20.30 97.39
  Q 57.37 96.12 91.55 109.27
  Z"
/>
<path fill="#2b2c6b" d="
  M 265.95 190.19
  C 249.04 192.88 232.77 203.33 220.46 215.05
  Q 216.59 218.74 213.61 220.38
  C 206.15 224.50 197.17 227.52 188.81 226.25
  C 172.40 223.75 171.54 208.31 175.91 195.30
  C 178.52 187.56 182.26 182.02 187.58 174.25
  C 203.29 151.29 226.76 130.06 252.73 121.44
  C 264.80 117.44 275.50 119.32 287.96 124.25
  Q 336.06 143.29 384.08 162.51
  A 1.31 1.26 -89.9 0 1 384.79 163.25
  L 431.20 289.74
  A 0.97 0.94 51.3 0 1 431.12 290.57
  C 425.36 300.10 415.77 308.40 404.67 310.76
  Q 404.13 310.87 403.72 310.50
  Q 338.36 250.61 272.98 190.79
  C 271.17 189.13 268.33 189.81 265.95 190.19
  Z"
/>
<path fill="#2b2c6b" d="
  M 407.78 133.65
  Q 448.46 119.08 491.93 121.15
  Q 492.29 121.17 492.29 121.52
  L 492.29 313.50
  Q 492.29 314.04 491.76 314.05
  Q 467.83 314.38 461.01 314.12
  Q 450.96 313.75 447.28 303.82
  Q 420.66 231.89 394.20 159.89
  Q 391.40 152.26 391.59 148.83
  C 392.14 139.21 399.46 136.62 407.78 133.65
  Z"
/>
<path fill="#2b2c6b" d="
  M 303.52 278.51
  C 300.23 275.32 294.86 278.58 295.41 282.70
  Q 295.66 284.55 297.98 286.81
  Q 324.76 312.84 351.62 338.79
  Q 356.42 343.43 358.06 346.87
  C 366.01 363.61 347.90 380.30 331.67 372.27
  Q 328.17 370.55 323.57 365.77
  Q 296.88 338.02 270.17 310.34
  C 266.98 307.03 260.65 310.92 262.31 315.61
  Q 262.74 316.85 264.50 318.67
  Q 283.13 338.01 301.67 357.43
  Q 310.47 366.66 311.49 368.30
  C 321.17 383.97 304.08 403.26 287.46 395.25
  Q 284.47 393.81 279.18 388.46
  Q 241.53 350.35 230.16 339.34
  C 225.91 335.23 218.59 341.68 224.08 347.17
  Q 242.60 365.70 261.13 384.22
  Q 267.44 390.53 268.76 393.66
  C 273.55 405.10 262.88 417.57 251.07 414.38
  Q 247.09 413.31 239.11 407.45
  C 181.67 365.26 126.87 318.51 79.13 265.46
  Q 78.83 265.14 78.96 264.71
  L 116.02 142.44
  Q 116.15 142.04 116.56 142.04
  L 201.71 142.05
  A 0.25 0.25 0.0 0 1 201.89 142.48
  Q 189.81 154.19 180.11 167.92
  C 169.71 182.62 159.28 200.76 165.79 219.47
  Q 168.03 225.90 173.53 230.28
  C 187.28 241.23 206.60 236.02 220.14 228.03
  Q 223.18 226.24 227.65 222.08
  C 238.95 211.58 252.42 202.71 267.83 199.83
  Q 268.35 199.73 268.74 200.09
  Q 331.20 257.21 393.59 314.37
  Q 398.73 319.08 400.36 322.44
  C 407.72 337.70 391.91 354.09 376.40 347.41
  Q 373.36 346.10 368.75 341.65
  Q 336.12 310.10 303.52 278.51
  Z"
/>
</svg>
