<svg xmlns="http://www.w3.org/2000/svg" version="1.1" viewBox="0.00 0.00 49.00 31.00">
<path fill="#ffffff" d="
  M 34.69 31.00
  Q 34.56 31.00 34.44 31.00
  Q 33.36 30.24 32.77 29.11
  Q 32.54 28.68 32.88 28.33
  L 43.99 17.02
  Q 44.51 16.50 43.77 16.50
  L 1.63 16.50
  Q 1.00 16.50 1.00 15.87
  L 1.00 14.00
  Q 1.00 13.50 1.50 13.50
  L 42.77 13.50
  Q 43.48 13.50 42.98 12.99
  L 32.90 2.64
  Q 32.43 2.17 32.86 1.66
  L 33.93 0.40
  Q 34.41 -0.16 34.93 0.37
  L 48.72 14.56
  A 1.34 1.34 0.0 0 1 48.72 16.42
  L 34.69 31.00
  Z"
/>
</svg>
