<?xml version="1.0" encoding="UTF-8" standalone="no"?>
<!DOCTYPE svg PUBLIC "-//W3C//DTD SVG 1.1//EN" "http://www.w3.org/Graphics/SVG/1.1/DTD/svg11.dtd">
<svg xmlns="http://www.w3.org/2000/svg" version="1.1" viewBox="0.00 0.00 512.00 512.00">
<path fill="#2b2c6b" d="
  M 512.00 257.31
  L 512.00 259.57
  Q 510.73 264.49 505.00 266.03
  Q 478.31 273.19 451.59 280.33
  Q 446.71 281.64 444.78 281.31
  C 438.74 280.31 437.43 272.23 436.38 267.27
  A 0.62 0.62 0.0 0 0 435.37 266.93
  Q 424.29 276.56 409.78 278.83
  A 0.61 0.61 0.0 0 0 409.31 279.67
  C 417.35 298.78 406.47 320.41 385.06 322.35
  Q 384.49 322.40 384.52 322.98
  C 384.75 326.82 385.09 330.84 384.13 334.46
  Q 379.06 353.67 358.97 358.22
  Q 358.46 358.34 358.57 358.85
  C 363.37 382.07 340.33 401.11 318.11 392.74
  A 0.15 0.15 0.0 0 0 317.91 392.86
  Q 316.48 403.88 310.73 410.72
  C 301.45 421.77 285.38 426.73 272.76 418.21
  Q 263.29 411.82 254.06 405.39
  A 1.09 1.08 41.4 0 0 252.73 405.47
  C 240.84 415.94 223.15 413.79 213.11 401.85
  C 212.41 401.02 211.71 399.53 210.88 398.52
  A 0.63 0.63 0.0 0 0 210.01 398.42
  C 193.85 410.84 172.03 402.71 166.19 383.72
  A 0.58 0.58 0.0 0 0 165.49 383.33
  C 150.72 387.19 135.88 378.68 131.65 364.03
  Q 131.50 363.52 130.96 363.52
  C 128.93 363.51 126.52 364.43 124.80 364.36
  Q 106.36 363.63 98.71 348.33
  C 92.55 336.00 97.18 327.14 103.44 316.52
  A 0.60 0.58 47.9 0 0 103.46 315.96
  Q 97.57 304.02 94.28 292.10
  C 91.20 280.95 87.19 271.40 77.01 265.72
  Q 76.57 265.47 76.44 265.96
  C 74.85 272.35 73.75 281.45 67.75 282.84
  Q 65.44 283.38 60.40 282.03
  Q 33.31 274.76 6.24 267.55
  Q 0.99 266.15 0.00 260.94
  L 0.00 258.93
  Q 8.20 228.14 16.47 197.35
  Q 17.79 192.43 18.99 190.76
  C 23.75 184.18 34.03 189.51 31.82 197.81
  Q 24.31 226.07 16.75 254.32
  A 0.47 0.47 0.0 0 0 17.08 254.90
  L 60.12 266.41
  A 0.72 0.71 -74.9 0 0 60.99 265.90
  L 100.01 120.28
  A 0.77 0.76 15.0 0 0 99.46 119.34
  L 56.96 108.02
  A 0.99 0.99 0.0 0 0 55.74 108.72
  Q 48.59 135.39 41.42 162.16
  Q 40.24 166.58 39.16 168.12
  C 34.46 174.85 23.91 169.63 26.01 161.76
  Q 34.40 130.28 42.88 98.83
  C 44.70 92.09 47.78 90.10 54.49 91.85
  Q 81.71 98.98 108.86 106.36
  C 121.35 109.76 115.75 118.71 113.77 127.08
  Q 113.64 127.63 114.17 127.85
  Q 135.94 136.74 159.48 135.38
  C 182.05 134.08 205.80 129.64 225.35 144.59
  A 1.25 1.25 0.0 0 0 226.81 144.62
  Q 245.18 132.03 267.31 131.00
  C 276.37 130.57 287.82 133.44 295.75 134.50
  Q 347.45 141.41 397.58 126.19
  A 0.92 0.92 0.0 0 0 398.20 125.07
  C 396.61 119.27 391.49 107.84 400.82 105.34
  Q 428.79 97.83 456.77 90.34
  C 464.01 88.41 467.24 90.10 469.11 97.07
  Q 479.77 136.82 490.41 176.57
  C 492.99 186.23 478.83 191.29 475.40 178.47
  Q 465.80 142.63 456.20 106.81
  A 0.78 0.78 0.0 0 0 455.25 106.26
  L 412.45 117.74
  A 0.67 0.67 0.0 0 0 411.97 118.56
  L 451.07 264.45
  A 0.49 0.49 0.0 0 0 451.66 264.79
  L 494.42 253.35
  A 1.03 1.02 -15.2 0 0 495.15 252.09
  Q 490.09 233.48 485.07 214.50
  Q 483.94 210.21 484.69 207.95
  C 487.00 201.02 497.05 201.54 498.89 208.33
  Q 505.53 232.80 512.00 257.31
  Z
  M 240.84 340.79
  C 260.12 339.55 275.44 355.40 270.91 374.82
  C 269.58 380.55 265.43 386.56 262.26 392.09
  Q 261.98 392.58 262.44 392.91
  Q 269.66 398.01 276.97 403.03
  Q 281.65 406.25 284.25 406.94
  C 298.20 410.67 308.40 393.65 298.97 383.00
  C 295.35 378.92 287.15 375.16 282.05 372.20
  C 274.12 367.59 280.89 354.13 290.96 360.02
  Q 304.80 368.13 318.76 376.03
  C 324.98 379.54 330.32 381.56 336.42 378.19
  C 345.84 372.99 347.13 358.45 337.44 352.79
  Q 320.43 342.85 303.36 333.02
  C 292.39 326.70 300.40 313.94 309.84 319.41
  Q 328.92 330.47 348.16 341.28
  C 359.20 347.49 371.88 337.88 369.54 325.61
  C 368.49 320.12 365.30 317.37 360.24 314.43
  Q 345.83 306.05 331.40 297.71
  Q 327.55 295.48 326.40 293.92
  C 323.15 289.50 327.07 282.22 332.37 282.35
  Q 334.83 282.41 339.10 284.87
  Q 354.81 293.90 370.51 302.96
  Q 377.42 306.95 380.51 307.50
  C 390.36 309.26 399.27 299.24 396.97 289.76
  Q 395.40 283.23 391.03 280.70
  Q 365.53 265.89 339.96 251.18
  Q 339.53 250.93 339.03 250.96
  Q 323.74 252.03 308.58 250.13
  C 297.21 248.70 298.83 233.52 311.50 235.49
  Q 321.86 237.11 339.75 235.91
  Q 343.19 235.69 346.92 237.84
  Q 370.89 251.67 394.86 265.53
  A 1.51 1.48 -32.9 0 0 395.79 265.72
  C 410.94 263.89 420.41 261.55 431.51 250.88
  A 0.69 0.69 0.0 0 0 431.70 250.21
  L 402.36 140.71
  Q 402.30 140.50 402.09 140.56
  Q 348.06 157.22 291.94 148.99
  C 284.22 147.86 275.61 146.07 268.55 146.18
  C 255.71 146.39 247.17 149.97 235.13 156.93
  Q 206.32 173.59 177.50 190.20
  Q 170.77 194.08 168.18 197.19
  C 157.51 210.04 168.74 229.01 185.33 226.28
  Q 189.34 225.62 196.61 221.41
  Q 215.89 210.25 235.22 199.17
  C 241.00 195.86 243.62 194.57 248.93 200.07
  C 258.26 209.74 267.21 217.77 278.59 224.51
  Q 282.88 227.06 284.01 229.01
  C 286.34 233.03 283.28 239.23 278.40 239.77
  C 269.72 240.73 247.34 220.01 241.50 213.78
  A 1.04 1.03 53.3 0 0 240.24 213.59
  Q 219.54 225.54 198.60 237.27
  C 183.53 245.70 163.62 240.50 154.50 226.52
  C 146.08 213.63 147.65 196.86 158.29 185.65
  Q 161.67 182.10 169.29 177.67
  Q 189.95 165.66 210.44 153.88
  A 0.67 0.67 0.0 0 0 210.35 152.68
  C 194.34 146.43 177.65 149.25 160.99 150.22
  Q 134.57 151.76 110.41 142.38
  Q 109.70 142.10 109.50 142.84
  Q 95.27 195.98 81.37 247.79
  C 81.07 248.94 80.56 250.24 81.78 250.97
  C 89.28 255.46 100.68 263.90 103.45 272.02
  Q 108.14 285.73 112.44 299.47
  A 0.46 0.46 0.0 0 0 113.27 299.56
  C 116.51 293.97 119.82 286.94 124.06 282.74
  C 138.66 268.33 164.10 274.73 170.14 295.00
  A 0.60 0.59 76.9 0 0 170.81 295.42
  C 187.91 292.38 198.96 299.79 204.98 315.20
  Q 205.18 315.70 205.70 315.58
  C 222.76 311.43 238.92 322.98 240.43 340.43
  A 0.39 0.39 0.0 0 0 240.84 340.79
  Z
  M 154.5764 308.2529
  A 12.13 12.13 0.0 0 0 150.2233 291.6600
  L 149.5499 291.2665
  A 12.13 12.13 0.0 0 0 132.9570 295.6196
  L 112.5236 330.5871
  A 12.13 12.13 0.0 0 0 116.8767 347.1800
  L 117.5501 347.5735
  A 12.13 12.13 0.0 0 0 134.1430 343.2204
  L 154.5764 308.2529
  Z
  M 189.2487 328.1973
  A 12.13 12.13 0.0 0 0 184.8377 311.6197
  L 184.1802 311.2385
  A 12.13 12.13 0.0 0 0 167.6026 315.6495
  L 147.2713 350.7227
  A 12.13 12.13 0.0 0 0 151.6823 367.3003
  L 152.3398 367.6815
  A 12.13 12.13 0.0 0 0 168.9174 363.2705
  L 189.2487 328.1973
  Z
  M 223.9928 348.3192
  A 12.12 12.12 0.0 0 0 219.6433 331.7400
  L 218.9699 331.3465
  A 12.12 12.12 0.0 0 0 202.3907 335.6960
  L 181.9472 370.6808
  A 12.12 12.12 0.0 0 0 186.2967 387.2600
  L 186.9701 387.6535
  A 12.12 12.12 0.0 0 0 203.5493 383.3040
  L 223.9928 348.3192
  Z
  M 224.05 378.49
  C 215.98 393.50 236.63 405.08 245.53 390.79
  C 248.97 385.27 256.32 374.84 256.72 368.65
  C 257.13 362.30 251.74 356.25 245.41 355.77
  C 234.44 354.95 228.27 370.65 224.05 378.49
  Z"
/>
<rect fill="#2b2c6b" x="-7.48" y="-16.44" transform="translate(444.13,150.53) rotate(-14.9)" width="14.96" height="32.88" rx="7.17"/>
<rect fill="#2b2c6b" x="-7.45" y="-15.86" transform="translate(69.09,151.88) rotate(15.2)" width="14.90" height="31.72" rx="7.13"/>
</svg>
