<?xml version="1.0" encoding="UTF-8" standalone="no"?>
<!DOCTYPE svg PUBLIC "-//W3C//DTD SVG 1.1//EN" "http://www.w3.org/Graphics/SVG/1.1/DTD/svg11.dtd">
<svg xmlns="http://www.w3.org/2000/svg" version="1.1" viewBox="0.00 0.00 48.00 43.00">
<path fill="#fefefe" d="
  M 19.30 0.00
  L 23.56 0.00
  Q 38.87 2.70 42.37 17.62
  Q 42.50 18.18 42.50 18.75
  L 42.50 20.24
  A 0.47 0.47 0.0 0 0 43.30 20.57
  L 45.03 18.84
  Q 45.40 18.47 45.93 18.48
  Q 47.37 18.50 48.00 19.81
  L 48.00 21.06
  L 41.34 27.58
  A 0.81 0.80 -44.7 0 1 40.21 27.58
  L 33.94 21.31
  A 1.63 1.63 0.0 0 1 35.16 18.53
  Q 37.17 18.61 38.04 20.49
  A 0.50 0.50 0.0 0 0 38.99 20.22
  C 36.10 -4.94 -0.62 1.23 4.23 25.04
  Q 6.89 38.08 21.89 39.46
  A 1.49 1.49 0.0 0 1 23.20 41.31
  Q 22.88 42.57 21.94 43.00
  L 19.18 43.00
  Q 2.69 40.01 0.00 23.44
  L 0.00 19.20
  Q 3.00 2.85 19.30 0.00
  Z"
/>
<path fill="#fefefe" d="
  M 23.69 20.64
  C 25.58 21.58 30.22 22.99 28.93 25.72
  A 1.60 1.59 -63.6 0 1 26.74 26.46
  L 19.97 22.89
  A 0.90 0.89 -76.2 0 1 19.50 22.10
  L 19.50 9.76
  A 1.75 1.75 0.0 0 1 20.83 8.06
  C 22.62 7.62 23.21 8.94 23.22 10.48
  Q 23.26 15.19 23.25 19.92
  Q 23.25 20.41 23.69 20.64
  Z"
/>
<circle fill="#fefefe" cx="38.08" cy="31.61" r="1.93"/>
<circle fill="#fefefe" cx="33.62" cy="36.76" r="1.96"/>
<circle fill="#fefefe" cx="27.69" cy="40.09" r="1.92"/>
</svg>
