<svg width="512" height="512" viewBox="0 0 512 512" fill="none" xmlns="http://www.w3.org/2000/svg">
<g clip-path="url(#clip0_205_68)">
<path d="M249.32 0H263.04C400.32 4.99 508.54 113.4 512 251.08V260.54C508.85 398.83 399.09 508.34 261.18 512H249.71C112.4 507.74 4.09 399.04 0 261.92V251.2C3.68 113.03 111.6 5.03 249.32 0ZM495.9 255.99C495.9 192.365 470.625 131.345 425.635 86.3551C380.645 41.3651 319.625 16.09 256 16.09C192.375 16.09 131.355 41.3651 86.3651 86.3551C41.3751 131.345 16.1 192.365 16.1 255.99C16.1 319.615 41.3751 380.635 86.3651 425.625C131.355 470.615 192.375 495.89 256 495.89C319.625 495.89 380.645 470.615 425.635 425.625C470.625 380.635 495.9 319.615 495.9 255.99Z" fill="#ffffff"/>
<path d="M276 256.5V385.5C276 385.633 275.947 385.76 275.854 385.854C275.76 385.947 275.633 386 275.5 386H222.75C222.617 386 222.49 385.947 222.396 385.854C222.303 385.76 222.25 385.633 222.25 385.5V256.5C222.25 256.167 222.083 256 221.75 256H196C195.867 256 195.74 255.947 195.646 255.854C195.553 255.76 195.5 255.633 195.5 255.5V211.75C195.5 211.417 195.667 211.25 196 211.25H221.72C221.858 211.25 221.99 211.196 222.088 211.101C222.185 211.005 222.24 210.875 222.24 210.74C222.26 180.35 217.89 139.82 255.76 129.28C274.44 124.09 296.48 125.9 315.77 126.03C315.833 126.03 315.895 126.043 315.954 126.067C316.012 126.092 316.065 126.128 316.109 126.174C316.154 126.219 316.189 126.273 316.213 126.332C316.238 126.392 316.25 126.456 316.25 126.52V170.26C316.25 170.64 316.063 170.827 315.69 170.82C304.423 170.607 295.383 170.7 288.57 171.1C276.12 171.84 276.19 180.42 276.02 191.1C275.92 197.6 275.933 204.1 276.06 210.6C276.067 211.033 276.29 211.25 276.73 211.25H315.89C315.972 211.25 316.053 211.266 316.128 211.3C316.203 211.333 316.27 211.382 316.326 211.443C316.381 211.504 316.424 211.576 316.45 211.655C316.477 211.734 316.487 211.817 316.48 211.9L311.84 255.63C311.832 255.731 311.787 255.825 311.713 255.894C311.639 255.962 311.541 256 311.44 256H276.5C276.167 256 276 256.167 276 256.5Z" fill="#ffffff"/>
</g>
<defs>
<clipPath id="clip0_205_68">
<rect width="512" height="512" fill="white"/>
</clipPath>
</defs>
</svg>
