<svg width="512" height="512" viewBox="0 0 512 512" fill="none" xmlns="http://www.w3.org/2000/svg">
<g clip-path="url(#clip0_205_68)">
<path d="M249.32 0H263.04C400.32 4.99 508.54 113.4 512 251.08V260.54C508.85 398.83 399.09 508.34 261.18 512H249.71C112.4 507.74 4.09 399.04 0 261.92V251.2C3.68 113.03 111.6 5.03 249.32 0ZM495.9 255.99C495.9 192.365 470.625 131.345 425.635 86.3551C380.645 41.3651 319.625 16.09 256 16.09C192.375 16.09 131.355 41.3651 86.3651 86.3551C41.3751 131.345 16.1 192.365 16.1 255.99C16.1 319.615 41.3751 380.635 86.3651 425.625C131.355 470.615 192.375 495.89 256 495.89C319.625 495.89 380.645 470.615 425.635 425.625C470.625 380.635 495.9 319.615 495.9 255.99Z" fill="#ffffff"/>
<path d="M228.749 104H283.754C297.169 104.083 310.571 104.521 323.958 105.314C356.325 107.223 385.498 122.137 399.098 152.963C405.847 168.252 407.084 183.332 408 199.774V310.082C407.28 325.049 406.448 338.964 401.459 353.206C389.173 388.266 358.043 405.535 322.329 407.378C310.908 407.969 298.075 408.33 283.831 408.461H228.975V408.312C228.975 408.3 228.967 408.294 228.951 408.294C214.933 408.437 200.931 408.023 186.945 407.051C151.563 404.589 121.516 385.917 110.372 351.226C104.372 332.542 104.402 312.27 104.3 292.766C104.075 250.409 103.468 224.892 105.085 192.496C105.864 176.987 108.808 161.08 116.36 147.35C131.708 119.431 159.145 106.741 190.18 105.16C205.07 104.398 217.888 104.065 228.636 104.161C228.645 104.161 228.653 104.158 228.661 104.154C228.668 104.15 228.674 104.144 228.677 104.137L228.749 104ZM133.123 325.501C135.478 351.909 149.363 371.949 175.944 377.83C182.124 379.194 188.711 380.021 195.704 380.31C229.546 381.69 263.643 381.279 297.508 380.815C317.887 380.536 341.346 381.101 358.46 368.06C373.296 356.756 379.041 339.725 379.998 321.636C381.782 287.818 381.247 253.774 380.973 219.921C380.898 210.771 380.608 201.63 380.105 192.496C379.54 182.179 377.596 170.886 373.51 162.882C363.169 142.628 344.604 134.131 322.519 132.829C310.321 132.111 297.09 131.719 282.826 131.651C252.903 131.514 222.933 131.342 193.034 132.698C172.685 133.62 154.114 139.786 142.531 157.334C136.269 166.825 133.409 179.568 132.796 190.819C132.134 203.017 131.779 215.223 131.732 227.437C131.637 250.379 131.559 273.315 131.862 296.256C132.021 308.086 132.441 317.834 133.123 325.501Z" fill="#ffffff"/>
<path d="M337.634 193.165C347.693 193.165 355.848 185.01 355.848 174.951C355.848 164.891 347.693 156.736 337.634 156.736C327.575 156.736 319.42 164.891 319.42 174.951C319.42 185.01 327.575 193.165 337.634 193.165Z" fill="#ffffff"/>
<path d="M334.508 256.251C334.508 266.518 332.485 276.684 328.557 286.169C324.628 295.654 318.869 304.272 311.61 311.532C304.35 318.791 295.732 324.55 286.247 328.479C276.762 332.408 266.596 334.43 256.329 334.43C235.595 334.43 215.71 326.193 201.048 311.532C186.387 296.871 178.15 276.986 178.15 256.251C178.15 235.517 186.387 215.632 201.048 200.971C215.71 186.309 235.595 178.073 256.329 178.073C266.596 178.073 276.762 180.095 286.247 184.024C295.732 187.953 304.35 193.711 311.61 200.971C318.869 208.23 324.628 216.849 328.557 226.334C332.485 235.819 334.508 245.985 334.508 256.251ZM307.035 256.251C307.035 249.593 305.723 242.999 303.175 236.847C300.627 230.695 296.892 225.105 292.183 220.397C287.475 215.688 281.885 211.953 275.733 209.405C269.581 206.857 262.988 205.546 256.329 205.546C242.881 205.546 229.984 210.888 220.475 220.397C210.965 229.906 205.623 242.803 205.623 256.251C205.623 262.91 206.935 269.504 209.483 275.656C212.031 281.807 215.766 287.397 220.475 292.106C229.984 301.615 242.881 306.957 256.329 306.957C262.988 306.957 269.581 305.646 275.733 303.097C281.885 300.549 287.475 296.814 292.183 292.106C296.892 287.397 300.627 281.807 303.175 275.656C305.723 269.504 307.035 262.91 307.035 256.251Z" fill="#ffffff"/>
</g>
<defs>
<clipPath id="clip0_205_68">
<rect width="512" height="512" fill="white"/>
</clipPath>
</defs>
</svg>
