<svg width="512" height="512" viewBox="0 0 512 512" fill="none" xmlns="http://www.w3.org/2000/svg">
<g clip-path="url(#clip0_205_68)">
<path d="M249.32 0H263.04C400.32 4.99 508.54 113.4 512 251.08V260.54C508.85 398.83 399.09 508.34 261.18 512H249.71C112.4 507.74 4.09 399.04 0 261.92V251.2C3.68 113.03 111.6 5.03 249.32 0ZM495.9 255.99C495.9 192.365 470.625 131.345 425.635 86.3551C380.645 41.3651 319.625 16.09 256 16.09C192.375 16.09 131.355 41.3651 86.3651 86.3551C41.3751 131.345 16.1 192.365 16.1 255.99C16.1 319.615 41.3751 380.635 86.3651 425.625C131.355 470.615 192.375 495.89 256 495.89C319.625 495.89 380.645 470.615 425.635 425.625C470.625 380.635 495.9 319.615 495.9 255.99Z" fill="#ffffff"/>
<path d="M167.096 166.193C182.613 166.193 195.193 153.613 195.193 138.096C195.193 122.579 182.613 110 167.096 110C151.579 110 139 122.579 139 138.096C139 153.613 151.579 166.193 167.096 166.193Z" fill="#ffffff"/>
<path d="M268.352 209.051C268.554 209.272 268.754 209.209 268.952 208.863C282.515 185.062 310.828 180.241 335.319 186.325C369.368 194.78 372.928 229.349 372.968 258.365C373.006 286.682 373.01 315.001 372.979 343.322C372.979 343.509 372.884 343.602 372.693 343.602H324.733C324.656 343.602 324.582 343.572 324.527 343.517C324.473 343.462 324.442 343.388 324.442 343.311C324.434 316.373 324.413 289.381 324.379 262.336C324.356 244.62 320.968 225.59 298.277 226.316C274.813 227.07 270.42 245.397 270.375 265.084C270.317 291.257 270.291 317.429 270.295 343.602C270.295 343.793 270.199 343.888 270.009 343.888H222.169C222.055 343.888 221.946 343.843 221.866 343.763C221.785 343.682 221.74 343.573 221.74 343.46V188.376C221.74 187.987 221.942 187.793 222.346 187.793L267.998 187.753C268.2 187.753 268.301 187.852 268.301 188.05V208.914C268.301 208.965 268.319 209.014 268.352 209.051Z" fill="#ffffff"/>
<path d="M191.152 187.707H142.923C142.832 187.707 142.758 187.782 142.758 187.873V343.722C142.758 343.814 142.832 343.888 142.923 343.888H191.152C191.244 343.888 191.318 343.814 191.318 343.722V187.873C191.318 187.782 191.244 187.707 191.152 187.707Z" fill="#ffffff"/>
</g>
<defs>
<clipPath id="clip0_205_68">
<rect width="512" height="512" fill="white"/>
</clipPath>
</defs>
</svg>
