<svg width="160" height="52" viewBox="0 0 160 52" fill="none" xmlns="http://www.w3.org/2000/svg">
<path d="M13.0438 0H24.953L24.9359 9.93325C24.9359 9.9899 24.9134 10.0442 24.8733 10.0843C24.8333 10.1244 24.7789 10.1469 24.7223 10.1469H20.561C20.5043 10.1469 20.45 10.1244 20.4099 10.0843C20.3699 10.0442 20.3474 9.9899 20.3474 9.93325V4.37704C20.3474 4.32038 20.3249 4.26605 20.2848 4.22599C20.2447 4.18592 20.1904 4.16342 20.1338 4.16342L10.0723 4.16769C9.83594 4.16769 9.79108 4.07512 9.93776 3.88999L13.0438 0Z" fill="#F9F9FC"/>
<path d="M56.3549 0H76.0612C76.3232 0.119626 76.477 0.229996 76.5226 0.331108C79.2754 6.34517 82.0275 12.3614 84.7789 18.3797C84.7961 18.4179 84.824 18.4501 84.8594 18.4725C84.8947 18.4949 84.9358 18.5065 84.9776 18.5057L86.9685 18.463C87.0089 18.4623 87.0481 18.4503 87.0818 18.4284C87.1154 18.4065 87.1421 18.3755 87.1587 18.3391L95.3872 0.264887C95.4011 0.234416 95.4221 0.207557 95.4484 0.186427C95.4747 0.165296 95.5057 0.150472 95.5389 0.143124C96.4019 -0.0320427 97.4807 0.106809 98.1279 0.106809C115.984 0.105385 133.839 0.106097 151.695 0.108945C155.076 0.108945 158.266 1.70895 158.635 5.29132C158.792 6.80659 158.494 8.13957 157.742 9.29026C156.962 10.4851 155.786 11.2705 154.213 11.6465C153.894 11.7234 153.884 11.8302 154.181 11.9669C155.133 12.4098 155.879 13.0478 156.42 13.8809C156.582 14.1301 156.992 15.0644 157.648 16.6836C158.427 18.6047 159.211 20.5244 160 22.4427V22.5624L154.876 22.6521C154.832 22.6528 154.788 22.6396 154.752 22.6143C154.715 22.589 154.688 22.553 154.673 22.5111C154.151 21.0969 153.634 19.7319 153.122 18.416C151.524 14.3167 150.879 13.0521 146.429 13.0371C143.671 13.0271 140.914 13.0264 138.158 13.035C138.101 13.035 138.047 13.0575 138.007 13.0975C137.967 13.1376 137.944 13.1919 137.944 13.2486V22.3765C137.944 22.4332 137.922 22.4875 137.882 22.5276C137.842 22.5676 137.787 22.5901 137.731 22.5901H133.319C133.263 22.5901 133.209 22.5677 133.169 22.5277C133.129 22.4877 133.106 22.4334 133.106 22.3765L133.093 9.08091C133.093 9.05296 133.098 9.02523 133.109 8.99933C133.119 8.97342 133.135 8.94986 133.155 8.92999C133.175 8.91013 133.198 8.89436 133.224 8.8836C133.25 8.87283 133.278 8.86729 133.307 8.86729C139.299 8.86587 145.17 8.86231 150.919 8.85661C154.551 8.85447 154.628 4.1741 150.588 4.17196C133.398 4.16057 116.208 4.16128 99.0187 4.1741C98.9779 4.17405 98.938 4.18547 98.9036 4.20702C98.8692 4.22857 98.8417 4.25938 98.8243 4.29586L90.1707 22.5196C90.1533 22.5561 90.1258 22.5869 90.0914 22.6085C90.057 22.63 90.0171 22.6414 89.9763 22.6414L82.4035 22.6435C82.0774 22.6435 81.846 22.5011 81.7093 22.2163L73.0364 4.29586C73.019 4.25995 72.9918 4.22966 72.9578 4.20849C72.9237 4.18733 72.8843 4.17615 72.8441 4.17624C67.9679 4.16627 63.0874 4.16128 58.2027 4.16128C54.8211 4.16128 52.5247 5.77624 51.8027 9.24112C51.0956 12.6312 51.9309 16.9848 55.5645 18.2238C56.147 18.4231 56.9965 18.5264 58.113 18.5335C62.9892 18.5648 67.8639 18.5862 72.7373 18.5976C72.7939 18.5976 72.8483 18.6201 72.8883 18.6602C72.9284 18.7002 72.9509 18.7546 72.9509 18.8112V22.4278C72.9509 22.4844 72.9284 22.5388 72.8883 22.5788C72.8483 22.6189 72.7939 22.6414 72.7373 22.6414C61.3942 22.6442 50.0553 22.6435 38.7207 22.6393C33.9378 22.6371 29.9175 18.9821 29.7402 14.1543C29.6576 11.8814 29.6405 7.26943 29.689 0.318291C29.689 0.262203 29.7115 0.208411 29.7515 0.168751C29.7916 0.12909 29.8459 0.106809 29.9026 0.106809H34.4014C34.4296 0.106811 34.4576 0.112353 34.4836 0.123116C34.5097 0.133878 34.5333 0.149648 34.5532 0.169512C34.573 0.189376 34.5887 0.212942 34.5993 0.238846C34.61 0.264749 34.6153 0.292478 34.615 0.320427C34.5922 4.30654 34.5979 8.2891 34.6321 12.2681C34.6641 16.0876 36.388 18.5656 40.5899 18.5805C43.7158 18.5919 46.2536 18.5841 48.2032 18.557C48.4525 18.5542 48.5123 18.4459 48.3827 18.2323C47.5852 16.915 47.1052 15.6454 46.9429 14.4235C46.7229 12.7509 46.7506 10.0101 46.9279 8.51482C47.4983 3.73405 51.6639 0.367423 56.3549 0Z" fill="#F9F9FC"/>
<path d="M72.4858 8.7583H56.7549C56.7042 8.7583 56.6631 8.79943 56.6631 8.85016V12.7252C56.6631 12.7759 56.7042 12.817 56.7549 12.817H72.4858C72.5365 12.817 72.5776 12.7759 72.5776 12.7252V8.85016C72.5776 8.79943 72.5365 8.7583 72.4858 8.7583Z" fill="#F9F9FC"/>
<path d="M107.041 13.0413C107.107 14.2775 107.526 15.399 108.298 16.4058C109.851 18.4309 111.519 18.5762 114.193 18.5783C118.799 18.5826 123.405 18.5876 128.012 18.5933C128.069 18.5933 128.123 18.6158 128.163 18.6558C128.203 18.6959 128.226 18.7502 128.226 18.8069L128.22 22.4256C128.22 22.4817 128.197 22.5355 128.157 22.5751C128.117 22.6148 128.063 22.6371 128.006 22.6371C122.643 22.6456 117.287 22.6307 111.938 22.5922C106.666 22.5538 102.491 18.7428 102.128 13.5519C102.03 12.1563 102.033 10.6253 102.137 8.9591C102.14 8.9047 102.164 8.8536 102.204 8.81627C102.243 8.77894 102.296 8.7582 102.35 8.7583H127.692C127.749 8.7583 127.803 8.78081 127.843 8.82087C127.883 8.86093 127.906 8.91526 127.906 8.97192L127.899 12.6034C127.899 12.6601 127.877 12.7144 127.837 12.7545C127.797 12.7945 127.742 12.817 127.686 12.817H107.255C107.226 12.817 107.197 12.8229 107.171 12.8343C107.144 12.8457 107.12 12.8624 107.1 12.8833C107.08 12.9043 107.065 12.9292 107.055 12.9563C107.044 12.9835 107.04 13.0124 107.041 13.0413Z" fill="#F9F9FC"/>
<path d="M0 16.3823V16.3289L3.90494 11.452C4.11001 11.1957 4.21113 11.2313 4.20828 11.5588C4.20116 12.5586 4.36066 13.5604 4.68678 14.5644C5.83818 18.1276 8.22003 18.5783 11.7255 18.5805C16.005 18.5847 20.2852 18.5869 24.5661 18.5869C24.6227 18.5869 24.6771 18.6094 24.7171 18.6494C24.7572 18.6895 24.7797 18.7438 24.7797 18.8005V22.4213C24.7797 22.4776 24.7573 22.5316 24.7173 22.5716C24.6773 22.6116 24.6229 22.6344 24.5661 22.6349C19.9391 22.6435 15.3164 22.647 10.698 22.6456C8.97624 22.6456 7.69381 22.5438 6.85073 22.3401C3.66925 21.5754 1.38567 19.5894 0 16.3823Z" fill="#F9F9FC"/>
<path d="M72.7328 36.6379C72.015 34.9204 72.6922 32.7009 74.5571 31.9019C76.3543 31.1315 78.1288 31.1628 79.8804 31.9959C79.9074 32.009 79.9314 32.0275 79.9509 32.0503C79.9703 32.0731 79.9847 32.0997 79.9932 32.1283C80.0016 32.1569 80.0039 32.1869 80 32.2164C79.996 32.2458 79.9859 32.2741 79.9702 32.2993L79.4874 33.0897C79.461 33.134 79.4193 33.1672 79.3701 33.183C79.3209 33.1987 79.2676 33.1959 79.2204 33.1751C78.2007 32.7251 77.1447 32.6225 76.0524 32.8675C74.2986 33.2584 73.4527 35.1083 74.5165 36.6208C75.5504 38.0905 78.0262 37.9067 79.4361 37.1847C79.4844 37.1603 79.5401 37.1551 79.592 37.1702C79.644 37.1853 79.6882 37.2195 79.716 37.2659L80.2158 38.0926C80.2308 38.1175 80.2405 38.1452 80.2445 38.174C80.2484 38.2028 80.2464 38.2321 80.2386 38.2601C80.2308 38.2881 80.2173 38.3142 80.1991 38.3368C80.1809 38.3594 80.1582 38.3781 80.1325 38.3917C77.819 39.5986 73.929 39.5046 72.7328 36.6379Z" fill="#F9F9FC"/>
<path d="M107.512 36.439C106.341 32.9506 109.917 30.6436 112.961 31.4938C114.971 32.0549 115.964 33.2867 115.941 35.1894C115.883 39.9125 108.881 40.5255 107.512 36.439ZM114.446 35.2137C114.443 34.5396 114.146 33.894 113.618 33.4191C113.09 32.9442 112.376 32.6789 111.632 32.6815C110.888 32.6841 110.176 32.9544 109.651 33.433C109.127 33.9115 108.834 34.5591 108.836 35.2333C108.839 35.9075 109.136 36.5531 109.664 37.0279C110.192 37.5028 110.906 37.7682 111.65 37.7656C112.394 37.763 113.106 37.4927 113.631 37.0141C114.155 36.5355 114.448 35.8879 114.446 35.2137Z" fill="#F9F9FC"/>
<path d="M128.631 35.6936C128.174 31.9276 132.282 30.5369 135.101 31.7887C137.28 32.7585 137.853 35.621 136.543 37.4752C134.544 40.3035 129.086 39.4619 128.631 35.6936ZM135.721 35.2237C135.721 34.5501 135.425 33.904 134.899 33.4277C134.373 32.9514 133.66 32.6838 132.916 32.6838C132.172 32.6838 131.459 32.9514 130.933 33.4277C130.407 33.904 130.111 34.5501 130.111 35.2237C130.111 35.8973 130.407 36.5434 130.933 37.0197C131.459 37.496 132.172 37.7636 132.916 37.7636C133.66 37.7636 134.373 37.496 134.899 37.0197C135.425 36.5434 135.721 35.8973 135.721 35.2237Z" fill="#F9F9FC"/>
<path d="M147.548 36.2854C147.56 36.2527 147.564 36.2175 147.56 36.1829C147.556 36.1483 147.543 36.1153 147.523 36.0867C147.504 36.0581 147.477 36.0349 147.447 36.0189C147.416 36.0029 147.382 35.9946 147.347 35.9949H145.207C145.15 35.9949 145.096 35.9724 145.056 35.9323C145.016 35.8922 144.993 35.8379 144.993 35.7812V34.9268C144.993 34.8701 145.016 34.8158 145.056 34.7757C145.096 34.7357 145.15 34.7131 145.207 34.7131H148.836C148.887 34.7132 148.936 34.7315 148.974 34.7648C149.013 34.7981 149.038 34.8442 149.046 34.8947C149.731 39.3636 143.496 40.4082 141.202 37.5265C139.83 35.8026 140.255 33.1559 142.169 32.0386C143.821 31.0774 145.97 31.1714 147.73 31.934C147.758 31.9461 147.783 31.9642 147.803 31.987C147.824 32.0098 147.839 32.0368 147.848 32.0662C147.857 32.0956 147.86 32.1266 147.856 32.1573C147.852 32.1879 147.842 32.2174 147.826 32.2437L147.318 33.064C147.291 33.1076 147.249 33.1401 147.201 33.1558C147.152 33.1715 147.1 33.1692 147.053 33.1495C145.376 32.436 142.312 32.4702 142.035 34.8798C141.781 37.0864 143.983 38.0114 145.799 37.6867C146.667 37.5315 147.251 37.0644 147.548 36.2854Z" fill="#F9F9FC"/>
<path d="M54.6438 32.7903H52.059C52.0335 32.7903 52.0091 32.7801 51.991 32.7621C51.973 32.7441 51.9629 32.7196 51.9629 32.6941V31.5449C51.9629 31.5194 51.973 31.4949 51.991 31.4769C52.0091 31.4589 52.0335 31.4487 52.059 31.4487L58.9931 31.4551C59.0186 31.4551 59.043 31.4653 59.061 31.4833C59.0791 31.5013 59.0892 31.5258 59.0892 31.5513L59.0935 32.6941C59.0935 32.7196 59.0833 32.7441 59.0653 32.7621C59.0473 32.7801 59.0228 32.7903 58.9973 32.7903H56.3848C56.3593 32.7903 56.3348 32.8004 56.3168 32.8184C56.2988 32.8364 56.2887 32.8609 56.2887 32.8864V38.9425C56.2887 38.968 56.2785 38.9924 56.2605 39.0104C56.2425 39.0285 56.218 39.0386 56.1925 39.0386H54.8361C54.8106 39.0386 54.7861 39.0285 54.7681 39.0104C54.7501 38.9924 54.7399 38.968 54.7399 38.9425V32.8864C54.7399 32.8609 54.7298 32.8364 54.7118 32.8184C54.6937 32.8004 54.6693 32.7903 54.6438 32.7903Z" fill="#F9F9FC"/>
<path d="M64.34 37.6501H69.1379C69.1504 37.6501 69.1628 37.6526 69.1743 37.6575C69.1859 37.6623 69.1963 37.6695 69.2051 37.6784C69.2138 37.6874 69.2207 37.698 69.2253 37.7096C69.2299 37.7213 69.2321 37.7337 69.2318 37.7463L69.2169 38.9468C69.2163 38.9713 69.2062 38.9947 69.1886 39.0119C69.171 39.029 69.1475 39.0387 69.1229 39.0386H62.7913C62.7663 39.0386 62.7424 39.0287 62.7248 39.0111C62.7072 38.9935 62.6973 38.9696 62.6973 38.9447V31.5193C62.6973 31.4944 62.7072 31.4705 62.7248 31.4528C62.7424 31.4352 62.7663 31.4253 62.7913 31.4253L69.0567 31.4424C69.0816 31.4424 69.1055 31.4523 69.1231 31.4699C69.1408 31.4875 69.1507 31.5114 69.1507 31.5364L69.1528 32.6963C69.1528 32.7212 69.1429 32.7452 69.1253 32.7628C69.1076 32.7804 69.0837 32.7903 69.0588 32.7903H64.34C64.3151 32.7903 64.2912 32.8002 64.2735 32.8178C64.2559 32.8355 64.246 32.8594 64.246 32.8843V34.1959C64.246 34.2208 64.2559 34.2448 64.2735 34.2624C64.2912 34.28 64.3151 34.2899 64.34 34.2899L68.4778 34.2835C68.5027 34.2835 68.5266 34.2934 68.5442 34.311C68.5619 34.3287 68.5718 34.3526 68.5718 34.3775V35.4734C68.5718 35.4983 68.5619 35.5222 68.5442 35.5398C68.5266 35.5574 68.5027 35.5673 68.4778 35.5673H64.34C64.3151 35.5673 64.2912 35.5773 64.2735 35.5949C64.2559 35.6125 64.246 35.6364 64.246 35.6613V37.5561C64.246 37.5811 64.2559 37.605 64.2735 37.6226C64.2912 37.6402 64.3151 37.6501 64.34 37.6501Z" fill="#F9F9FC"/>
<path d="M84.1101 31.468L85.3939 31.4274C85.4093 31.4271 85.4245 31.4299 85.4387 31.4355C85.453 31.4412 85.466 31.4497 85.4769 31.4604C85.4878 31.4711 85.4965 31.484 85.5025 31.4981C85.5084 31.5122 85.5114 31.5274 85.5114 31.5427L85.4965 33.3136C85.4962 33.329 85.499 33.3442 85.5046 33.3584C85.5103 33.3727 85.5188 33.3856 85.5295 33.3966C85.5402 33.4075 85.5531 33.4162 85.5672 33.4221C85.5813 33.4281 85.5965 33.4311 85.6118 33.4311H90.085C90.1156 33.4311 90.1449 33.419 90.1666 33.3973C90.1882 33.3757 90.2004 33.3464 90.2004 33.3158V31.5128C90.2004 31.4975 90.2034 31.4823 90.2093 31.4682C90.2153 31.4541 90.224 31.4412 90.2349 31.4305C90.2458 31.4198 90.2588 31.4113 90.273 31.4056C90.2873 31.4 90.3025 31.3972 90.3178 31.3975L91.6359 31.4338C91.6661 31.4344 91.6949 31.4468 91.7161 31.4683C91.7372 31.4899 91.7491 31.5189 91.7491 31.5492V38.9233C91.7491 38.9538 91.7369 38.9832 91.7153 39.0048C91.6937 39.0265 91.6643 39.0386 91.6337 39.0386H90.3157C90.2851 39.0386 90.2558 39.0265 90.2341 39.0048C90.2125 38.9832 90.2004 38.9538 90.2004 38.9233V34.8282C90.2004 34.7976 90.1882 34.7683 90.1666 34.7466C90.1449 34.725 90.1156 34.7128 90.085 34.7128H85.6097C85.5791 34.7128 85.5498 34.725 85.5281 34.7466C85.5065 34.7683 85.4944 34.7976 85.4944 34.8282L85.5157 38.9233C85.5157 38.9384 85.5127 38.9534 85.5069 38.9674C85.5011 38.9814 85.4926 38.9941 85.4819 39.0048C85.4712 39.0155 85.4585 39.024 85.4445 39.0298C85.4305 39.0356 85.4155 39.0386 85.4004 39.0386H84.1186C84.0881 39.0386 84.0587 39.0265 84.0371 39.0048C84.0154 38.9832 84.0033 38.9538 84.0033 38.9233L83.999 31.5833C83.999 31.5535 84.0106 31.5248 84.0313 31.5032C84.052 31.4817 84.0803 31.4691 84.1101 31.468Z" fill="#F9F9FC"/>
<path d="M102.11 33.5102V31.6111C102.11 31.5827 102.115 31.5546 102.126 31.5284C102.137 31.5022 102.153 31.4784 102.174 31.4585C102.194 31.4386 102.218 31.423 102.244 31.4125C102.271 31.402 102.299 31.3969 102.328 31.3975L103.449 31.4231C103.505 31.4243 103.558 31.4473 103.597 31.4872C103.636 31.5271 103.658 31.5808 103.658 31.6368V38.825C103.658 38.8817 103.636 38.936 103.596 38.9761C103.556 39.0161 103.501 39.0386 103.445 39.0386H102.323C102.267 39.0386 102.212 39.0161 102.172 38.9761C102.132 38.936 102.11 38.8817 102.11 38.825V35.6763C102.11 35.6376 102.099 35.5996 102.078 35.5664C102.058 35.5333 102.029 35.5063 101.994 35.4883L97.7219 33.2581C97.6893 33.2412 97.6529 33.233 97.6163 33.2343C97.5796 33.2356 97.5438 33.2463 97.5125 33.2654C97.4811 33.2845 97.4553 33.3114 97.4373 33.3434C97.4194 33.3754 97.41 33.4115 97.4101 33.4482V38.825C97.4101 38.8817 97.3876 38.936 97.3475 38.9761C97.3074 39.0161 97.2531 39.0386 97.1964 39.0386H96.0749C96.0183 39.0386 95.964 39.0161 95.9239 38.9761C95.8838 38.936 95.8613 38.8817 95.8613 38.825V31.6667C95.8612 31.6128 95.8816 31.5609 95.9184 31.5213C95.9552 31.4817 96.0058 31.4573 96.06 31.453C96.3733 31.4303 96.6845 31.4238 96.9935 31.4338C97.3125 31.4438 97.6322 31.5356 97.9527 31.7094C99.2201 32.4044 100.503 33.0687 101.802 33.7024C101.835 33.7184 101.871 33.7258 101.907 33.724C101.943 33.7221 101.978 33.711 102.009 33.6918C102.04 33.6725 102.065 33.6458 102.083 33.614C102.101 33.5822 102.11 33.5465 102.11 33.5102Z" fill="#F9F9FC"/>
<path d="M121.296 37.6501H125.432C125.464 37.6501 125.495 37.6629 125.518 37.6857C125.541 37.7086 125.554 37.7396 125.554 37.7718V38.9168C125.554 38.9491 125.541 38.9801 125.518 39.0029C125.495 39.0258 125.464 39.0386 125.432 39.0386H119.748C119.715 39.0386 119.684 39.0258 119.662 39.0029C119.639 38.9801 119.626 38.9491 119.626 38.9168V31.5192C119.626 31.5031 119.629 31.4871 119.635 31.4721C119.642 31.4572 119.651 31.4437 119.662 31.4324C119.674 31.421 119.688 31.4121 119.703 31.4061C119.718 31.4001 119.734 31.3972 119.75 31.3975L121.055 31.4317C121.087 31.4322 121.117 31.4453 121.14 31.4681C121.162 31.4908 121.175 31.5215 121.175 31.5534V37.5283C121.175 37.5606 121.188 37.5916 121.21 37.6144C121.233 37.6373 121.264 37.6501 121.296 37.6501Z" fill="#F9F9FC"/>
<path d="M156.067 35.3839L158.124 31.5259C158.143 31.4907 158.171 31.4613 158.205 31.4413C158.239 31.4212 158.277 31.4113 158.317 31.4127L159.56 31.4362C159.597 31.4368 159.633 31.4471 159.665 31.4661C159.697 31.4851 159.724 31.5121 159.742 31.5445C159.761 31.5769 159.77 31.6135 159.77 31.6507C159.77 31.6879 159.76 31.7244 159.741 31.7567L156.717 37.0373C156.698 37.07 156.689 37.1057 156.689 37.1441V38.8146C156.689 38.8709 156.667 38.9249 156.627 38.9649C156.587 39.0049 156.534 39.0277 156.477 39.0282L155.347 39.0432C155.297 39.0439 155.247 39.0265 155.208 38.994C155.169 38.9615 155.143 38.9161 155.134 38.8659C155.044 38.3446 155.048 37.8291 155.146 37.3193C155.158 37.2684 155.149 37.2151 155.123 37.1697L151.993 31.7545C151.975 31.7223 151.965 31.6858 151.965 31.6486C151.965 31.6113 151.974 31.5747 151.993 31.5424C152.011 31.51 152.037 31.483 152.069 31.464C152.101 31.445 152.138 31.4347 152.175 31.4341L153.42 31.4149C153.46 31.4142 153.498 31.4242 153.532 31.4438C153.566 31.4634 153.594 31.4918 153.613 31.5259L155.691 35.3839C155.817 35.6174 155.942 35.6174 156.067 35.3839Z" fill="#F9F9FC"/>
<path d="M85.7552 51.0546H84.5803C83.3342 50.952 82.1201 50.6209 80.9381 50.0613C80.9104 50.048 80.8859 50.029 80.8662 50.0055C80.8465 49.982 80.8321 49.9545 80.824 49.9249C80.8159 49.8953 80.8143 49.8643 80.8192 49.834C80.8241 49.8037 80.8356 49.7748 80.8527 49.7494L81.4593 48.8394C81.489 48.7951 81.5342 48.7636 81.586 48.7509C81.6378 48.7383 81.6924 48.7454 81.7392 48.771C83.3641 49.6511 85.0866 49.8882 86.9066 49.4823C87.3281 49.3884 87.6115 49.1527 87.7568 48.7753C88.0345 48.0575 87.2997 47.6773 86.6716 47.6538C84.937 47.5897 80.7822 48.7475 81.1218 45.4514C81.4316 42.4586 86.6759 43.2468 88.4639 43.9496C88.4923 43.9607 88.5181 43.9778 88.5394 43.9997C88.5607 44.0215 88.5771 44.0477 88.5874 44.0765C88.5977 44.1052 88.6018 44.1359 88.5993 44.1663C88.5967 44.1968 88.5877 44.2263 88.5728 44.253L88.0772 45.1352C88.0522 45.1806 88.0115 45.2153 87.9627 45.2326C87.9138 45.2499 87.8603 45.2487 87.8123 45.2292C86.7699 44.8127 83.54 44.0821 82.8222 45.3232C82.5588 45.7761 82.8343 46.1528 83.6489 46.4532C83.6866 46.4672 83.7281 46.4702 83.7685 46.4618C85.0695 46.1884 87.6073 45.8722 88.7053 46.7245C89.8246 47.5918 89.5704 49.4097 88.4212 50.2428C87.7675 50.7156 86.8788 50.9862 85.7552 51.0546Z" fill="#F9F9FC"/>
<path d="M134.567 51.0549L133.661 51.0485C128.688 50.8883 127.738 44.5289 132.655 43.3946C134.035 43.0756 135.433 43.2479 136.848 43.9116C136.876 43.9241 136.9 43.9422 136.92 43.9647C136.939 43.9873 136.954 44.0137 136.963 44.0423C136.972 44.0709 136.975 44.101 136.971 44.1308C136.967 44.1605 136.958 44.1892 136.942 44.2149L136.466 45.0096C136.439 45.0539 136.397 45.0872 136.348 45.1033C136.299 45.1194 136.246 45.1172 136.199 45.0971C134.932 44.5567 133.151 44.3922 131.989 45.2424C131.004 45.9623 130.754 47.2803 131.356 48.3249C132.429 50.1834 134.798 49.7134 136.442 49.1196C136.489 49.1027 136.54 49.1026 136.587 49.1194C136.634 49.1361 136.673 49.1687 136.699 49.2114L137.175 50.0168C137.19 50.0412 137.2 50.0685 137.204 50.0969C137.208 50.1253 137.206 50.1542 137.198 50.182C137.191 50.2097 137.178 50.2357 137.16 50.2584C137.142 50.281 137.119 50.2998 137.094 50.3137C136.305 50.7395 135.463 50.9866 134.567 51.0549Z" fill="#F9F9FC"/>
<path d="M155.715 51.0549H154.54C153.254 50.9609 152.042 50.6241 150.904 50.0445C150.877 50.0309 150.853 50.0118 150.834 49.9884C150.816 49.9649 150.802 49.9377 150.794 49.9085C150.786 49.8792 150.785 49.8486 150.79 49.8187C150.795 49.7887 150.806 49.7601 150.823 49.7347L151.417 48.8439C151.446 48.7995 151.49 48.7676 151.542 48.7545C151.593 48.7414 151.648 48.7482 151.694 48.7734C153.276 49.6293 154.958 49.8722 156.74 49.5019C157.767 49.2883 158.265 47.9254 157.058 47.6861C155.917 47.4597 154.529 48.0044 153.183 47.8335C150.122 47.4405 150.626 43.8965 153.228 43.433C155.012 43.1154 156.743 43.2884 158.419 43.9521C158.447 43.9631 158.472 43.98 158.493 44.0016C158.514 44.0233 158.53 44.0493 158.54 44.0778C158.55 44.1063 158.554 44.1367 158.552 44.167C158.549 44.1972 158.54 44.2267 158.526 44.2533L158.043 45.1313C158.018 45.1767 157.977 45.2115 157.929 45.2292C157.88 45.2469 157.826 45.2462 157.778 45.2274C156.708 44.8087 153.504 44.0824 152.779 45.3214C152.438 45.9088 153.023 46.319 153.574 46.3489C155.377 46.4471 157.505 45.6503 158.774 46.8317C159.457 47.4661 159.534 48.5726 159.139 49.3545C158.554 50.5166 156.951 50.9929 155.715 51.0549Z" fill="#F9F9FC"/>
<path d="M98.9585 46.325V47.4209C98.9585 47.4486 98.9475 47.4753 98.9278 47.4949C98.9082 47.5145 98.8816 47.5255 98.8538 47.5255L94.7374 47.5084C94.7236 47.5084 94.71 47.5112 94.6973 47.5164C94.6846 47.5217 94.6731 47.5294 94.6634 47.5391C94.6537 47.5488 94.6459 47.5604 94.6407 47.5731C94.6354 47.5858 94.6327 47.5994 94.6327 47.6131V49.5101C94.6327 49.5238 94.6354 49.5374 94.6407 49.5501C94.6459 49.5628 94.6537 49.5743 94.6634 49.5841C94.6731 49.5938 94.6846 49.6015 94.6973 49.6068C94.71 49.612 94.7236 49.6147 94.7374 49.6147L99.5481 49.6105C99.5758 49.6105 99.6025 49.6215 99.6221 49.6411C99.6417 49.6607 99.6527 49.6874 99.6527 49.7151V50.843C99.6527 50.8708 99.6417 50.8974 99.6221 50.917C99.6025 50.9367 99.5758 50.9477 99.5481 50.9477H93.1887C93.1609 50.9477 93.1343 50.9367 93.1146 50.917C93.095 50.8974 93.084 50.8708 93.084 50.843V43.4689C93.084 43.4412 93.095 43.4145 93.1146 43.3949C93.1343 43.3753 93.1609 43.3643 93.1887 43.3643H99.4413C99.469 43.3643 99.4956 43.3753 99.5153 43.3949C99.5349 43.4145 99.5459 43.4412 99.5459 43.4689V44.599C99.5459 44.6267 99.5349 44.6534 99.5153 44.673C99.4956 44.6926 99.469 44.7036 99.4413 44.7036L94.7374 44.6972C94.7236 44.6972 94.71 44.6999 94.6973 44.7052C94.6846 44.7105 94.6731 44.7182 94.6634 44.7279C94.6537 44.7376 94.6459 44.7492 94.6407 44.7619C94.6354 44.7746 94.6327 44.7882 94.6327 44.8019V46.1413C94.6327 46.155 94.6354 46.1687 94.6407 46.1814C94.6459 46.1941 94.6537 46.2056 94.6634 46.2153C94.6731 46.225 94.6846 46.2327 94.6973 46.238C94.71 46.2433 94.7236 46.246 94.7374 46.246L98.8538 46.2203C98.8816 46.2203 98.9082 46.2314 98.9278 46.251C98.9475 46.2706 98.9585 46.2972 98.9585 46.325Z" fill="#F9F9FC"/>
<path d="M109.035 48.7647L110.302 50.6147C110.454 50.8368 110.395 50.9479 110.124 50.9479H108.732C108.696 50.948 108.661 50.9392 108.63 50.9224C108.599 50.9056 108.573 50.8813 108.554 50.8518L107.283 48.9057C107.264 48.8762 107.237 48.852 107.206 48.8352C107.174 48.8184 107.139 48.8096 107.104 48.8096L105.045 48.8011C105.016 48.8011 104.988 48.8067 104.962 48.8175C104.936 48.8284 104.913 48.8443 104.893 48.8644C104.873 48.8844 104.857 48.9083 104.847 48.9344C104.836 48.9606 104.831 48.9886 104.831 49.0168L104.84 50.7343C104.84 50.7624 104.834 50.7903 104.824 50.8164C104.813 50.8424 104.797 50.8661 104.778 50.886C104.758 50.9059 104.734 50.9216 104.708 50.9322C104.682 50.9429 104.654 50.9482 104.626 50.9479L103.53 50.9458C103.473 50.9452 103.419 50.9222 103.379 50.8818C103.339 50.8414 103.316 50.7869 103.316 50.73L103.333 43.5781C103.333 43.5214 103.356 43.4671 103.396 43.427C103.436 43.387 103.49 43.3645 103.547 43.3645C104.823 43.3631 106.106 43.3638 107.397 43.3666C109.358 43.3709 111.022 44.565 110.481 46.7311C110.292 47.4916 109.835 48.0669 109.11 48.4571C109.083 48.471 109.06 48.4904 109.042 48.5139C109.024 48.5374 109.011 48.5645 109.004 48.5936C108.997 48.6226 108.996 48.6528 109.001 48.6823C109.007 48.7118 109.018 48.7399 109.035 48.7647ZM104.867 44.9794L104.893 47.231C104.893 47.259 104.899 47.2868 104.91 47.3126C104.921 47.3384 104.937 47.3618 104.958 47.3814C104.978 47.401 105.002 47.4165 105.028 47.427C105.054 47.4375 105.082 47.4427 105.111 47.4425C105.78 47.4325 106.451 47.4232 107.123 47.4147C107.664 47.4076 108.056 47.3328 108.298 47.1904C109.103 46.7204 109.178 45.1247 108.187 44.8619C107.297 44.627 106.252 44.5949 105.051 44.7658C105 44.7735 104.953 44.7994 104.919 44.8387C104.885 44.8779 104.867 44.9279 104.867 44.9794Z" fill="#F9F9FC"/>
<path d="M117.471 48.9846L119.761 43.4049C119.766 43.3929 119.774 43.3826 119.785 43.3753C119.795 43.3681 119.808 43.3642 119.821 43.3643H121.397C121.408 43.3641 121.419 43.3666 121.428 43.3716C121.438 43.3766 121.446 43.3839 121.452 43.3928C121.458 43.4017 121.461 43.412 121.462 43.4227C121.463 43.4334 121.461 43.4441 121.457 43.454L118.197 50.9093C118.192 50.9209 118.184 50.9307 118.173 50.9375C118.163 50.9444 118.15 50.9479 118.138 50.9477H116.691C116.679 50.9479 116.666 50.9444 116.656 50.9375C116.645 50.9307 116.637 50.9209 116.632 50.9093L113.37 43.454C113.365 43.4441 113.364 43.4334 113.365 43.4227C113.365 43.412 113.369 43.4017 113.375 43.3928C113.381 43.3839 113.389 43.3766 113.399 43.3716C113.408 43.3666 113.419 43.3641 113.429 43.3643H115.01C115.023 43.3642 115.036 43.3681 115.046 43.3753C115.057 43.3826 115.065 43.3929 115.07 43.4049L117.351 48.9846C117.356 48.9967 117.364 49.007 117.375 49.0144C117.386 49.0217 117.398 49.0256 117.411 49.0256C117.424 49.0256 117.437 49.0217 117.448 49.0144C117.458 49.007 117.466 48.9967 117.471 48.9846Z" fill="#F9F9FC"/>
<path d="M125.86 43.3667H124.492C124.446 43.3667 124.409 43.404 124.409 43.45V50.8626C124.409 50.9086 124.446 50.9459 124.492 50.9459H125.86C125.906 50.9459 125.943 50.9086 125.943 50.8626V43.45C125.943 43.404 125.906 43.3667 125.86 43.3667Z" fill="#F9F9FC"/>
<path d="M142.599 49.6147L147.388 49.6105C147.419 49.6105 147.448 49.6226 147.47 49.6442C147.491 49.6659 147.503 49.6952 147.503 49.7258V50.8324C147.503 50.8629 147.491 50.8923 147.47 50.9139C147.448 50.9356 147.419 50.9477 147.388 50.9477H141.05C141.019 50.9477 140.99 50.9356 140.968 50.9139C140.947 50.8923 140.935 50.8629 140.935 50.8324V43.4796C140.935 43.449 140.947 43.4197 140.968 43.398C140.99 43.3764 141.019 43.3643 141.05 43.3643H147.285C147.301 43.3643 147.316 43.3673 147.33 43.3732C147.344 43.3792 147.357 43.3879 147.368 43.3988C147.379 43.4097 147.387 43.4227 147.393 43.4369C147.398 43.4512 147.401 43.4664 147.401 43.4817L147.386 44.5904C147.385 44.6206 147.373 44.6494 147.351 44.6706C147.33 44.6918 147.301 44.7036 147.27 44.7036L142.599 44.6972C142.568 44.6972 142.539 44.7094 142.517 44.731C142.495 44.7527 142.483 44.782 142.483 44.8126V46.1263C142.483 46.1569 142.495 46.1863 142.517 46.2079C142.539 46.2295 142.568 46.2417 142.599 46.2417L146.685 46.231C146.715 46.231 146.744 46.2426 146.765 46.2633C146.787 46.284 146.799 46.3122 146.801 46.3421L146.837 47.4038C146.837 47.4193 146.835 47.4347 146.829 47.4492C146.824 47.4637 146.815 47.477 146.805 47.4881C146.794 47.4993 146.781 47.5082 146.767 47.5142C146.752 47.5203 146.737 47.5234 146.721 47.5234L142.599 47.5084C142.568 47.5084 142.539 47.5206 142.517 47.5422C142.495 47.5639 142.483 47.5932 142.483 47.6238V49.4994C142.483 49.53 142.495 49.5593 142.517 49.5809C142.539 49.6026 142.568 49.6147 142.599 49.6147Z" fill="#F9F9FC"/>
</svg>
