<svg width="151" height="37" viewBox="0 0 151 37" fill="none" xmlns="http://www.w3.org/2000/svg">
<g clip-path="url(#clip0_149_71)">
<path d="M53.2025 0H71.8018L72.1447 0.220584C72.1775 0.241515 72.2033 0.271502 72.2189 0.306813L80.0035 17.2276C80.0196 17.2629 80.0454 17.2927 80.0777 17.3137C80.1101 17.3347 80.1477 17.3459 80.186 17.346L82.063 17.348C82.1014 17.3481 82.1389 17.3371 82.1713 17.3165C82.2036 17.2959 82.2294 17.2665 82.2455 17.2316L90.0261 0.238632C90.0399 0.209413 90.0605 0.183829 90.0863 0.163965C90.112 0.144101 90.1423 0.13052 90.1745 0.124329C90.9004 -0.00401062 91.7487 0.102271 92.2821 0.100266C109.161 0.0989287 126.041 0.0995972 142.92 0.102271C146.319 0.102271 149.536 1.57016 149.746 5.23186C149.827 6.60617 149.506 7.80735 148.784 8.83541C148.042 9.89555 146.961 10.5921 145.541 10.9249C145.239 10.9971 145.228 11.0981 145.509 11.2277C146.414 11.6448 147.122 12.2478 147.633 13.0365C147.78 13.2625 148.166 14.1421 148.792 15.6755C149.526 17.4723 150.262 19.2697 151 21.0678V21.1841L146.165 21.2583C146.123 21.259 146.083 21.2466 146.049 21.2229C146.015 21.1992 145.989 21.1653 145.974 21.126C145.346 19.4067 144.69 17.6989 144.005 16.0024C143.109 13.7765 142.084 12.3427 139.634 12.2525C138.515 12.211 135.434 12.207 130.393 12.2404C130.34 12.241 130.29 12.2623 130.253 12.2999C130.215 12.3374 130.195 12.3881 130.195 12.441V20.9555C130.195 21.0087 130.173 21.0597 130.136 21.0973C130.098 21.1349 130.047 21.156 129.994 21.156H125.833C125.78 21.156 125.729 21.1349 125.691 21.0973C125.654 21.0597 125.632 21.0087 125.632 20.9555V8.52057C125.632 8.46739 125.654 8.41638 125.691 8.37878C125.729 8.34117 125.78 8.32004 125.833 8.32004C131.384 8.32806 136.947 8.32539 142.523 8.31202C145.437 8.304 146.012 4.48388 142.936 4.0006C142.551 3.94044 142.181 3.91036 141.825 3.91036H93.4472C93.4093 3.91034 93.3721 3.92104 93.3398 3.94124C93.3076 3.96145 93.2815 3.99035 93.2647 4.02466L85.087 21.146C85.0708 21.1801 85.0452 21.209 85.0133 21.2292C84.9813 21.2494 84.9443 21.2602 84.9065 21.2603L77.4227 21.2182C77.3853 21.2175 77.3488 21.2064 77.3173 21.1863C77.2858 21.1661 77.2605 21.1376 77.2442 21.1039L68.9282 4.03068C68.9114 3.99631 68.8855 3.96738 68.8536 3.94717C68.8217 3.92696 68.785 3.91629 68.7477 3.91638C64.1208 3.90835 59.4952 3.90635 54.871 3.91036C51.9412 3.91437 49.8396 5.19977 49.0195 8.16162C47.9727 11.9416 49.2701 17.354 54.0909 17.3861C58.6389 17.4155 63.185 17.4409 67.729 17.4623C68.0419 17.4649 68.334 17.4496 68.6053 17.4161C68.6333 17.4128 68.6616 17.4154 68.6885 17.4238C68.7154 17.4322 68.7402 17.4462 68.7614 17.4649C68.7826 17.4836 68.7996 17.5066 68.8114 17.5324C68.8232 17.5582 68.8296 17.5863 68.8299 17.6147L68.838 21.0558C68.838 21.109 68.8168 21.16 68.7792 21.1976C68.7416 21.2352 68.6906 21.2563 68.6374 21.2563C58.0908 21.2563 47.5449 21.2543 36.9996 21.2503C32.3373 21.2503 28.3106 18.2524 28.074 13.3855C27.9603 11.0513 27.9423 6.68905 28.0198 0.298792C28.0209 0.245781 28.0425 0.195296 28.08 0.158177C28.1175 0.121058 28.1679 0.100266 28.2204 0.100266H32.4255C32.4787 0.100266 32.5297 0.121393 32.5673 0.159C32.6049 0.196607 32.626 0.247613 32.626 0.300797C32.6274 5.64562 32.6494 9.55464 32.6922 12.0279C32.7524 15.5973 34.9582 17.4262 38.3392 17.4021C40.7482 17.3847 43.1553 17.4021 45.5603 17.4542C45.817 17.4596 45.8745 17.3553 45.7328 17.1414C45.3036 16.4984 44.962 15.8172 44.708 15.098C44.0002 13.0927 44.0704 10.2652 44.2729 8.17165C44.7181 3.56745 48.7347 0.332882 53.2025 0Z" fill="#F9F9FC"/>
<path d="M68.4218 8.20068L53.5384 8.22665C53.5085 8.2267 53.4843 8.25099 53.4844 8.28089L53.4908 11.9907C53.4909 12.0206 53.5152 12.0448 53.5451 12.0447L68.4285 12.0187C68.4584 12.0187 68.4826 11.9944 68.4825 11.9645L68.4761 8.25472C68.476 8.22482 68.4517 8.20062 68.4218 8.20068Z" fill="#F9F9FC"/>
<path d="M101.034 12.2384C101.071 13.2758 101.387 14.235 101.983 15.116C103.347 17.1334 104.933 17.372 107.449 17.3941C111.889 17.4355 116.33 17.4449 120.771 17.4221C120.824 17.4221 120.875 17.4433 120.913 17.4809C120.95 17.5185 120.971 17.5695 120.971 17.6227V21.0437C120.971 21.0969 120.95 21.1479 120.913 21.1855C120.875 21.2231 120.824 21.2443 120.771 21.2443C115.804 21.2643 110.842 21.2703 105.885 21.2623C101.361 21.2563 97.4109 18.3446 96.5426 13.8707C96.2398 12.3126 96.3421 10.209 96.3661 8.42831C96.3667 8.376 96.388 8.32602 96.4256 8.28922C96.4631 8.25242 96.5138 8.23178 96.5667 8.23179L120.524 8.19971C120.578 8.19971 120.629 8.22105 120.667 8.25903C120.705 8.29701 120.727 8.34853 120.727 8.40224L120.703 11.8333C120.702 11.8862 120.681 11.9367 120.643 11.9738C120.606 12.011 120.555 12.0319 120.502 12.0319H101.235C101.208 12.0318 101.181 12.0372 101.156 12.0477C101.132 12.0582 101.109 12.0735 101.09 12.0928C101.072 12.1121 101.057 12.135 101.047 12.16C101.038 12.185 101.033 12.2117 101.034 12.2384Z" fill="#F9F9FC"/>
<path d="M12.2956 0H23.5254L23.5494 9.3247C23.5494 9.37789 23.5283 9.42889 23.4907 9.4665C23.4531 9.50411 23.4021 9.52523 23.3489 9.52523H19.4025C19.3493 9.52523 19.2983 9.50411 19.2607 9.4665C19.2231 9.42889 19.2019 9.37789 19.2019 9.3247V4.11089C19.2019 4.05771 19.1808 4.0067 19.1432 3.96909C19.1056 3.93149 19.0546 3.91036 19.0014 3.91036H9.54431C9.32373 3.91036 9.28162 3.82413 9.41798 3.65167L12.2956 0Z" fill="#109CD7"/>
<path d="M0 15.3788V15.2785L3.60355 10.8247C3.8268 10.5467 3.94512 10.5861 3.95849 10.9431C3.99458 11.8896 4.13028 12.7532 4.36557 13.5339C4.90032 15.3146 5.9384 16.4837 7.47982 17.0412C8.11216 17.2698 9.22043 17.3941 10.8046 17.4142C14.8086 17.4623 18.9462 17.4536 23.2175 17.3881C23.2443 17.3876 23.271 17.3924 23.2959 17.4024C23.3209 17.4124 23.3435 17.4272 23.3626 17.4461C23.3817 17.465 23.3968 17.4875 23.407 17.5124C23.4172 17.5372 23.4223 17.5638 23.4221 17.5907L23.392 21.0558C23.392 21.1085 23.3711 21.159 23.3338 21.1962C23.2966 21.2335 23.2461 21.2544 23.1934 21.2544C18.4876 21.2557 13.7825 21.2564 9.07805 21.2564C4.78 21.2564 1.75398 19.2972 0 15.3788Z" fill="#F9F9FC"/>
<path d="M93.8364 36.6973H92.7836C90.3692 36.4788 88.4902 34.9307 88.9615 32.3117C89.2275 30.8318 90.154 29.918 91.7408 29.5705C93.186 29.2536 94.571 29.3967 95.8959 29.9996C95.922 30.0112 95.9453 30.0284 95.9642 30.0499C95.9831 30.0714 95.9971 30.0967 96.0053 30.1242C96.0135 30.1516 96.0157 30.1805 96.0117 30.2088C96.0077 30.2371 95.9976 30.2643 95.9821 30.2884L95.5048 31.0464C95.4788 31.0872 95.4389 31.1173 95.3926 31.1313C95.3462 31.1452 95.2964 31.1422 95.2521 31.1226C93.5396 30.3485 89.9441 30.5611 90.4354 33.4006C90.8344 35.6987 93.8484 35.7007 95.4687 34.8845C95.5142 34.8618 95.5664 34.8568 95.6151 34.8705C95.6637 34.8843 95.7053 34.9158 95.7314 34.9587L96.2007 35.7368C96.2149 35.7605 96.2241 35.7869 96.2277 35.8143C96.2312 35.8417 96.2291 35.8696 96.2214 35.8961C96.2137 35.9227 96.2005 35.9474 96.1828 35.9686C96.1651 35.9898 96.1432 36.0072 96.1184 36.0195C95.4005 36.3792 94.6399 36.6051 93.8364 36.6973Z" fill="#109CD7"/>
<path d="M80.9898 29.478H82.4437C82.4562 29.4782 82.4685 29.4819 82.4791 29.4886C82.4897 29.4953 82.4983 29.5049 82.5038 29.5161L85.8968 36.4986C85.9019 36.5089 85.9043 36.5204 85.9037 36.5319C85.9032 36.5433 85.8998 36.5545 85.8938 36.5643C85.8878 36.5741 85.8794 36.5822 85.8694 36.5879C85.8594 36.5936 85.8482 36.5967 85.8367 36.5969H84.451C84.4381 36.5971 84.4254 36.5936 84.4144 36.5868C84.4034 36.5801 84.3945 36.5704 84.3888 36.5588L83.8554 35.4318C83.8497 35.4202 83.8409 35.4105 83.8298 35.4037C83.8188 35.397 83.8061 35.3935 83.7932 35.3937H79.7365C79.7234 35.3937 79.7105 35.3975 79.6995 35.4046C79.6885 35.4117 79.6797 35.4218 79.6743 35.4338L79.153 36.5528C79.1474 36.564 79.1389 36.5736 79.1282 36.5803C79.1176 36.587 79.1054 36.5907 79.0928 36.5909L77.6971 36.6109C77.6857 36.6109 77.6745 36.6081 77.6645 36.6026C77.6545 36.5972 77.646 36.5893 77.6398 36.5797C77.6336 36.5702 77.6299 36.5592 77.6291 36.5478C77.6282 36.5365 77.6302 36.5251 77.6349 36.5147L80.9277 29.5181C80.9331 29.5062 80.9418 29.496 80.9528 29.4889C80.9639 29.4818 80.9767 29.478 80.9898 29.478ZM80.296 34.1123C80.2892 34.1267 80.2862 34.1427 80.2872 34.1586C80.2883 34.1745 80.2933 34.1899 80.3019 34.2033C80.3106 34.2167 80.3225 34.2278 80.3365 34.2353C80.3505 34.2429 80.3663 34.2468 80.3822 34.2467L83.1295 34.2306C83.1453 34.2304 83.1608 34.2263 83.1745 34.2186C83.1883 34.2109 83.1999 34.1998 83.2083 34.1864C83.2167 34.1731 83.2216 34.1578 83.2225 34.142C83.2235 34.1263 83.2204 34.1105 83.2137 34.0963L81.824 31.1886C81.8164 31.1724 81.8043 31.1588 81.7893 31.1492C81.7742 31.1396 81.7567 31.1346 81.7388 31.1346C81.7209 31.1346 81.7034 31.1396 81.6884 31.1492C81.6733 31.1588 81.6612 31.1724 81.6536 31.1886L80.296 34.1123Z" fill="#109CD7"/>
<path d="M102.631 29.478H104.087C104.1 29.4778 104.114 29.4814 104.125 29.4885C104.137 29.4956 104.147 29.5059 104.153 29.5181L107.532 36.4926C107.537 36.5036 107.54 36.5158 107.539 36.528C107.539 36.5402 107.535 36.5521 107.528 36.5625C107.522 36.573 107.513 36.5816 107.502 36.5876C107.492 36.5936 107.48 36.5968 107.467 36.5969H106.094C106.08 36.5972 106.067 36.5936 106.055 36.5865C106.043 36.5794 106.034 36.5691 106.028 36.5568L105.488 35.4338C105.482 35.4215 105.473 35.4113 105.461 35.4042C105.449 35.397 105.436 35.3934 105.422 35.3937H101.377C101.363 35.3936 101.35 35.3975 101.338 35.405C101.326 35.4125 101.317 35.4232 101.311 35.4358L100.806 36.5548C100.8 36.5674 100.791 36.5781 100.779 36.5856C100.767 36.5931 100.754 36.597 100.74 36.5969H99.354C99.3418 36.597 99.3299 36.594 99.3192 36.5883C99.3085 36.5825 99.2994 36.5741 99.2928 36.5639C99.2862 36.5537 99.2823 36.542 99.2814 36.5299C99.2805 36.5178 99.2827 36.5057 99.2878 36.4946L102.564 29.5202C102.57 29.5075 102.58 29.4968 102.591 29.4893C102.603 29.4819 102.617 29.4779 102.631 29.478ZM101.925 34.1304C101.919 34.1427 101.916 34.1563 101.917 34.1699C101.918 34.1836 101.923 34.1967 101.93 34.2081C101.938 34.2196 101.948 34.2289 101.96 34.2353C101.972 34.2417 101.985 34.2449 101.999 34.2447L104.786 34.2306C104.8 34.2307 104.814 34.2273 104.826 34.2207C104.838 34.214 104.848 34.2044 104.855 34.1927C104.862 34.181 104.866 34.1677 104.867 34.154C104.868 34.1403 104.865 34.1266 104.859 34.1143L103.449 31.1585C103.442 31.145 103.432 31.1337 103.419 31.1259C103.406 31.1181 103.391 31.114 103.376 31.1142C103.361 31.1144 103.346 31.1189 103.334 31.1271C103.321 31.1353 103.311 31.1468 103.304 31.1605L101.925 34.1304Z" fill="#109CD7"/>
<path d="M114.112 29.5081C119.482 29.7006 119.281 36.3562 114.306 36.5567C113.103 36.6062 112.046 36.6122 111.136 36.5748C111.084 36.5727 111.035 36.5507 110.999 36.5133C110.963 36.4759 110.943 36.4261 110.943 36.3742V29.7006C110.943 29.6487 110.963 29.5989 110.999 29.5615C111.035 29.5242 111.084 29.5021 111.136 29.5C112.004 29.4653 112.995 29.468 114.112 29.5081ZM114.36 35.3114C117.126 35.1289 117.294 31.2066 114.653 30.8215C113.966 30.7213 113.275 30.7026 112.58 30.7654C112.53 30.7699 112.483 30.7928 112.449 30.8295C112.416 30.8663 112.397 30.9142 112.397 30.9639V35.1249C112.397 35.1761 112.417 35.2254 112.452 35.2626C112.487 35.2999 112.535 35.3224 112.586 35.3255C113.134 35.3589 113.725 35.3542 114.36 35.3114Z" fill="#109CD7"/>
<path d="M123.326 35.3436H127.838C127.864 35.3436 127.89 35.3541 127.908 35.3729C127.927 35.3917 127.938 35.4172 127.938 35.4438V36.4966C127.938 36.5232 127.927 36.5487 127.908 36.5675C127.89 36.5863 127.864 36.5969 127.838 36.5969H121.872C121.845 36.5969 121.82 36.5863 121.801 36.5675C121.782 36.5487 121.771 36.5232 121.771 36.4966V29.5783C121.771 29.5517 121.782 29.5262 121.801 29.5074C121.82 29.4886 121.845 29.478 121.872 29.478H127.779C127.793 29.478 127.806 29.4807 127.819 29.486C127.831 29.4913 127.842 29.4991 127.852 29.5088C127.861 29.5185 127.868 29.5301 127.873 29.5427C127.878 29.5553 127.88 29.5688 127.88 29.5823L127.848 30.6371C127.847 30.6633 127.836 30.6883 127.817 30.7067C127.799 30.7251 127.774 30.7354 127.747 30.7354L123.326 30.7334C123.299 30.7334 123.273 30.7439 123.255 30.7627C123.236 30.7815 123.225 30.807 123.225 30.8336V32.0749C123.225 32.0882 123.228 32.1014 123.233 32.1137C123.238 32.126 123.246 32.1372 123.255 32.1465C123.265 32.1559 123.276 32.1632 123.289 32.1681C123.301 32.173 123.314 32.1754 123.328 32.1752L127.214 32.125C127.24 32.125 127.265 32.135 127.283 32.153C127.302 32.1709 127.313 32.1954 127.314 32.2213L127.346 33.2961C127.346 33.3096 127.344 33.3231 127.339 33.3356C127.334 33.3481 127.326 33.3595 127.317 33.3691C127.307 33.3786 127.296 33.3861 127.283 33.3912C127.271 33.3962 127.257 33.3987 127.244 33.3984L123.326 33.3603C123.299 33.3603 123.273 33.3709 123.255 33.3897C123.236 33.4085 123.225 33.434 123.225 33.4606V35.2433C123.225 35.2699 123.236 35.2954 123.255 35.3142C123.273 35.333 123.299 35.3436 123.326 35.3436Z" fill="#109CD7"/>
<path d="M138.34 31.6097L135.921 33.9399C135.907 33.9536 135.889 33.9613 135.869 33.9613C135.85 33.9613 135.831 33.9536 135.817 33.9399L133.377 31.5917C133.366 31.582 133.353 31.5756 133.339 31.5732C133.324 31.5708 133.31 31.5726 133.297 31.5783C133.284 31.5841 133.272 31.5935 133.264 31.6055C133.257 31.6175 133.252 31.6315 133.252 31.6458L133.298 36.5227C133.298 36.5424 133.29 36.5613 133.277 36.5752C133.263 36.5891 133.244 36.5969 133.224 36.5969L131.891 36.5989C131.871 36.5989 131.852 36.5911 131.838 36.5772C131.824 36.5633 131.816 36.5444 131.816 36.5247L131.826 29.5563C131.826 29.5366 131.834 29.5177 131.848 29.5038C131.862 29.4899 131.881 29.4821 131.901 29.4821L133.244 29.4761C133.264 29.4762 133.283 29.4842 133.296 29.4981L135.807 32.0068C135.821 32.0205 135.84 32.0282 135.859 32.0282C135.879 32.0282 135.897 32.0205 135.911 32.0068L138.42 29.5001C138.434 29.4862 138.452 29.4783 138.472 29.4781H139.846C139.865 29.4781 139.884 29.4859 139.898 29.4998C139.912 29.5137 139.92 29.5326 139.92 29.5523V36.5227C139.92 36.5424 139.912 36.5613 139.898 36.5752C139.884 36.5891 139.865 36.5969 139.846 36.5969H138.54C138.521 36.5969 138.502 36.5891 138.488 36.5752C138.474 36.5613 138.466 36.5424 138.466 36.5227V31.6639C138.466 31.6491 138.462 31.6346 138.454 31.6222C138.446 31.6098 138.435 31.6001 138.421 31.5943C138.407 31.5885 138.392 31.5869 138.378 31.5896C138.363 31.5924 138.35 31.5994 138.34 31.6097Z" fill="#109CD7"/>
<path d="M147.284 33.1919L149.219 29.5843C149.237 29.5521 149.263 29.5252 149.294 29.5065C149.326 29.4878 149.362 29.478 149.398 29.478H150.587C150.622 29.4779 150.657 29.4871 150.688 29.5046C150.718 29.5221 150.744 29.5474 150.761 29.5779C150.779 29.6085 150.788 29.6431 150.788 29.6784C150.788 29.7136 150.779 29.7483 150.762 29.7788L147.868 34.8001C147.851 34.8309 147.842 34.8643 147.842 34.9004V36.3964C147.842 36.4495 147.821 36.5005 147.783 36.5382C147.746 36.5758 147.694 36.5969 147.641 36.5969H146.605C146.578 36.5969 146.552 36.5917 146.527 36.5816C146.503 36.5715 146.481 36.5567 146.462 36.538C146.443 36.5194 146.429 36.4973 146.419 36.4729C146.409 36.4486 146.404 36.4226 146.404 36.3964C146.406 35.6504 146.498 35.0147 146.101 34.3389C145.21 32.8189 144.322 31.2989 143.438 29.7788C143.321 29.5783 143.378 29.478 143.611 29.478H144.804C144.84 29.4779 144.875 29.4876 144.906 29.5059C144.937 29.5243 144.963 29.5506 144.98 29.5823L146.929 33.1919C147.048 33.4111 147.167 33.4111 147.284 33.1919Z" fill="#109CD7"/>
</g>
<defs>
<clipPath id="clip0_149_71">
<rect width="151" height="37" fill="white"/>
</clipPath>
</defs>
</svg>
