<svg width="160" height="52" viewBox="0 0 160 52" fill="none" xmlns="http://www.w3.org/2000/svg">
<path d="M13.0438 0H24.953L24.9359 9.93325C24.9359 9.9899 24.9134 10.0442 24.8733 10.0843C24.8333 10.1244 24.7789 10.1469 24.7223 10.1469H20.561C20.5043 10.1469 20.45 10.1244 20.4099 10.0843C20.3699 10.0442 20.3474 9.9899 20.3474 9.93325V4.37704C20.3474 4.32038 20.3249 4.26605 20.2848 4.22599C20.2447 4.18593 20.1904 4.16342 20.1338 4.16342L10.0723 4.16769C9.83594 4.16769 9.79108 4.07512 9.93776 3.88999L13.0438 0Z" fill="#CF4187"/>
<path d="M56.3544 0H76.0607C76.3227 0.119626 76.4765 0.229996 76.5221 0.331108C79.2749 6.34517 82.0271 12.3614 84.7785 18.3797C84.7956 18.4179 84.8236 18.4501 84.8589 18.4725C84.8942 18.4949 84.9353 18.5065 84.9771 18.5057L86.968 18.463C87.0084 18.4623 87.0476 18.4503 87.0813 18.4284C87.1149 18.4065 87.1416 18.3755 87.1582 18.3391L95.3867 0.264887C95.4006 0.234416 95.4216 0.207557 95.4479 0.186427C95.4742 0.165296 95.5052 0.150472 95.5384 0.143124C96.4014 -0.0320427 97.4802 0.106809 98.1274 0.106809C115.983 0.105385 133.839 0.106097 151.694 0.108945C155.076 0.108945 158.265 1.70895 158.635 5.29132C158.791 6.80659 158.494 8.13957 157.742 9.29026C156.961 10.4851 155.785 11.2705 154.213 11.6465C153.894 11.7234 153.883 11.8302 154.181 11.9669C155.132 12.4098 155.878 13.0478 156.42 13.8809C156.582 14.1301 156.991 15.0644 157.648 16.6836C158.427 18.6047 159.211 20.5244 160 22.4427V22.5624L154.875 22.6521C154.831 22.6528 154.788 22.6396 154.751 22.6143C154.715 22.589 154.687 22.553 154.672 22.5111C154.151 21.0969 153.634 19.7319 153.121 18.416C151.523 14.3167 150.878 13.0521 146.429 13.0371C143.67 13.0271 140.913 13.0264 138.157 13.035C138.101 13.035 138.046 13.0575 138.006 13.0975C137.966 13.1376 137.944 13.1919 137.944 13.2486V22.3765C137.944 22.4332 137.921 22.4875 137.881 22.5276C137.841 22.5676 137.787 22.5901 137.73 22.5901H133.319C133.263 22.5901 133.209 22.5677 133.169 22.5277C133.129 22.4877 133.106 22.4334 133.105 22.3765L133.092 9.08091C133.092 9.05296 133.098 9.02523 133.108 8.99933C133.119 8.97342 133.134 8.94986 133.154 8.92999C133.174 8.91013 133.198 8.89436 133.224 8.8836C133.25 8.87284 133.278 8.86729 133.306 8.86729C139.299 8.86587 145.17 8.86231 150.919 8.85661C154.55 8.85447 154.627 4.1741 150.588 4.17196C133.397 4.16057 116.207 4.16128 99.0182 4.1741C98.9775 4.17405 98.9376 4.18547 98.9031 4.20702C98.8687 4.22857 98.8412 4.25938 98.8239 4.29586L90.1702 22.5196C90.1528 22.5561 90.1253 22.5869 90.0909 22.6085C90.0565 22.63 90.0166 22.6414 89.9758 22.6414L82.403 22.6435C82.0769 22.6435 81.8455 22.5011 81.7088 22.2163L73.0359 4.29586C73.0185 4.25995 72.9913 4.22966 72.9573 4.20849C72.9233 4.18733 72.8839 4.17615 72.8436 4.17624C67.9674 4.16627 63.087 4.16128 58.2022 4.16128C54.8206 4.16128 52.5242 5.77624 51.8022 9.24112C51.0951 12.6312 51.9304 16.9848 55.564 18.2238C56.1465 18.4231 56.996 18.5264 58.1125 18.5335C62.9887 18.5648 67.8635 18.5862 72.7368 18.5976C72.7935 18.5976 72.8478 18.6201 72.8878 18.6602C72.9279 18.7002 72.9504 18.7546 72.9504 18.8112V22.4278C72.9504 22.4844 72.9279 22.5388 72.8878 22.5788C72.8478 22.6189 72.7935 22.6414 72.7368 22.6414C61.3937 22.6442 50.0548 22.6435 38.7202 22.6393C33.9373 22.6371 29.917 18.9821 29.7397 14.1543C29.6571 11.8814 29.64 7.26943 29.6885 0.318291C29.6885 0.262203 29.711 0.208411 29.751 0.168751C29.7911 0.12909 29.8454 0.106809 29.9021 0.106809H34.4009C34.4291 0.106811 34.4571 0.112353 34.4831 0.123116C34.5092 0.133878 34.5328 0.149648 34.5527 0.169512C34.5726 0.189376 34.5882 0.212942 34.5989 0.238846C34.6095 0.264749 34.6148 0.292478 34.6145 0.320427C34.5917 4.30654 34.5974 8.2891 34.6316 12.2681C34.6636 16.0876 36.3875 18.5656 40.5894 18.5805C43.7153 18.5919 46.2531 18.5841 48.2027 18.557C48.452 18.5542 48.5118 18.4459 48.3822 18.2323C47.5847 16.915 47.1048 15.6454 46.9424 14.4235C46.7224 12.7509 46.7501 10.0101 46.9274 8.51482C47.4978 3.73405 51.6634 0.367423 56.3544 0Z" fill="#FBF1F5"/>
<path d="M72.4853 8.7583H56.7545C56.7037 8.7583 56.6626 8.79943 56.6626 8.85016V12.7252C56.6626 12.7759 56.7037 12.817 56.7545 12.817H72.4853C72.536 12.817 72.5772 12.7759 72.5772 12.7252V8.85016C72.5772 8.79943 72.536 8.7583 72.4853 8.7583Z" fill="#FBF1F5"/>
<path d="M107.042 13.0413C107.107 14.2775 107.526 15.399 108.298 16.4058C109.851 18.4309 111.519 18.5762 114.194 18.5783C118.8 18.5826 123.406 18.5876 128.013 18.5933C128.07 18.5933 128.124 18.6158 128.164 18.6558C128.204 18.6959 128.226 18.7502 128.226 18.8069L128.22 22.4256C128.22 22.4817 128.198 22.5355 128.158 22.5751C128.117 22.6148 128.063 22.6371 128.006 22.6371C122.643 22.6456 117.287 22.6307 111.938 22.5922C106.666 22.5538 102.492 18.7428 102.129 13.5519C102.03 12.1563 102.033 10.6253 102.137 8.9591C102.141 8.9047 102.165 8.8536 102.204 8.81627C102.244 8.77894 102.296 8.7582 102.351 8.7583H127.692C127.749 8.7583 127.803 8.78081 127.843 8.82087C127.884 8.86093 127.906 8.91526 127.906 8.97192L127.9 12.6034C127.9 12.6601 127.877 12.7144 127.837 12.7545C127.797 12.7945 127.743 12.817 127.686 12.817H107.256C107.227 12.817 107.198 12.8229 107.171 12.8343C107.145 12.8457 107.121 12.8624 107.101 12.8833C107.081 12.9043 107.065 12.9292 107.055 12.9563C107.045 12.9835 107.041 13.0124 107.042 13.0413Z" fill="#FBF1F5"/>
<path d="M0 16.3823V16.3289L3.90494 11.452C4.11001 11.1957 4.21113 11.2313 4.20828 11.5588C4.20116 12.5586 4.36066 13.5604 4.68678 14.5644C5.83818 18.1276 8.22003 18.5783 11.7255 18.5805C16.005 18.5847 20.2852 18.5869 24.5661 18.5869C24.6227 18.5869 24.6771 18.6094 24.7171 18.6494C24.7572 18.6895 24.7797 18.7438 24.7797 18.8005V22.4213C24.7797 22.4776 24.7573 22.5316 24.7173 22.5716C24.6773 22.6116 24.6229 22.6344 24.5661 22.6349C19.9391 22.6435 15.3164 22.647 10.698 22.6456C8.97624 22.6456 7.69381 22.5438 6.85073 22.3401C3.66925 21.5754 1.38567 19.5894 0 16.3823Z" fill="#FBF1F5"/>
<path d="M72.7328 36.6376C72.015 34.9201 72.6922 32.7006 74.5571 31.9017C76.3543 31.1312 78.1288 31.1626 79.8804 31.9957C79.9074 32.0087 79.9314 32.0272 79.9509 32.05C79.9703 32.0728 79.9847 32.0994 79.9932 32.128C80.0016 32.1566 80.0039 32.1867 80 32.2161C79.996 32.2456 79.9859 32.2738 79.9702 32.299L79.4874 33.0894C79.461 33.1338 79.4193 33.167 79.3701 33.1827C79.3209 33.1985 79.2676 33.1957 79.2204 33.1749C78.2007 32.7248 77.1447 32.6223 76.0524 32.8672C74.2986 33.2582 73.4527 35.1081 74.5165 36.6205C75.5504 38.0902 78.0262 37.9065 79.4361 37.1845C79.4844 37.1601 79.5401 37.1549 79.592 37.1699C79.644 37.185 79.6882 37.2192 79.716 37.2656L80.2158 38.0923C80.2308 38.1172 80.2405 38.1449 80.2445 38.1737C80.2484 38.2025 80.2464 38.2318 80.2386 38.2598C80.2308 38.2878 80.2173 38.3139 80.1991 38.3366C80.1809 38.3592 80.1582 38.3778 80.1325 38.3914C77.819 39.5984 73.929 39.5044 72.7328 36.6376Z" fill="#FBF1F5"/>
<path d="M107.512 36.439C106.342 32.9506 109.918 30.6436 112.962 31.4938C114.971 32.0549 115.964 33.2867 115.942 35.1894C115.884 39.9125 108.882 40.5255 107.512 36.439ZM114.446 35.2137C114.444 34.5396 114.146 33.894 113.619 33.4191C113.091 32.9442 112.377 32.6789 111.633 32.6815C110.889 32.6841 110.176 32.9544 109.652 33.433C109.128 33.9115 108.834 34.5591 108.837 35.2333C108.839 35.9075 109.137 36.5531 109.665 37.0279C110.192 37.5028 110.907 37.7682 111.65 37.7656C112.394 37.763 113.107 37.4927 113.631 37.0141C114.155 36.5355 114.449 35.8879 114.446 35.2137Z" fill="#FBF1F5"/>
<path d="M128.63 35.6934C128.173 31.9273 132.281 30.5367 135.101 31.7885C137.28 32.7583 137.852 35.6208 136.543 37.475C134.543 40.3033 129.085 39.4616 128.63 35.6934ZM135.72 35.2234C135.72 34.5498 135.425 33.9038 134.899 33.4274C134.373 32.9511 133.659 32.6835 132.916 32.6835C132.172 32.6835 131.458 32.9511 130.932 33.4274C130.406 33.9038 130.111 34.5498 130.111 35.2234C130.111 35.8971 130.406 36.5431 130.932 37.0194C131.458 37.4958 132.172 37.7634 132.916 37.7634C133.659 37.7634 134.373 37.4958 134.899 37.0194C135.425 36.5431 135.72 35.8971 135.72 35.2234Z" fill="#FBF1F5"/>
<path d="M147.548 36.2851C147.56 36.2524 147.564 36.2172 147.56 36.1826C147.556 36.148 147.543 36.115 147.523 36.0865C147.503 36.0579 147.477 36.0346 147.446 36.0186C147.416 36.0026 147.382 35.9944 147.347 35.9946H145.207C145.15 35.9946 145.096 35.9721 145.056 35.932C145.016 35.892 144.993 35.8377 144.993 35.781V34.9265C144.993 34.8699 145.016 34.8155 145.056 34.7755C145.096 34.7354 145.15 34.7129 145.207 34.7129H148.836C148.887 34.7129 148.936 34.7312 148.974 34.7645C149.012 34.7979 149.038 34.844 149.045 34.8945C149.731 39.3634 143.496 40.408 141.201 37.5263C139.83 35.8024 140.255 33.1556 142.169 32.0384C143.82 31.0771 145.969 31.1711 147.73 31.9337C147.758 31.9459 147.783 31.964 147.803 31.9868C147.824 32.0096 147.839 32.0366 147.848 32.066C147.857 32.0953 147.86 32.1264 147.856 32.157C147.852 32.1876 147.842 32.2171 147.826 32.2435L147.317 33.0638C147.291 33.1073 147.249 33.1399 147.201 33.1556C147.152 33.1712 147.099 33.169 147.052 33.1492C145.375 32.4357 142.312 32.4699 142.034 34.8795C141.78 37.0862 143.983 38.0112 145.798 37.6865C146.667 37.5312 147.25 37.0641 147.548 36.2851Z" fill="#FBF1F5"/>
<path d="M54.6438 32.7905H52.059C52.0335 32.7905 52.0091 32.7804 51.991 32.7623C51.973 32.7443 51.9629 32.7199 51.9629 32.6944V31.5451C51.9629 31.5196 51.973 31.4952 51.991 31.4771C52.0091 31.4591 52.0335 31.449 52.059 31.449L58.9931 31.4554C59.0186 31.4554 59.043 31.4655 59.061 31.4835C59.0791 31.5016 59.0892 31.526 59.0892 31.5515L59.0935 32.6944C59.0935 32.7199 59.0833 32.7443 59.0653 32.7623C59.0473 32.7804 59.0228 32.7905 58.9973 32.7905H56.3848C56.3593 32.7905 56.3348 32.8006 56.3168 32.8187C56.2988 32.8367 56.2887 32.8611 56.2887 32.8866V38.9427C56.2887 38.9682 56.2785 38.9926 56.2605 39.0107C56.2425 39.0287 56.218 39.0388 56.1925 39.0388H54.8361C54.8106 39.0388 54.7861 39.0287 54.7681 39.0107C54.7501 38.9926 54.7399 38.9682 54.7399 38.9427V32.8866C54.7399 32.8611 54.7298 32.8367 54.7118 32.8187C54.6937 32.8006 54.6693 32.7905 54.6438 32.7905Z" fill="#FBF1F5"/>
<path d="M64.34 37.6501H69.1379C69.1504 37.6501 69.1628 37.6526 69.1743 37.6575C69.1859 37.6623 69.1963 37.6695 69.2051 37.6784C69.2138 37.6874 69.2207 37.698 69.2253 37.7096C69.2299 37.7213 69.2321 37.7337 69.2318 37.7463L69.2169 38.9468C69.2163 38.9713 69.2062 38.9947 69.1886 39.0119C69.171 39.029 69.1475 39.0387 69.1229 39.0386H62.7913C62.7663 39.0386 62.7424 39.0287 62.7248 39.0111C62.7072 38.9935 62.6973 38.9696 62.6973 38.9447V31.5193C62.6973 31.4944 62.7072 31.4705 62.7248 31.4528C62.7424 31.4352 62.7663 31.4253 62.7913 31.4253L69.0567 31.4424C69.0816 31.4424 69.1055 31.4523 69.1231 31.4699C69.1408 31.4875 69.1507 31.5114 69.1507 31.5364L69.1528 32.6963C69.1528 32.7212 69.1429 32.7452 69.1253 32.7628C69.1076 32.7804 69.0837 32.7903 69.0588 32.7903H64.34C64.3151 32.7903 64.2912 32.8002 64.2735 32.8178C64.2559 32.8355 64.246 32.8594 64.246 32.8843V34.1959C64.246 34.2208 64.2559 34.2448 64.2735 34.2624C64.2912 34.28 64.3151 34.2899 64.34 34.2899L68.4778 34.2835C68.5027 34.2835 68.5266 34.2934 68.5442 34.311C68.5619 34.3287 68.5718 34.3526 68.5718 34.3775V35.4734C68.5718 35.4983 68.5619 35.5222 68.5442 35.5398C68.5266 35.5574 68.5027 35.5673 68.4778 35.5673H64.34C64.3151 35.5673 64.2912 35.5773 64.2735 35.5949C64.2559 35.6125 64.246 35.6364 64.246 35.6613V37.5561C64.246 37.5811 64.2559 37.605 64.2735 37.6226C64.2912 37.6402 64.3151 37.6501 64.34 37.6501Z" fill="#FBF1F5"/>
<path d="M84.1099 31.468L85.3937 31.4274C85.409 31.4271 85.4243 31.4299 85.4385 31.4355C85.4527 31.4412 85.4657 31.4497 85.4767 31.4604C85.4876 31.4711 85.4963 31.484 85.5022 31.4981C85.5081 31.5122 85.5112 31.5274 85.5112 31.5427L85.4962 33.3136C85.496 33.329 85.4987 33.3442 85.5044 33.3584C85.5101 33.3727 85.5185 33.3856 85.5293 33.3966C85.54 33.4075 85.5528 33.4162 85.567 33.4221C85.5811 33.4281 85.5963 33.4311 85.6116 33.4311H90.0848C90.1154 33.4311 90.1447 33.419 90.1663 33.3973C90.188 33.3757 90.2001 33.3464 90.2001 33.3158V31.5128C90.2001 31.4975 90.2032 31.4823 90.2091 31.4682C90.215 31.4541 90.2237 31.4412 90.2347 31.4305C90.2456 31.4198 90.2586 31.4113 90.2728 31.4056C90.287 31.4 90.3023 31.3972 90.3176 31.3975L91.6356 31.4338C91.6659 31.4344 91.6946 31.4468 91.7158 31.4683C91.737 31.4899 91.7489 31.5189 91.7488 31.5492V38.9233C91.7488 38.9538 91.7367 38.9832 91.7151 39.0048C91.6934 39.0265 91.6641 39.0386 91.6335 39.0386H90.3155C90.2849 39.0386 90.2555 39.0265 90.2339 39.0048C90.2123 38.9832 90.2001 38.9538 90.2001 38.9233V34.8282C90.2001 34.7976 90.188 34.7683 90.1663 34.7466C90.1447 34.725 90.1154 34.7128 90.0848 34.7128H85.6095C85.5789 34.7128 85.5495 34.725 85.5279 34.7466C85.5063 34.7683 85.4941 34.7976 85.4941 34.8282L85.5155 38.9233C85.5155 38.9384 85.5125 38.9534 85.5067 38.9674C85.5009 38.9814 85.4924 38.9941 85.4817 39.0048C85.471 39.0155 85.4583 39.024 85.4443 39.0298C85.4303 39.0356 85.4153 39.0386 85.4001 39.0386H84.1184C84.0878 39.0386 84.0585 39.0265 84.0368 39.0048C84.0152 38.9832 84.003 38.9538 84.003 38.9233L83.9988 31.5833C83.9988 31.5535 84.0103 31.5248 84.031 31.5032C84.0518 31.4817 84.08 31.4691 84.1099 31.468Z" fill="#FBF1F5"/>
<path d="M102.109 33.5102V31.6111C102.109 31.5827 102.115 31.5546 102.126 31.5284C102.137 31.5022 102.153 31.4784 102.173 31.4585C102.194 31.4386 102.218 31.423 102.244 31.4125C102.27 31.402 102.299 31.3969 102.327 31.3975L103.449 31.4231C103.504 31.4243 103.558 31.4473 103.597 31.4872C103.636 31.5271 103.658 31.5808 103.658 31.6368V38.825C103.658 38.8817 103.635 38.936 103.595 38.9761C103.555 39.0161 103.501 39.0386 103.444 39.0386H102.323C102.266 39.0386 102.212 39.0161 102.172 38.9761C102.132 38.936 102.109 38.8817 102.109 38.825V35.6763C102.109 35.6376 102.098 35.5996 102.078 35.5664C102.058 35.5333 102.029 35.5063 101.994 35.4883L97.7215 33.2581C97.6889 33.2412 97.6525 33.233 97.6158 33.2343C97.5791 33.2356 97.5433 33.2463 97.512 33.2654C97.4807 33.2845 97.4548 33.3114 97.4368 33.3434C97.4189 33.3754 97.4095 33.4115 97.4096 33.4482V38.825C97.4096 38.8817 97.3871 38.936 97.347 38.9761C97.3069 39.0161 97.2526 39.0386 97.196 39.0386H96.0745C96.0178 39.0386 95.9635 39.0161 95.9234 38.9761C95.8833 38.936 95.8608 38.8817 95.8608 38.825V31.6667C95.8607 31.6128 95.8811 31.5609 95.9179 31.5213C95.9548 31.4817 96.0053 31.4573 96.0595 31.453C96.3728 31.4303 96.684 31.4238 96.993 31.4338C97.312 31.4438 97.6317 31.5356 97.9522 31.7094C99.2196 32.4044 100.503 33.0687 101.802 33.7024C101.834 33.7184 101.87 33.7258 101.907 33.724C101.943 33.7221 101.978 33.711 102.009 33.6918C102.04 33.6725 102.065 33.6458 102.082 33.614C102.1 33.5822 102.109 33.5465 102.109 33.5102Z" fill="#FBF1F5"/>
<path d="M121.296 37.6501H125.432C125.464 37.6501 125.495 37.6629 125.518 37.6857C125.541 37.7086 125.554 37.7396 125.554 37.7718V38.9168C125.554 38.9491 125.541 38.9801 125.518 39.0029C125.495 39.0258 125.464 39.0386 125.432 39.0386H119.748C119.715 39.0386 119.684 39.0258 119.662 39.0029C119.639 38.9801 119.626 38.9491 119.626 38.9168V31.5192C119.626 31.5031 119.629 31.4871 119.635 31.4721C119.642 31.4572 119.651 31.4437 119.662 31.4324C119.674 31.421 119.688 31.4121 119.703 31.4061C119.718 31.4001 119.734 31.3972 119.75 31.3975L121.055 31.4317C121.087 31.4322 121.117 31.4453 121.14 31.4681C121.162 31.4908 121.175 31.5215 121.175 31.5534V37.5283C121.175 37.5606 121.188 37.5916 121.21 37.6144C121.233 37.6373 121.264 37.6501 121.296 37.6501Z" fill="#FBF1F5"/>
<path d="M156.068 35.3836L158.125 31.5257C158.143 31.4904 158.171 31.4611 158.205 31.441C158.239 31.421 158.278 31.4111 158.317 31.4125L159.56 31.436C159.598 31.4366 159.634 31.4469 159.666 31.4659C159.698 31.4849 159.724 31.5119 159.743 31.5443C159.761 31.5766 159.771 31.6132 159.771 31.6504C159.77 31.6877 159.76 31.7242 159.742 31.7564L156.717 37.037C156.699 37.0698 156.689 37.1054 156.689 37.1439V38.8144C156.689 38.8706 156.667 38.9247 156.627 38.9647C156.588 39.0047 156.534 39.0274 156.478 39.028L155.348 39.0429C155.297 39.0437 155.248 39.0262 155.209 38.9938C155.17 38.9613 155.143 38.9159 155.134 38.8656C155.044 38.3444 155.049 37.8289 155.147 37.319C155.158 37.2682 155.15 37.2149 155.123 37.1695L151.994 31.7543C151.975 31.722 151.965 31.6855 151.965 31.6483C151.965 31.6111 151.975 31.5745 151.993 31.5421C152.011 31.5097 152.038 31.4827 152.07 31.4637C152.102 31.4447 152.138 31.4344 152.176 31.4338L153.421 31.4146C153.46 31.414 153.499 31.424 153.533 31.4435C153.567 31.4631 153.594 31.4915 153.613 31.5257L155.692 35.3836C155.817 35.6172 155.942 35.6172 156.068 35.3836Z" fill="#FBF1F5"/>
<path d="M85.755 51.0548H84.5801C83.3339 50.9523 82.1199 50.6212 80.9379 50.0615C80.9102 50.0483 80.8856 50.0293 80.8659 50.0057C80.8463 49.9822 80.8319 49.9547 80.8238 49.9251C80.8156 49.8955 80.814 49.8645 80.819 49.8342C80.8239 49.804 80.8353 49.7751 80.8524 49.7496L81.4591 48.8396C81.4888 48.7953 81.534 48.7638 81.5858 48.7512C81.6375 48.7385 81.6922 48.7457 81.7389 48.7712C83.3639 49.6513 85.0863 49.8885 86.9063 49.4826C87.3279 49.3886 87.6113 49.1529 87.7566 48.7755C88.0343 48.0578 87.2994 47.6775 86.6714 47.654C84.9368 47.5899 80.7819 48.7477 81.1216 45.4516C81.4313 42.4588 86.6756 43.2471 88.4636 43.9499C88.4921 43.961 88.5179 43.978 88.5392 43.9999C88.5605 44.0218 88.5769 44.048 88.5872 44.0767C88.5975 44.1055 88.6015 44.1361 88.599 44.1666C88.5965 44.197 88.5875 44.2266 88.5726 44.2532L88.077 45.1355C88.052 45.1809 88.0112 45.2155 87.9624 45.2328C87.9136 45.2502 87.8601 45.2489 87.8121 45.2295C86.7696 44.8129 83.5397 44.0823 82.822 45.3234C82.5585 45.7763 82.8341 46.153 83.6487 46.4535C83.6864 46.4675 83.7279 46.4704 83.7683 46.462C85.0692 46.1886 87.607 45.8724 88.705 46.7248C89.8244 47.5921 89.5702 49.41 88.4209 50.2431C87.7672 50.7159 86.8786 50.9865 85.755 51.0548Z" fill="#FBF1F5"/>
<path d="M134.567 51.0547L133.661 51.0483C128.688 50.8881 127.737 44.5287 132.655 43.3944C134.035 43.0754 135.433 43.2477 136.848 43.9113C136.875 43.9239 136.9 43.942 136.919 43.9645C136.939 43.987 136.954 44.0134 136.963 44.042C136.972 44.0707 136.974 44.1008 136.971 44.1305C136.967 44.1603 136.957 44.1889 136.942 44.2146L136.466 45.0093C136.439 45.0537 136.397 45.0869 136.348 45.103C136.299 45.1191 136.246 45.1169 136.199 45.0969C134.932 44.5564 133.15 44.392 131.988 45.2422C131.004 45.962 130.754 47.2801 131.356 48.3247C132.428 50.1831 134.797 49.7132 136.442 49.1193C136.489 49.1024 136.54 49.1023 136.587 49.1191C136.634 49.1359 136.673 49.1684 136.699 49.2112L137.175 50.0165C137.19 50.041 137.2 50.0682 137.204 50.0966C137.208 50.125 137.206 50.154 137.198 50.1817C137.191 50.2095 137.177 50.2355 137.159 50.2581C137.142 50.2808 137.119 50.2996 137.094 50.3134C136.305 50.7393 135.462 50.9863 134.567 51.0547Z" fill="#FBF1F5"/>
<path d="M155.715 51.0546H154.54C153.254 50.9606 152.042 50.6238 150.904 50.0442C150.877 50.0307 150.854 50.0116 150.835 49.9881C150.816 49.9647 150.802 49.9374 150.794 49.9082C150.787 49.879 150.785 49.8484 150.79 49.8184C150.795 49.7885 150.806 49.7599 150.823 49.7345L151.417 48.8437C151.446 48.7992 151.49 48.7673 151.542 48.7543C151.593 48.7412 151.648 48.748 151.694 48.7732C153.277 49.6291 154.959 49.8719 156.74 49.5016C157.768 49.288 158.265 47.9251 157.058 47.6859C155.918 47.4594 154.529 48.0042 153.183 47.8333C150.122 47.4402 150.626 43.8963 153.228 43.4327C155.013 43.1152 156.743 43.2882 158.419 43.9518C158.447 43.9628 158.473 43.9797 158.493 44.0014C158.514 44.0231 158.53 44.049 158.541 44.0776C158.551 44.1061 158.555 44.1365 158.552 44.1667C158.55 44.197 158.541 44.2264 158.526 44.253L158.043 45.131C158.018 45.1764 157.978 45.2113 157.929 45.2289C157.88 45.2466 157.827 45.246 157.778 45.2271C156.708 44.8084 153.504 44.0821 152.78 45.3211C152.438 45.9086 153.023 46.3187 153.574 46.3486C155.377 46.4469 157.505 45.6501 158.774 46.8314C159.457 47.4659 159.534 48.5724 159.139 49.3542C158.554 50.5163 156.952 50.9927 155.715 51.0546Z" fill="#FBF1F5"/>
<path d="M98.9585 46.3253V47.4211C98.9585 47.4489 98.9475 47.4755 98.9278 47.4951C98.9082 47.5148 98.8816 47.5258 98.8538 47.5258L94.7374 47.5087C94.7236 47.5087 94.71 47.5114 94.6973 47.5167C94.6846 47.5219 94.6731 47.5296 94.6634 47.5394C94.6537 47.5491 94.6459 47.5606 94.6407 47.5733C94.6354 47.586 94.6327 47.5996 94.6327 47.6134V49.5103C94.6327 49.524 94.6354 49.5377 94.6407 49.5504C94.6459 49.5631 94.6537 49.5746 94.6634 49.5843C94.6731 49.594 94.6846 49.6017 94.6973 49.607C94.71 49.6123 94.7236 49.615 94.7374 49.615L99.5481 49.6107C99.5758 49.6107 99.6025 49.6217 99.6221 49.6414C99.6417 49.661 99.6527 49.6876 99.6527 49.7154V50.8433C99.6527 50.871 99.6417 50.8977 99.6221 50.9173C99.6025 50.9369 99.5758 50.9479 99.5481 50.9479H93.1887C93.1609 50.9479 93.1343 50.9369 93.1146 50.9173C93.095 50.8977 93.084 50.871 93.084 50.8433V43.4692C93.084 43.4414 93.095 43.4148 93.1146 43.3952C93.1343 43.3755 93.1609 43.3645 93.1887 43.3645H99.4413C99.469 43.3645 99.4956 43.3755 99.5153 43.3952C99.5349 43.4148 99.5459 43.4414 99.5459 43.4692V44.5992C99.5459 44.627 99.5349 44.6536 99.5153 44.6732C99.4956 44.6929 99.469 44.7039 99.4413 44.7039L94.7374 44.6975C94.7236 44.6975 94.71 44.7002 94.6973 44.7054C94.6846 44.7107 94.6731 44.7184 94.6634 44.7281C94.6537 44.7379 94.6459 44.7494 94.6407 44.7621C94.6354 44.7748 94.6327 44.7884 94.6327 44.8022V46.1415C94.6327 46.1553 94.6354 46.1689 94.6407 46.1816C94.6459 46.1943 94.6537 46.2058 94.6634 46.2156C94.6731 46.2253 94.6846 46.233 94.6973 46.2382C94.71 46.2435 94.7236 46.2462 94.7374 46.2462L98.8538 46.2206C98.8816 46.2206 98.9082 46.2316 98.9278 46.2512C98.9475 46.2709 98.9585 46.2975 98.9585 46.3253Z" fill="#FBF1F5"/>
<path d="M109.035 48.7647L110.301 50.6147C110.454 50.8368 110.395 50.9479 110.124 50.9479H108.731C108.696 50.948 108.661 50.9392 108.63 50.9224C108.599 50.9056 108.573 50.8813 108.554 50.8518L107.283 48.9057C107.263 48.8762 107.237 48.852 107.205 48.8352C107.174 48.8184 107.139 48.8096 107.104 48.8096L105.044 48.8011C105.016 48.8011 104.988 48.8067 104.962 48.8175C104.936 48.8284 104.912 48.8443 104.893 48.8644C104.873 48.8844 104.857 48.9083 104.846 48.9344C104.836 48.9606 104.83 48.9886 104.831 49.0168L104.839 50.7343C104.84 50.7624 104.834 50.7903 104.824 50.8164C104.813 50.8424 104.797 50.8661 104.777 50.886C104.757 50.9059 104.734 50.9216 104.708 50.9322C104.682 50.9429 104.654 50.9482 104.626 50.9479L103.53 50.9458C103.473 50.9452 103.419 50.9222 103.379 50.8818C103.339 50.8414 103.316 50.7869 103.316 50.73L103.333 43.5781C103.333 43.5214 103.356 43.4671 103.396 43.427C103.436 43.387 103.49 43.3645 103.547 43.3645C104.823 43.3631 106.106 43.3638 107.396 43.3666C109.357 43.3709 111.021 44.565 110.481 46.7311C110.292 47.4916 109.834 48.0669 109.109 48.4571C109.083 48.471 109.06 48.4904 109.042 48.5139C109.024 48.5374 109.011 48.5645 109.004 48.5936C108.997 48.6226 108.996 48.6528 109.001 48.6823C109.006 48.7118 109.018 48.7399 109.035 48.7647ZM104.867 44.9794L104.893 47.231C104.893 47.259 104.899 47.2868 104.91 47.3126C104.921 47.3384 104.937 47.3618 104.957 47.3814C104.978 47.401 105.002 47.4165 105.028 47.427C105.054 47.4375 105.082 47.4427 105.111 47.4425C105.78 47.4325 106.451 47.4232 107.123 47.4147C107.664 47.4076 108.056 47.3328 108.298 47.1904C109.103 46.7204 109.178 45.1247 108.187 44.8619C107.297 44.627 106.251 44.5949 105.051 44.7658C104.999 44.7735 104.952 44.7994 104.919 44.8387C104.885 44.8779 104.867 44.9279 104.867 44.9794Z" fill="#FBF1F5"/>
<path d="M117.471 48.9848L119.761 43.4051C119.766 43.3931 119.774 43.3828 119.784 43.3756C119.795 43.3683 119.808 43.3645 119.821 43.3645H121.397C121.408 43.3643 121.418 43.3668 121.428 43.3718C121.437 43.3768 121.446 43.3841 121.452 43.393C121.457 43.402 121.461 43.4123 121.462 43.4229C121.463 43.4336 121.461 43.4444 121.457 43.4542L118.197 50.9095C118.192 50.9211 118.184 50.9309 118.173 50.9378C118.162 50.9446 118.15 50.9482 118.137 50.948H116.691C116.678 50.9482 116.666 50.9446 116.655 50.9378C116.645 50.9309 116.636 50.9211 116.631 50.9095L113.369 43.4542C113.365 43.4444 113.363 43.4336 113.364 43.4229C113.365 43.4123 113.369 43.402 113.375 43.393C113.381 43.3841 113.389 43.3768 113.398 43.3718C113.408 43.3668 113.418 43.3643 113.429 43.3645H115.01C115.023 43.3645 115.035 43.3683 115.046 43.3756C115.057 43.3828 115.065 43.3931 115.07 43.4051L117.351 48.9848C117.356 48.9969 117.364 49.0073 117.375 49.0146C117.385 49.022 117.398 49.0259 117.411 49.0259C117.424 49.0259 117.437 49.022 117.447 49.0146C117.458 49.0073 117.466 48.9969 117.471 48.9848Z" fill="#FBF1F5"/>
<path d="M125.86 43.3667H124.492C124.446 43.3667 124.409 43.404 124.409 43.45V50.8626C124.409 50.9086 124.446 50.9459 124.492 50.9459H125.86C125.906 50.9459 125.943 50.9086 125.943 50.8626V43.45C125.943 43.404 125.906 43.3667 125.86 43.3667Z" fill="#FBF1F5"/>
<path d="M142.599 49.615L147.388 49.6107C147.419 49.6107 147.448 49.6229 147.47 49.6445C147.491 49.6661 147.503 49.6955 147.503 49.7261V50.8326C147.503 50.8632 147.491 50.8925 147.47 50.9142C147.448 50.9358 147.419 50.9479 147.388 50.9479H141.05C141.019 50.9479 140.99 50.9358 140.968 50.9142C140.947 50.8925 140.935 50.8632 140.935 50.8326V43.4799C140.935 43.4493 140.947 43.4199 140.968 43.3983C140.99 43.3767 141.019 43.3645 141.05 43.3645H147.285C147.301 43.3645 147.316 43.3676 147.33 43.3735C147.344 43.3794 147.357 43.3881 147.368 43.399C147.379 43.41 147.387 43.423 147.393 43.4372C147.398 43.4514 147.401 43.4667 147.401 43.482L147.386 44.5907C147.385 44.6209 147.373 44.6497 147.351 44.6709C147.33 44.692 147.301 44.7039 147.27 44.7039L142.599 44.6975C142.568 44.6975 142.539 44.7096 142.517 44.7313C142.495 44.7529 142.483 44.7822 142.483 44.8128V46.1266C142.483 46.1572 142.495 46.1865 142.517 46.2082C142.539 46.2298 142.568 46.2419 142.599 46.2419L146.685 46.2313C146.715 46.2312 146.744 46.2428 146.765 46.2635C146.787 46.2842 146.799 46.3125 146.801 46.3423L146.837 47.404C146.837 47.4195 146.835 47.435 146.829 47.4495C146.824 47.464 146.815 47.4772 146.805 47.4884C146.794 47.4995 146.781 47.5084 146.767 47.5145C146.752 47.5205 146.737 47.5237 146.721 47.5236L142.599 47.5087C142.568 47.5087 142.539 47.5208 142.517 47.5425C142.495 47.5641 142.483 47.5935 142.483 47.624V49.4996C142.483 49.5302 142.495 49.5596 142.517 49.5812C142.539 49.6028 142.568 49.615 142.599 49.615Z" fill="#FBF1F5"/>
</svg>
