<svg width="151" height="22" viewBox="0 0 151 22" fill="none" xmlns="http://www.w3.org/2000/svg">
<path d="M53.2025 0H71.8018L72.1447 0.220584C72.1775 0.241515 72.2033 0.271502 72.2189 0.306813L80.0035 17.2276C80.0196 17.2629 80.0454 17.2927 80.0777 17.3137C80.1101 17.3347 80.1477 17.3459 80.186 17.346L82.063 17.348C82.1014 17.3481 82.1389 17.3371 82.1713 17.3165C82.2036 17.2959 82.2294 17.2665 82.2455 17.2316L90.0261 0.238632C90.0399 0.209413 90.0605 0.183829 90.0863 0.163965C90.112 0.144101 90.1423 0.13052 90.1745 0.124329C90.9004 -0.00401062 91.7487 0.102271 92.2821 0.100266C109.161 0.0989287 126.041 0.0995972 142.92 0.102271C146.319 0.102271 149.536 1.57016 149.746 5.23186C149.827 6.60617 149.506 7.80735 148.784 8.83541C148.042 9.89555 146.961 10.5921 145.541 10.9249C145.239 10.9971 145.228 11.0981 145.509 11.2277C146.414 11.6448 147.122 12.2478 147.633 13.0365C147.78 13.2625 148.166 14.1421 148.792 15.6755C149.526 17.4723 150.262 19.2697 151 21.0678V21.1841L146.165 21.2583C146.123 21.259 146.083 21.2466 146.049 21.2229C146.015 21.1992 145.989 21.1653 145.974 21.126C145.346 19.4067 144.69 17.6989 144.005 16.0024C143.109 13.7765 142.084 12.3427 139.634 12.2525C138.515 12.211 135.434 12.207 130.393 12.2404C130.34 12.241 130.29 12.2623 130.253 12.2999C130.215 12.3374 130.195 12.3881 130.195 12.441V20.9555C130.195 21.0087 130.173 21.0597 130.136 21.0973C130.098 21.1349 130.047 21.156 129.994 21.156H125.833C125.78 21.156 125.729 21.1349 125.691 21.0973C125.654 21.0597 125.632 21.0087 125.632 20.9555V8.52057C125.632 8.46739 125.654 8.41638 125.691 8.37878C125.729 8.34117 125.78 8.32004 125.833 8.32004C131.384 8.32806 136.947 8.32539 142.523 8.31202C145.437 8.304 146.012 4.48388 142.936 4.0006C142.551 3.94044 142.181 3.91036 141.825 3.91036H93.4472C93.4093 3.91034 93.3721 3.92104 93.3398 3.94124C93.3076 3.96145 93.2815 3.99035 93.2647 4.02466L85.087 21.146C85.0708 21.1801 85.0452 21.209 85.0133 21.2292C84.9813 21.2494 84.9443 21.2602 84.9065 21.2603L77.4227 21.2182C77.3853 21.2175 77.3488 21.2064 77.3173 21.1863C77.2858 21.1661 77.2605 21.1376 77.2442 21.1039L68.9282 4.03068C68.9114 3.99631 68.8855 3.96738 68.8536 3.94717C68.8217 3.92696 68.785 3.91629 68.7477 3.91638C64.1208 3.90835 59.4952 3.90635 54.871 3.91036C51.9412 3.91437 49.8396 5.19977 49.0195 8.16162C47.9727 11.9416 49.2701 17.354 54.0909 17.3861C58.6389 17.4155 63.185 17.4409 67.729 17.4623C68.0419 17.4649 68.334 17.4496 68.6053 17.4161C68.6333 17.4128 68.6616 17.4154 68.6885 17.4238C68.7154 17.4322 68.7402 17.4462 68.7614 17.4649C68.7826 17.4836 68.7996 17.5066 68.8114 17.5324C68.8232 17.5582 68.8296 17.5863 68.8299 17.6147L68.838 21.0558C68.838 21.109 68.8168 21.16 68.7792 21.1976C68.7416 21.2352 68.6906 21.2563 68.6374 21.2563C58.0908 21.2563 47.5449 21.2543 36.9996 21.2503C32.3373 21.2503 28.3106 18.2524 28.074 13.3855C27.9603 11.0513 27.9423 6.68905 28.0198 0.298792C28.0209 0.245781 28.0425 0.195296 28.08 0.158177C28.1175 0.121058 28.1679 0.100266 28.2204 0.100266H32.4255C32.4787 0.100266 32.5297 0.121393 32.5673 0.159C32.6049 0.196607 32.626 0.247613 32.626 0.300797C32.6274 5.64562 32.6494 9.55464 32.6922 12.0279C32.7524 15.5973 34.9582 17.4262 38.3392 17.4021C40.7482 17.3847 43.1553 17.4021 45.5603 17.4542C45.817 17.4596 45.8745 17.3553 45.7328 17.1414C45.3036 16.4984 44.962 15.8172 44.708 15.098C44.0002 13.0927 44.0704 10.2652 44.2729 8.17165C44.7181 3.56745 48.7347 0.332882 53.2025 0Z" fill="white"/>
<path d="M68.4218 8.20068L53.5384 8.22665C53.5085 8.2267 53.4843 8.25099 53.4844 8.28089L53.4908 11.9907C53.4909 12.0206 53.5152 12.0448 53.5451 12.0447L68.4285 12.0187C68.4584 12.0187 68.4826 11.9944 68.4825 11.9645L68.4761 8.25472C68.476 8.22482 68.4517 8.20062 68.4218 8.20068Z" fill="white"/>
<path d="M101.034 12.2384C101.071 13.2758 101.387 14.235 101.983 15.116C103.347 17.1334 104.933 17.372 107.449 17.3941C111.889 17.4355 116.33 17.4449 120.771 17.4221C120.824 17.4221 120.875 17.4433 120.913 17.4809C120.95 17.5185 120.971 17.5695 120.971 17.6227V21.0437C120.971 21.0969 120.95 21.1479 120.913 21.1855C120.875 21.2231 120.824 21.2443 120.771 21.2443C115.804 21.2643 110.842 21.2703 105.885 21.2623C101.361 21.2563 97.4109 18.3446 96.5426 13.8707C96.2398 12.3126 96.3421 10.209 96.3661 8.42831C96.3667 8.376 96.388 8.32602 96.4256 8.28922C96.4631 8.25242 96.5138 8.23178 96.5667 8.23179L120.524 8.19971C120.578 8.19971 120.629 8.22105 120.667 8.25903C120.705 8.29701 120.727 8.34853 120.727 8.40224L120.703 11.8333C120.702 11.8862 120.681 11.9367 120.643 11.9738C120.606 12.011 120.555 12.0319 120.502 12.0319H101.235C101.208 12.0318 101.181 12.0372 101.156 12.0477C101.132 12.0582 101.109 12.0735 101.09 12.0928C101.072 12.1121 101.057 12.135 101.047 12.16C101.038 12.185 101.033 12.2117 101.034 12.2384Z" fill="white"/>
<path d="M12.2956 0H23.5254L23.5494 9.3247C23.5494 9.37789 23.5283 9.42889 23.4907 9.4665C23.4531 9.50411 23.4021 9.52523 23.3489 9.52523H19.4025C19.3493 9.52523 19.2983 9.50411 19.2607 9.4665C19.2231 9.42889 19.2019 9.37789 19.2019 9.3247V4.11089C19.2019 4.05771 19.1808 4.0067 19.1432 3.96909C19.1056 3.93149 19.0546 3.91036 19.0014 3.91036H9.54431C9.32373 3.91036 9.28162 3.82413 9.41798 3.65167L12.2956 0Z" fill="white"/>
<path d="M0 15.3788V15.2785L3.60355 10.8247C3.8268 10.5467 3.94512 10.5861 3.95849 10.9431C3.99458 11.8896 4.13028 12.7532 4.36557 13.5339C4.90032 15.3146 5.9384 16.4837 7.47982 17.0412C8.11216 17.2698 9.22043 17.3941 10.8046 17.4142C14.8086 17.4623 18.9462 17.4536 23.2175 17.3881C23.2443 17.3876 23.271 17.3924 23.2959 17.4024C23.3209 17.4124 23.3435 17.4272 23.3626 17.4461C23.3817 17.465 23.3968 17.4875 23.407 17.5124C23.4172 17.5372 23.4223 17.5638 23.4221 17.5907L23.392 21.0558C23.392 21.1085 23.3711 21.159 23.3338 21.1962C23.2966 21.2335 23.2461 21.2544 23.1934 21.2544C18.4876 21.2557 13.7825 21.2564 9.07805 21.2564C4.78 21.2564 1.75398 19.2972 0 15.3788Z" fill="white"/>
</svg>
