<svg width="1015" height="702" viewBox="0 0 1015 702" fill="none" xmlns="http://www.w3.org/2000/svg">
<g clip-path="url(#clip0_31_502)">
<path d="M400.226 570.492C621.264 570.492 800.451 442.783 800.451 285.246C800.451 127.709 621.264 0 400.226 0C179.187 0 0 127.709 0 285.246C0 442.783 179.187 570.492 400.226 570.492Z" fill="#F5F5FF"/>
<path d="M832.298 687.008C933.201 687.008 1015 675.662 1015 661.666C1015 647.67 933.201 636.323 832.298 636.323C731.394 636.323 649.595 647.67 649.595 661.666C649.595 675.662 731.394 687.008 832.298 687.008Z" fill="#DFDFEB"/>
<path d="M449.336 702C631.628 702 779.404 689.415 779.404 673.89C779.404 658.365 631.628 645.779 449.336 645.779C267.045 645.779 119.268 658.365 119.268 673.89C119.268 689.415 267.045 702 449.336 702Z" fill="#DFDFEB"/>
<path d="M512.444 175.779C512.444 175.779 506.34 211.231 461.838 256.844C461.838 256.844 456.92 250.757 465.432 225.535C473.943 200.314 509.916 167.183 512.461 175.762L512.444 175.779Z" fill="#7E9E6E"/>
<path d="M512.444 175.779C512.444 175.779 472.396 204.423 461.838 256.844C461.838 256.844 459.791 274.827 465.947 290.404" stroke="black" stroke-miterlimit="10" stroke-linecap="round"/>
<path d="M404.8 204.405C404.8 204.405 416.029 195.895 396.701 174.628C378.336 154.426 358.905 136.322 320.903 129.685C320.903 129.685 332.373 181.144 357.134 193.402C381.896 205.661 404.8 204.388 404.8 204.388V204.405Z" fill="#7E9E6E"/>
<path d="M312.58 242.247C312.58 242.247 352.216 250.895 419.451 228.458C419.451 228.458 415.289 221.512 385.249 219.174C355.208 216.836 304.757 236.47 312.58 242.247Z" fill="#7E9E6E"/>
<path d="M312.581 242.247C312.581 242.247 360.143 217.077 419.451 228.458C419.451 228.458 425.555 229.988 431.763 238.275" stroke="black" stroke-miterlimit="10" stroke-linecap="round"/>
<path d="M345.441 278.145C345.441 278.145 387.862 306.067 455.097 283.63C455.097 283.63 442.028 259.973 411.988 257.652C381.947 255.313 337.634 272.369 345.458 278.145H345.441Z" fill="#7E9E6E"/>
<path d="M345.441 278.145C345.441 278.145 391.164 256.809 455.097 283.63C455.097 283.63 462.611 286.983 468.819 295.27" stroke="black" stroke-miterlimit="10" stroke-linecap="round"/>
<path d="M489.024 142.202C489.024 142.202 501.542 140.706 470.986 168.954C442.132 195.637 445.812 195.843 445.812 195.843C445.812 195.843 456.765 155.922 489.024 142.202Z" fill="black"/>
<path d="M424.833 209.374C424.833 209.374 434.187 212.985 451.056 197.511C467.925 182.038 474.201 147.549 489.041 142.219C489.041 142.219 451.83 154.237 424.85 209.391L424.833 209.374Z" fill="#7E9E6E"/>
<path d="M486.152 327.867C467.134 289.562 440.722 246.029 404.8 204.405C404.8 204.405 395.979 192.852 365.319 162.902C334.66 132.952 320.903 129.685 320.903 129.685" stroke="black" stroke-miterlimit="10" stroke-linecap="round"/>
<path d="M484.639 144.042C484.639 144.042 449.233 159.481 424.833 209.374C418.917 221.461 426.002 231.02 431.78 238.275" stroke="black" stroke-miterlimit="10" stroke-linecap="round"/>
<path d="M807.485 557.546C807.485 557.546 777.891 579.381 709.711 563.357C709.711 563.357 709.9 552.423 734.369 541.901C758.839 531.379 811.371 547.419 807.502 557.546H807.485Z" fill="#7E9E6E"/>
<path d="M805.369 555.552C805.369 555.552 758.666 539.941 710.02 562.171C710.02 562.171 694.252 571.077 685.259 585.209" stroke="black" stroke-miterlimit="10" stroke-linecap="round"/>
<path d="M708.817 509.509C708.817 509.509 722.298 513.601 728.179 485.474C733.75 458.756 737 432.382 720.08 397.739C720.08 397.739 685.139 437.231 689.747 464.464C694.355 491.697 708.834 509.492 708.834 509.492L708.817 509.509Z" fill="#7E9E6E"/>
<path d="M809.118 520.048C809.118 520.048 819.522 527.166 777.926 528.301C738.634 529.384 741.265 531.946 741.265 531.946C741.265 531.946 775.811 509.114 809.118 520.048Z" fill="black"/>
<path d="M716.572 528.301C716.572 528.301 721.232 537.172 744.119 536.64C767.006 536.107 794.45 514.289 809.118 520.048C809.118 520.048 773.214 504.592 716.572 528.301Z" fill="#7E9E6E"/>
<path d="M656.594 647.825C676.455 609.932 696.195 563.013 708.817 509.509C708.817 509.509 712.995 495.583 719.254 453.202C725.513 410.805 720.08 397.755 720.08 397.755" stroke="black" stroke-miterlimit="10" stroke-linecap="round"/>
<path d="M804.595 518.535C804.595 518.535 767.78 506.844 716.554 528.301C704.139 533.493 700.631 541.711 695.387 556.927" stroke="black" stroke-miterlimit="10" stroke-linecap="round"/>
<path d="M335.915 305.121C326.337 305.121 317.068 301.768 309.709 295.631L289.298 278.61C281.955 272.489 273.237 269.205 264.295 269.205H163.031C153.849 269.205 146.386 276.65 146.386 285.848V652.382C146.386 668.233 159.248 681.094 175.102 681.094H679.894C692.223 681.094 702.231 671.105 702.231 658.76V327.454C702.231 315.127 692.24 305.121 679.894 305.121H335.915Z" fill="#2B2C6B"/>
<path d="M702.214 660.6C702.214 660.6 667.857 596.178 664.418 588.768L570.53 397.532C568.175 392.443 563.067 389.194 557.479 389.194H208.599C195.909 389.194 177.578 382.54 167.828 374.425L153.745 362.683C146.403 356.562 137.685 353.278 128.743 353.278H32.3965C22.1308 353.278 15.1666 363.697 19.0872 373.17L135.621 654.961C142.156 670.761 157.563 681.059 174.655 681.059H695.92C699.325 681.059 702.454 678.154 702.454 674.749L702.214 660.6Z" fill="#009FE3"/>
<path d="M560.316 407.401L698.07 675.162" stroke="black" stroke-linejoin="round"/>
<path d="M503.536 453.529H384.87C381.637 453.529 378.628 451.896 376.891 449.214C372.885 443.007 377.407 434.892 384.87 434.892H503.536C506.769 434.892 509.778 436.526 511.515 439.208C515.522 445.414 510.999 453.529 503.536 453.529Z" stroke="black" stroke-linejoin="round"/>
<path d="M804.94 305.293C807.158 295.717 796.961 283.785 787.314 285.659C779.456 287.189 775.553 289.08 774.28 289.493C771.821 290.301 753.405 289.114 751.29 292.175C749.759 294.393 759.372 296.954 765.511 297.573C766.783 297.694 767.144 299.344 766.061 300.015C760.025 303.763 748.006 311.362 746.974 313.236C745.598 315.763 739.356 325.546 741.127 326.629C742.881 327.712 748.212 322.83 751.668 319.357C755.124 315.884 765.235 312.927 765.235 312.927C765.235 312.927 747.662 330.549 745.357 335.449C741.901 342.722 751.909 339.541 751.909 339.541C750.344 343.65 758.546 342.756 760.489 341.209C764.324 338.148 776.155 323.861 776.206 325.305C776.258 326.75 763.963 342.326 765.218 345.971C766.456 349.599 771.426 345.043 774.297 341.209C777.169 337.375 785.595 326.646 785.595 326.646C785.595 326.646 795.173 319.649 803.169 307.58C803.238 307.476 804.923 305.396 804.94 305.293Z" fill="#DB9C7F"/>
<path d="M752.356 339.163L769.122 319.185" stroke="black" stroke-miterlimit="10" stroke-linecap="round"/>
<path d="M678.948 248.643L739.236 211.042C739.614 210.801 739.958 210.526 740.302 210.234L760.18 189.774C764.513 185.975 771.185 186.869 774.383 191.648L784.133 206.262C786.197 209.357 786.265 213.363 784.322 216.544L770.325 239.238C769.293 240.906 767.78 242.212 765.975 242.986C754.712 247.8 711.706 265.973 686.05 273.211C679.67 275.016 673.48 269.824 674.047 263.222L674.684 255.795C674.924 252.872 676.506 250.242 678.965 248.625L678.948 248.643Z" fill="#9EC68A"/>
<path d="M817.802 624.443L814.621 646.106C814.621 646.106 754.884 669.059 760.421 669.385C765.957 669.712 851.815 664.726 851.815 664.726L846.759 625.406L817.802 624.443Z" fill="black"/>
<path d="M834.447 273.985C834.447 273.985 839.21 319.804 842.787 322.176C846.364 324.549 851.11 325.752 851.11 325.752L843.372 273.4L834.447 274.002V273.985Z" stroke="#424242" stroke-miterlimit="10"/>
<path d="M928.782 242.505C928.782 242.505 952.993 291.814 945.96 319.271L811.732 300.806L814.535 249.588L928.782 242.505Z" fill="black"/>
<path d="M932.462 252.494C932.462 252.494 913.495 287.619 877.178 290.438" stroke="#424242" stroke-miterlimit="10" stroke-linecap="round"/>
<path d="M902.094 282.925C902.094 282.925 909.454 305.688 930.794 306.17" stroke="#424242" stroke-miterlimit="10" stroke-linecap="round"/>
<path d="M811.732 300.806C811.732 300.806 775.776 428.823 774.831 470.035L801.105 628.793C801.105 628.793 826.176 641.258 852.279 631.183C853.345 630.77 839.039 548.846 838.041 464.481L913.083 307.476L811.715 300.806H811.732Z" fill="black"/>
<path d="M946.562 313.907L941.283 468.384L1000.4 629.876C1000.4 629.876 975.674 650.765 944.413 631.75L880.239 477.978L886.825 366.087L858.848 349.152L854.687 300.685L946.579 313.889L946.562 313.907Z" fill="black"/>
<path d="M842.684 285.659L871.177 307.133L912.033 261.537L812.798 275.704L837.078 307.906L842.684 285.659Z" fill="white"/>
<path d="M958.616 621.83L953.457 640.518C953.457 640.518 915.765 681.386 921.319 681.386C926.873 681.386 988.76 656.078 988.76 656.078L980.833 617.153L958.616 621.83Z" fill="black"/>
<path d="M923.95 264.357C923.95 264.357 940.251 304.416 928.506 472.476C928.506 472.476 969.673 563.065 991.029 634.725" stroke="#424242" stroke-miterlimit="10" stroke-linecap="round"/>
<path d="M864.041 353.158L822.96 467.593L840.586 634.742" stroke="#424242" stroke-miterlimit="10" stroke-linecap="round"/>
<path d="M684.846 271.251C684.846 271.251 685.637 275.257 676.764 278.317C667.891 281.378 662.664 280.398 662.664 280.398C662.664 280.398 642.752 256.912 641.875 256.087C640.998 255.262 642.494 246.236 648.392 242.608C651.968 240.407 665.845 243.983 676.18 247.147C683.385 249.347 687.838 256.568 686.635 264.013C686.153 266.936 685.568 269.652 684.846 271.251Z" fill="#DB9C7F"/>
<path d="M668.51 265.01C668.51 265.01 652.226 262.655 645.348 256.981C645.348 256.981 635.065 254.918 632.881 256.207C630.697 257.497 628.909 259.354 624.18 260.145C619.452 260.935 620.879 257.789 625.848 253.336C627.276 252.064 631.059 247.473 634.36 246.855C638.797 246.012 648.374 242.625 648.374 242.625L667.616 265.629" fill="#DB9C7F"/>
<path d="M662.681 280.398C662.681 280.398 656.078 284.541 653.757 284.421C651.435 284.3 649.252 282.925 648.684 279.108C648.684 279.108 636.389 281.361 640.293 272.059C640.293 272.059 632.864 270.856 632.675 266.007C632.675 266.007 626.089 262.724 627.516 257.463C628.961 252.202 649.647 252.666 649.647 252.666L671.606 263.807L662.699 280.381L662.681 280.398Z" fill="#DB9C7F"/>
<path d="M658.004 281.275C658.004 281.275 664.28 275.721 663.919 273.486C663.575 271.251 662.389 270.03 660.961 270.46C659.053 271.028 651.779 276.581 648.649 279.108" stroke="#2B2C6B" stroke-width="0.78" stroke-linecap="round" stroke-linejoin="round"/>
<path d="M640.275 272.076C640.275 272.076 656.972 269.463 657.127 267.005C657.282 264.529 656.113 261.262 652.622 261.967C648.478 262.792 636.596 265.646 632.641 265.56" stroke="#2B2C6B" stroke-width="0.78" stroke-linecap="round" stroke-linejoin="round"/>
<path d="M660.979 270.46C660.979 270.46 664.04 268.552 662.836 266.42C661.615 264.288 659.964 263.549 656.405 264.46" stroke="#2B2C6B" stroke-width="0.78" stroke-linecap="round" stroke-linejoin="round"/>
<path d="M632.314 258.58C632.314 258.58 633.225 257.394 634.515 256.173" stroke="#2B2C6B" stroke-width="0.78" stroke-linecap="round" stroke-linejoin="round"/>
<path d="M618.493 210.767L626.932 206.024L670.333 283.225C671.597 285.473 670.796 288.329 668.548 289.593L668.263 289.753C666.014 291.017 663.158 290.216 661.894 287.968L618.493 210.767Z" fill="#2B2C6B"/>
<path d="M639.932 223.128L643.577 229.61C644.557 231.364 644.11 233.496 642.58 234.355L634.704 238.774C633.157 239.634 631.11 238.911 630.13 237.158L626.33 230.401" fill="#2B2C6B"/>
<path d="M623.08 159.738C608.016 131.8 589.136 112.579 577.15 111.685L577.546 109.037L571.27 113.129C560.488 120.47 566.214 153.24 584.063 186.319C601.895 219.415 625.092 240.287 635.873 232.946L641.771 229.026L640.069 226.756C644.213 213.947 637.747 186.972 623.08 159.756V159.738Z" fill="#2B2C6B"/>
<path d="M641.324 229.386C652.812 223.402 648.031 191.504 630.645 158.14C613.26 124.777 589.853 102.581 578.365 108.566C566.877 114.55 571.658 146.448 589.044 179.812C606.429 213.175 629.836 235.371 641.324 229.386Z" fill="#754ED5"/>
<path d="M623.406 159.704C637.92 186.628 643.628 212.589 636.131 217.696C628.651 222.802 610.802 205.093 596.289 178.169C581.776 151.245 576.067 125.284 583.564 120.178C591.044 115.089 608.893 132.78 623.406 159.704Z" fill="#D3DDF7"/>
<path d="M668.51 265.01C668.51 265.01 652.226 262.655 645.348 256.981C645.348 256.981 635.065 254.918 632.881 256.207C630.697 257.497 628.909 259.354 624.18 260.145C619.452 260.935 620.879 257.789 625.848 253.336C627.276 252.064 631.059 247.473 634.36 246.855C638.797 246.012 648.374 242.625 648.374 242.625L667.616 265.629" fill="#DB9C7F"/>
<path d="M668.51 265.01C668.51 265.01 652.226 262.655 645.348 256.981C645.348 256.981 635.065 254.918 632.881 256.207C630.697 257.497 628.909 259.354 624.18 260.145" stroke="#2B2C6B" stroke-width="0.78" stroke-linecap="round" stroke-linejoin="round"/>
<path d="M623.407 159.704C608.894 132.78 591.045 115.072 583.564 120.178C582.98 120.573 582.481 121.123 582.051 121.777C590.701 122.31 605.85 138.729 618.471 162.163C631.85 186.972 637.73 210.939 632.726 218.555C634.016 218.641 635.168 218.366 636.148 217.695C643.628 212.606 637.937 186.628 623.424 159.704H623.407Z" fill="#2B2C6B"/>
<path d="M613.296 149.148C621.016 163.469 624.043 177.275 620.071 179.992C616.081 182.708 606.607 173.286 598.869 158.965C591.131 144.643 588.121 130.837 592.094 128.121C596.066 125.404 605.558 134.826 613.296 149.148Z" fill="white"/>
<path d="M902.06 195.259L890.092 152.535C885.69 136.855 877.986 122.344 867.807 109.621C849.769 87.0989 802.395 89.1448 802.395 89.1448L765.94 115.364C765.837 115.433 765.717 115.484 765.614 115.553C744.154 127.399 740.216 145.658 740.766 173.819L742.09 211.833L766.766 188.279L772.991 196.823C772.956 196.583 772.939 196.342 772.922 196.119L775.879 200.761L773.008 196.823C773.885 204.663 777.977 224.641 796.996 233.977L807.829 251.032L804.957 274.587C906.651 311.551 931.963 238.963 931.963 238.963L902.077 195.293L902.06 195.259Z" fill="#9EC68A"/>
<path d="M761.556 184.341L774.865 200.623C774.865 200.623 773.042 225.707 798.337 233.754" stroke="black" stroke-miterlimit="10" stroke-linecap="round"/>
<path d="M862.596 217.472L785.199 284.885C785.199 284.885 800.52 306.342 807.416 307.098L900.134 248.11" fill="#9EC68A"/>
<path d="M808.189 264.219C808.189 264.219 850.336 216.716 864.9 209.821" stroke="black" stroke-miterlimit="10" stroke-linecap="round"/>
<path d="M842.581 166.237C842.581 166.237 844.592 176.863 858.091 214.223" stroke="black" stroke-miterlimit="10" stroke-linecap="round"/>
<path d="M818.163 300.995C818.163 300.995 904.76 245.84 905.516 229.748C906.273 213.655 883.678 138.952 883.678 138.952" stroke="black" stroke-miterlimit="10" stroke-linecap="round"/>
<path d="M827.638 222.836C827.638 222.836 848.479 224.796 854.944 205.884" stroke="black" stroke-miterlimit="10" stroke-linecap="round"/>
<path d="M743.242 208.755C743.242 208.755 748.985 203.013 754.729 209.529" stroke="black" stroke-miterlimit="10" stroke-linecap="round"/>
<path d="M675.062 246.683L687.322 240.94C687.322 240.94 702.265 257.222 696.9 271.2L681.957 275.601C681.957 275.601 688.853 260.282 675.062 246.683Z" fill="white"/>
<path d="M790.1 276.289C790.1 276.289 806.195 283.183 817.682 303.006L805.318 312.479C805.318 312.479 790.083 290.645 779.456 287.189L790.083 276.271L790.1 276.289Z" fill="white"/>
<path d="M776.584 86.6519L827.346 90.3827C827.346 90.3827 829.271 118.304 798.612 142.924L784.838 129.548L777.341 145.83C777.341 145.83 765.7 139.279 764.118 120.47L766.594 97.6381L776.567 86.6519H776.584Z" fill="white"/>
<path d="M802.395 89.1448C804.252 90.7266 805.129 93.1507 804.699 95.5577C803.066 104.636 798.148 126.642 788.26 129.393C775.759 132.883 767.97 108.212 767.97 108.212L774.195 65.1093L802.395 89.1448Z" fill="#DB9C7F"/>
<path d="M762.811 99.3573L762.656 105.633C762.536 105.701 760.404 124.218 766.628 124.94C792.645 120.229 794.296 95.5749 796.514 71.0923C796.514 71.0923 760.283 94.4746 762.811 99.3745V99.3573Z" fill="black"/>
<path d="M719.478 53.143C719.478 53.143 713.133 113.576 750.688 123.977C788.243 134.379 797.236 73.1555 795.929 51.9739C794.64 30.7924 785.199 22.9181 758.873 21.9724C719.942 20.5626 719.478 53.143 719.478 53.143Z" fill="#DB9C7F"/>
<path d="M753.216 82.3536C753.319 84.5371 752.287 86.3423 750.911 86.4111C749.536 86.4799 748.315 84.7778 748.212 82.5943C748.109 80.4108 749.14 78.6056 750.516 78.5368C751.892 78.468 753.112 80.1701 753.216 82.3536Z" fill="black"/>
<path d="M757.342 71.2127C757.342 71.2127 744.945 76.6112 743.724 67.2411" stroke="black" stroke-miterlimit="10" stroke-linecap="round"/>
<path d="M728.661 71.2471C728.661 71.2471 724.568 78.3649 719.856 75.2014" stroke="black" stroke-miterlimit="10" stroke-linecap="round"/>
<path d="M722.075 83.8666C722.075 83.8666 724.413 83.1101 727.852 84.9325" stroke="black" stroke-miterlimit="10" stroke-linecap="round"/>
<path d="M758.839 106.424C758.839 106.424 762.226 103.191 765.012 102.452" stroke="black" stroke-miterlimit="10" stroke-linecap="round"/>
<path d="M733.458 90.8297C733.458 90.8297 731.308 95.7297 736.794 98.0851" stroke="black" stroke-miterlimit="10" stroke-linecap="round"/>
<path d="M719.048 66.1408C719.048 66.1408 719.685 48.4494 727.526 38.4432C727.526 38.4432 738.307 62.9429 784.77 67.946L798.302 65.1092C798.302 65.1092 803.839 36.7411 784.426 25.5657C765.012 14.3904 735.315 20.5626 725.755 30.6204C709.556 47.6585 719.048 66.158 719.048 66.158V66.1408Z" fill="black"/>
<path d="M775.742 64.7138L783.789 80.6L789.464 62.7538L775.742 64.7138Z" fill="black"/>
<path d="M803.839 78.9494C801.518 87.3911 794.88 92.9788 788.999 91.4142C783.119 89.8497 780.23 81.7519 782.534 73.293C784.855 64.8513 791.493 59.2637 797.374 60.8282C803.255 62.3928 806.143 70.4906 803.839 78.9494Z" fill="#DB9C7F"/>
<path d="M797.941 71.5909C797.941 71.5909 791.321 65.9001 787.71 76.3018C787.71 76.3018 791.579 80.3937 789.137 83.6259C789.137 83.6259 792.955 84.4856 794.829 81.133" stroke="black" stroke-linecap="round" stroke-linejoin="round"/>
<path d="M795.07 75.5625C795.07 75.5625 794.709 73.2415 792.129 70.611" stroke="black" stroke-linecap="round" stroke-linejoin="round"/>
<path d="M798.285 91.1219C798.285 94.2854 795.723 96.8472 792.559 96.8472C789.395 96.8472 786.833 94.2854 786.833 91.1219C786.833 87.9585 789.395 85.3967 792.559 85.3967C795.723 85.3967 798.285 87.9585 798.285 91.1219Z" fill="white"/>
<path d="M782.208 32.9587C782.208 32.9587 789.258 -3.88555 805.731 3.16351C822.204 10.2126 829.65 45.4922 813.968 48.2431C798.285 50.9939 786.128 43.5322 786.128 43.5322L782.208 32.9415V32.9587Z" fill="black"/>
<path d="M782.414 43.5494C782.414 43.5494 809.668 66.2783 818.49 45.3203" stroke="black" stroke-miterlimit="10" stroke-linecap="round"/>
<path d="M885.38 365.21L853.844 347.415" stroke="#424242" stroke-miterlimit="10" stroke-linecap="round"/>
<path d="M169.41 131.474C203.492 132.402 231.693 159.704 233.653 193.729C234.805 213.741 227.05 231.948 213.998 244.809C212.073 246.7 211.178 249.416 211.625 252.081L216.526 281.085L186.365 263.514C184.646 262.517 182.617 262.139 180.674 262.534C173.297 264.013 165.49 264.288 157.442 263.067C127.643 258.546 104.394 233.891 101.643 203.872C97.9803 163.882 129.93 130.373 169.41 131.456V131.474Z" fill="#D3DDF7"/>
<path d="M164.544 220.567L164.355 204.732C166.659 204.165 168.774 203.443 170.683 202.531C172.592 201.62 174.26 200.589 175.687 199.402C177.114 198.216 178.318 196.892 179.298 195.431C180.261 193.969 181 192.388 181.499 190.703C181.998 189.018 182.255 187.23 182.255 185.373C182.255 182.691 181.602 180.164 180.295 177.791C178.988 175.418 177.114 173.493 174.672 172.031C172.23 170.57 169.342 169.831 165.954 169.831C162.326 169.831 158.973 170.828 155.878 172.822C152.782 174.817 150.427 178.221 148.81 183.035L147.125 181.917C148.552 177.361 150.96 173.871 154.33 171.43C157.7 168.988 161.535 167.785 165.851 167.785C169.531 167.785 172.764 168.558 175.549 170.123C178.335 171.688 180.502 173.785 182.066 176.45C183.631 179.098 184.405 182.089 184.405 185.39C184.405 187.883 183.975 190.221 183.132 192.422C182.29 194.606 181.103 196.6 179.573 198.422C178.043 200.228 176.185 201.809 174.002 203.15C171.818 204.491 169.342 205.506 166.608 206.194L166.418 220.618H164.544V220.567ZM163.426 232.361C163.426 231.553 163.65 230.882 164.08 230.349C164.51 229.816 165.112 229.559 165.868 229.559C166.745 229.559 167.364 229.816 167.742 230.315C168.121 230.814 168.31 231.501 168.31 232.378C168.31 233.135 168.104 233.788 167.708 234.338C167.295 234.906 166.694 235.181 165.885 235.181C165.077 235.181 164.458 234.923 164.063 234.424C163.65 233.926 163.461 233.238 163.461 232.361H163.426Z" fill="black"/>
<path d="M354.639 511.069L393.569 511L393.571 543.471C393.571 543.656 393.498 543.834 393.368 543.965C393.237 544.096 393.059 544.17 392.874 544.17L379.271 544.194C379.086 544.195 378.909 544.121 378.777 543.991C378.646 543.86 378.572 543.683 378.572 543.497L378.54 525.335C378.539 525.15 378.465 524.972 378.334 524.841C378.203 524.711 378.025 524.637 377.84 524.638L344.951 524.71C344.178 524.712 344.031 524.409 344.509 523.803L354.639 511.069Z" fill="white" fill-opacity="0.7"/>
<path d="M312.096 564.697L312.095 564.523L324.832 548.558C325.5 547.719 325.831 547.835 325.824 548.905C325.806 552.173 326.334 555.447 327.406 558.727C331.19 570.368 338.979 571.828 350.438 571.814C364.427 571.803 378.418 571.785 392.412 571.76C392.597 571.76 392.775 571.833 392.906 571.964C393.037 572.095 393.111 572.272 393.111 572.457L393.132 584.293C393.133 584.477 393.06 584.654 392.929 584.785C392.799 584.916 392.621 584.991 392.435 584.993C377.311 585.048 362.2 585.086 347.103 585.109C341.474 585.119 337.282 584.793 334.525 584.133C324.12 581.651 316.644 575.173 312.096 564.697Z" fill="white" fill-opacity="0.7"/>
</g>
<defs>
<clipPath id="clip0_31_502">
<rect width="1015" height="702" fill="white"/>
</clipPath>
</defs>
</svg>
