<?xml version="1.0" encoding="UTF-8" standalone="no"?>
<!DOCTYPE svg PUBLIC "-//W3C//DTD SVG 1.1//EN" "http://www.w3.org/Graphics/SVG/1.1/DTD/svg11.dtd">
<svg xmlns="http://www.w3.org/2000/svg" version="1.1" viewBox="0.00 0.00 163.00 163.00">
<path stroke="#1666a7" stroke-width="2.00" fill="none" stroke-linecap="butt" vector-effect="non-scaling-stroke" d="
  M 83.07 85.07
  C 80.34 86.38 76.94 83.60 77.68 80.81
  C 78.60 77.32 88.68 68.70 91.58 65.79
  A 0.57 0.57 0.0 0 0 91.45 64.89
  C 81.30 59.46 68.84 62.87 64.04 73.31
  C 56.83 88.99 71.98 105.57 88.55 99.50
  C 99.94 95.32 103.74 81.66 97.96 71.47
  A 0.46 0.45 -37.8 0 0 97.24 71.38
  C 93.94 74.70 86.92 83.24 83.07 85.07"
/>
<path fill="#2b2c6b" d="
  M 77.55 0.00
  L 85.03 0.00
  Q 105.00 1.14 122.28 11.02
  Q 122.73 11.28 123.11 10.92
  L 134.51 0.00
  L 136.51 0.00
  Q 139.12 0.96 139.47 3.25
  Q 140.77 11.86 141.92 20.23
  A 1.02 1.02 0.0 0 0 142.80 21.10
  Q 151.17 22.22 158.82 23.40
  Q 162.06 23.90 163.00 26.59
  L 163.00 28.47
  Q 158.18 34.57 152.21 39.56
  A 0.96 0.96 0.0 0 0 152.00 40.78
  Q 162.17 58.42 163.00 79.07
  L 163.00 85.57
  C 159.69 128.05 128.06 160.34 85.42 163.00
  L 77.43 163.00
  C 34.65 159.75 2.07 127.48 0.00 84.44
  L 0.00 77.71
  C 2.59 34.96 34.99 3.18 77.55 0.00
  Z
  M 130.48 57.36
  A 0.17 0.17 0.0 0 0 130.29 57.59
  Q 139.13 76.64 133.87 95.81
  C 124.96 128.21 88.18 145.51 57.82 130.44
  C 23.79 113.56 16.53 68.35 44.15 42.17
  C 60.88 26.31 83.73 23.13 105.08 32.47
  Q 105.91 32.83 105.60 31.98
  C 104.08 27.91 113.88 19.96 116.63 17.34
  A 0.39 0.38 -52.6 0 0 116.55 16.72
  C 54.03 -16.18 -15.19 48.15 14.84 112.63
  C 27.74 140.33 57.51 157.97 87.94 154.94
  C 140.15 149.75 171.63 93.94 146.25 46.58
  Q 145.98 46.09 145.59 46.49
  Q 140.68 51.48 135.75 56.20
  C 133.84 58.04 132.90 57.84 130.48 57.36
  Z
  M 116.13 47.46
  L 130.74 49.57
  Q 131.22 49.64 131.63 49.24
  L 150.22 30.68
  A 0.43 0.43 0.0 0 0 149.98 29.95
  L 137.59 28.22
  A 3.26 3.25 -0.1 0 1 134.82 25.47
  L 132.95 12.72
  A 0.26 0.26 0.0 0 0 132.51 12.58
  L 113.77 31.38
  Q 113.37 31.78 113.45 32.34
  L 115.54 46.87
  Q 115.61 47.38 116.13 47.46
  Z
  M 73.76 107.54
  C 52.99 101.56 47.29 72.88 64.77 60.04
  Q 80.32 48.63 97.26 59.43
  Q 97.67 59.69 98.02 59.35
  L 107.68 49.75
  A 0.95 0.92 63.6 0 0 107.94 48.95
  L 107.03 42.99
  Q 106.96 42.56 106.58 42.34
  Q 85.38 29.88 64.35 38.38
  C 20.59 56.05 27.86 120.57 74.54 127.46
  C 114.52 133.37 141.39 90.46 120.60 56.39
  Q 120.38 56.03 119.97 55.96
  L 114.12 55.07
  Q 113.63 54.99 113.27 55.34
  L 103.75 64.80
  Q 103.39 65.17 103.66 65.61
  Q 112.78 80.58 105.22 94.53
  C 99.10 105.82 86.01 111.07 73.76 107.54
  Z
  M 83.07 85.07
  C 80.34 86.38 76.94 83.60 77.68 80.81
  C 78.60 77.32 88.68 68.70 91.58 65.79
  A 0.57 0.57 0.0 0 0 91.45 64.89
  C 81.30 59.46 68.84 62.87 64.04 73.31
  C 56.83 88.99 71.98 105.57 88.55 99.50
  C 99.94 95.32 103.74 81.66 97.96 71.47
  A 0.46 0.45 -37.8 0 0 97.24 71.38
  C 93.94 74.70 86.92 83.24 83.07 85.07
  Z"
/>
<path fill="#009fe3" d="
  M 77.68 80.81
  C 76.94 83.60 80.34 86.38 83.07 85.07
  C 86.92 83.24 93.94 74.70 97.24 71.38
  A 0.46 0.45 -37.8 0 1 97.96 71.47
  C 103.74 81.66 99.94 95.32 88.55 99.50
  C 71.98 105.57 56.83 88.99 64.04 73.31
  C 68.84 62.87 81.30 59.46 91.45 64.89
  A 0.57 0.57 0.0 0 1 91.58 65.79
  C 88.68 68.70 78.60 77.32 77.68 80.81
  Z"
/>
</svg>
