<?xml version="1.0" encoding="UTF-8" standalone="no"?>
<!DOCTYPE svg PUBLIC "-//W3C//DTD SVG 1.1//EN" "http://www.w3.org/Graphics/SVG/1.1/DTD/svg11.dtd">
<svg xmlns="http://www.w3.org/2000/svg" version="1.1" viewBox="0.00 0.00 46.00 59.00">
<path fill="#ffffff" d="
  M 21.34 0.00
  L 25.00 0.00
  C 39.32 2.82 44.44 19.56 32.25 28.63
  Q 31.76 29.00 32.31 29.27
  Q 44.10 35.03 46.00 47.79
  L 46.00 59.00
  L 0.00 59.00
  L 0.00 47.44
  Q 2.14 34.88 13.68 29.27
  Q 14.23 29.00 13.74 28.63
  C 1.42 19.44 6.79 2.54 21.34 0.00
  Z
  M 34.69 15.77
  A 11.69 11.69 0.0 0 0 23.00 4.08
  A 11.69 11.69 0.0 0 0 11.31 15.77
  A 11.69 11.69 0.0 0 0 23.00 27.46
  A 11.69 11.69 0.0 0 0 34.69 15.77
  Z
  M 4.96 55.00
  L 41.04 55.00
  A 0.81 0.81 0.0 0 0 41.85 54.19
  L 41.85 50.51
  A 18.93 18.68 90.0 0 0 23.17 31.58
  L 22.83 31.58
  A 18.93 18.68 90.0 0 0 4.15 50.51
  L 4.15 54.19
  A 0.81 0.81 0.0 0 0 4.96 55.00
  Z"
/>
</svg>
