<?xml version="1.0" encoding="UTF-8" standalone="no"?>
<!DOCTYPE svg PUBLIC "-//W3C//DTD SVG 1.1//EN" "http://www.w3.org/Graphics/SVG/1.1/DTD/svg11.dtd">
<svg xmlns="http://www.w3.org/2000/svg" version="1.1" viewBox="0.00 0.00 257.00 257.00">
<path fill="#2b2c6b" d="
  M 126.81 0.00
  L 133.31 0.00
  Q 139.24 0.41 145.13 1.16
  C 154.99 2.42 165.10 6.39 174.66 9.46
  Q 184.92 12.75 190.99 16.08
  Q 198.51 20.20 205.39 25.51
  Q 206.27 26.19 205.21 25.85
  L 125.77 0.49
  Q 125.49 0.40 125.77 0.31
  L 126.81 0.00
  Z"
/>
<path fill="#2b2c6b" d="
  M 230.98 53.52
  C 234.81 54.75 237.04 58.70 238.55 62.07
  Q 238.82 62.66 238.20 62.46
  L 77.37 11.09
  A 0.34 0.33 -46.2 0 1 77.36 10.46
  L 85.36 7.37
  Q 85.83 7.19 86.31 7.35
  Q 158.64 30.46 230.98 53.52
  Z"
/>
<path fill="#2b2c6b" d="
  M 250.00 85.89
  L 252.16 92.34
  A 0.40 0.40 0.0 0 1 251.66 92.85
  L 49.02 28.14
  A 0.40 0.40 0.0 0 1 48.90 27.43
  L 54.32 23.39
  A 0.40 0.40 0.0 0 1 54.68 23.33
  L 249.75 85.64
  A 0.40 0.40 0.0 0 1 250.00 85.89
  Z"
/>
<path fill="#2b2c6b" d="
  M 257.00 118.81
  L 257.00 120.52
  L 29.05 47.83
  Q 28.34 47.61 28.82 47.04
  L 32.37 42.92
  Q 32.78 42.44 33.38 42.64
  L 255.82 113.66
  Q 256.35 113.83 256.42 114.39
  L 257.00 118.81
  Z"
/>
<path fill="#2b2c6b" d="
  M 256.74 140.48
  L 256.04 145.82
  A 0.50 0.50 0.0 0 1 255.39 146.23
  L 14.79 69.40
  A 0.50 0.50 0.0 0 1 14.51 68.68
  L 17.16 63.97
  A 0.50 0.50 0.0 0 1 17.75 63.73
  L 256.39 139.94
  A 0.50 0.50 0.0 0 1 256.74 140.48
  Z"
/>
<rect fill="#2b2c6b" x="-128.72" y="-3.15" transform="translate(128.51,128.50) rotate(17.7)" width="257.44" height="6.30" rx="0.60"/>
<path fill="#2b2c6b" d="
  M 242.51 188.27
  L 239.83 193.07
  A 0.45 0.45 0.0 0 1 239.30 193.28
  L 0.60 117.05
  A 0.45 0.45 0.0 0 1 0.29 116.57
  L 0.96 111.12
  A 0.45 0.45 0.0 0 1 1.55 110.74
  L 242.26 187.62
  A 0.45 0.45 0.0 0 1 242.51 188.27
  Z"
/>
<path fill="#2b2c6b" d="
  M 0.00 138.44
  L 0.00 136.48
  L 228.13 209.22
  A 0.35 0.34 -60.6 0 1 228.28 209.77
  L 224.64 214.09
  Q 224.24 214.57 223.63 214.37
  L 1.18 143.33
  Q 0.65 143.16 0.57 142.61
  L 0.00 138.44
  Z"
/>
<path fill="#2b2c6b" d="
  M 208.10 229.57
  L 202.68 233.61
  A 0.40 0.40 0.0 0 1 202.32 233.67
  L 7.27 171.37
  A 0.40 0.40 0.0 0 1 7.01 171.12
  L 4.81 164.64
  A 0.40 0.40 0.0 0 1 5.31 164.13
  L 207.98 228.86
  A 0.40 0.40 0.0 0 1 208.10 229.57
  Z"
/>
<path fill="#2b2c6b" d="
  M 179.47 246.60
  L 171.29 249.76
  A 0.40 0.40 0.0 0 1 171.03 249.77
  L 23.33 202.59
  A 0.40 0.40 0.0 0 1 23.11 202.43
  L 18.35 195.13
  A 0.40 0.40 0.0 0 1 18.81 194.53
  L 179.45 245.84
  A 0.40 0.40 0.0 0 1 179.47 246.60
  Z"
/>
<path fill="#2b2c6b" d="
  M 130.44 257.00
  L 124.19 257.00
  C 116.54 256.47 109.29 255.95 101.80 253.66
  C 89.87 250.02 76.31 246.55 66.01 240.92
  Q 58.49 236.81 51.60 231.51
  Q 50.76 230.86 51.77 231.18
  L 130.96 256.43
  Q 131.32 256.54 130.99 256.71
  L 130.44 257.00
  Z"
/>
</svg>
