<?xml version="1.0" encoding="UTF-8" standalone="no"?>
<!DOCTYPE svg PUBLIC "-//W3C//DTD SVG 1.1//EN" "http://www.w3.org/Graphics/SVG/1.1/DTD/svg11.dtd">
<svg xmlns="http://www.w3.org/2000/svg" version="1.1" viewBox="0.00 0.00 736.00 735.00">
<circle fill="#4a4cc2" cx="402.29" cy="5.86" r="5.58"/>
<circle fill="#4a4cc2" cx="362.18" cy="6.48" r="5.60"/>
<circle fill="#4a4cc2" cx="322.07" cy="7.13" r="5.61"/>
<circle fill="#4a4cc2" cx="402.94" cy="45.95" r="7.24"/>
<circle fill="#4a4cc2" cx="483.17" cy="44.65" r="5.60"/>
<circle fill="#4a4cc2" cx="362.83" cy="46.60" r="7.45"/>
<circle fill="#4a4cc2" cx="443.05" cy="45.29" r="5.60"/>
<circle fill="#4a4cc2" cx="322.70" cy="47.24" r="7.26"/>
<circle fill="#4a4cc2" cx="282.60" cy="47.88" r="5.60"/>
<circle fill="#4a4cc2" cx="242.49" cy="48.52" r="5.60"/>
<circle fill="#4a4cc2" cx="363.47" cy="86.71" r="9.36"/>
<circle fill="#4a4cc2" cx="403.60" cy="86.07" r="8.93"/>
<circle fill="#4a4cc2" cx="483.81" cy="84.77" r="6.99"/>
<circle fill="#4a4cc2" cx="564.03" cy="83.49" r="5.59"/>
<circle fill="#4a4cc2" cx="443.70" cy="85.43" r="7.23"/>
<circle fill="#4a4cc2" cx="323.36" cy="87.37" r="8.93"/>
<circle fill="#4a4cc2" cx="523.93" cy="84.14" r="5.60"/>
<circle fill="#4a4cc2" cx="283.24" cy="87.99" r="7.22"/>
<circle fill="#4a4cc2" cx="243.13" cy="88.65" r="6.99"/>
<circle fill="#4a4cc2" cx="203.01" cy="89.28" r="5.59"/>
<circle fill="#4a4cc2" cx="162.91" cy="89.95" r="5.60"/>
<circle fill="#4a4cc2" cx="364.12" cy="126.82" r="11.28"/>
<circle fill="#4a4cc2" cx="404.23" cy="126.17" r="10.66"/>
<circle fill="#4a4cc2" cx="484.46" cy="124.89" r="8.39"/>
<circle fill="#4a4cc2" cx="324.00" cy="127.47" r="10.66"/>
<circle fill="#4a4cc2" cx="444.35" cy="125.53" r="8.88"/>
<circle fill="#4a4cc2" cx="564.68" cy="123.60" r="6.65"/>
<circle fill="#4a4cc2" cx="524.60" cy="124.24" r="6.92"/>
<circle fill="#4a4cc2" cx="604.80" cy="122.96" r="5.59"/>
<circle fill="#4a4cc2" cx="283.89" cy="128.12" r="8.89"/>
<circle fill="#4a4cc2" cx="243.77" cy="128.77" r="8.39"/>
<circle fill="#4a4cc2" cx="203.66" cy="129.41" r="6.92"/>
<circle fill="#4a4cc2" cx="163.55" cy="130.06" r="6.65"/>
<circle fill="#4a4cc2" cx="123.43" cy="130.69" r="5.61"/>
<circle fill="#4a4cc2" cx="364.77" cy="166.94" r="13.16"/>
<circle fill="#4a4cc2" cx="404.88" cy="166.29" r="12.33"/>
<circle fill="#4a4cc2" cx="445.00" cy="165.65" r="10.58"/>
<circle fill="#4a4cc2" cx="324.65" cy="167.58" r="12.33"/>
<circle fill="#4a4cc2" cx="485.11" cy="165.00" r="9.87"/>
<circle fill="#4a4cc2" cx="525.23" cy="164.35" r="8.82"/>
<circle fill="#4a4cc2" cx="565.33" cy="163.70" r="7.72"/>
<circle fill="#4a4cc2" cx="605.45" cy="163.07" r="6.66"/>
<circle fill="#4a4cc2" cx="645.57" cy="162.41" r="5.60"/>
<circle fill="#4a4cc2" cx="284.53" cy="168.24" r="10.57"/>
<circle fill="#4a4cc2" cx="244.42" cy="168.87" r="9.87"/>
<circle fill="#4a4cc2" cx="204.31" cy="169.53" r="8.25"/>
<circle fill="#4a4cc2" cx="164.19" cy="170.17" r="7.73"/>
<circle fill="#4a4cc2" cx="124.08" cy="170.83" r="6.65"/>
<circle fill="#4a4cc2" cx="83.97" cy="171.45" r="5.60"/>
<circle fill="#4a4cc2" cx="365.42" cy="207.04" r="15.04"/>
<circle fill="#4a4cc2" cx="405.53" cy="206.40" r="13.99"/>
<circle fill="#4a4cc2" cx="445.64" cy="205.76" r="12.22"/>
<circle fill="#4a4cc2" cx="325.29" cy="207.71" r="14.00"/>
<circle fill="#4a4cc2" cx="485.75" cy="205.11" r="11.29"/>
<circle fill="#4a4cc2" cx="525.88" cy="204.45" r="9.65"/>
<circle fill="#4a4cc2" cx="565.99" cy="203.80" r="8.26"/>
<circle fill="#4a4cc2" cx="285.20" cy="208.36" r="12.22"/>
<circle fill="#4a4cc2" cx="606.10" cy="203.17" r="6.91"/>
<circle fill="#4a4cc2" cx="646.23" cy="202.53" r="5.59"/>
<circle fill="#4a4cc2" cx="245.06" cy="208.99" r="11.28"/>
<circle fill="#4a4cc2" cx="204.93" cy="209.64" r="9.66"/>
<circle fill="#4a4cc2" cx="164.82" cy="210.28" r="8.80"/>
<circle fill="#4a4cc2" cx="124.71" cy="210.92" r="6.92"/>
<circle fill="#4a4cc2" cx="84.61" cy="211.58" r="5.61"/>
<circle fill="#4a4cc2" cx="366.07" cy="247.16" r="16.91"/>
<circle fill="#4a4cc2" cx="406.17" cy="246.52" r="15.66"/>
<circle fill="#4a4cc2" cx="446.30" cy="245.88" r="13.87"/>
<circle fill="#4a4cc2" cx="325.94" cy="247.82" r="15.66"/>
<circle fill="#4a4cc2" cx="486.41" cy="245.23" r="12.69"/>
<circle fill="#4a4cc2" cx="526.52" cy="244.57" r="11.28"/>
<circle fill="#4a4cc2" cx="566.64" cy="243.93" r="9.86"/>
<circle fill="#4a4cc2" cx="285.83" cy="248.45" r="13.86"/>
<circle fill="#4a4cc2" cx="606.74" cy="243.29" r="8.38"/>
<circle fill="#4a4cc2" cx="646.87" cy="242.65" r="6.99"/>
<circle fill="#4a4cc2" cx="245.72" cy="249.11" r="12.69"/>
<circle fill="#4a4cc2" cx="687.00" cy="242.00" r="5.59"/>
<circle fill="#4a4cc2" cx="205.60" cy="249.76" r="11.29"/>
<circle fill="#4a4cc2" cx="165.48" cy="250.40" r="9.86"/>
<circle fill="#4a4cc2" cx="125.37" cy="251.06" r="8.39"/>
<circle fill="#4a4cc2" cx="85.26" cy="251.71" r="6.99"/>
<circle fill="#4a4cc2" cx="45.14" cy="252.34" r="5.61"/>
<circle fill="#4a4cc2" cx="366.71" cy="287.28" r="18.79"/>
<circle fill="#4a4cc2" cx="406.81" cy="286.64" r="17.33"/>
<circle fill="#4a4cc2" cx="446.95" cy="285.99" r="15.50"/>
<circle fill="#4a4cc2" cx="326.59" cy="287.93" r="17.15"/>
<circle fill="#4a4cc2" cx="487.06" cy="285.35" r="13.86"/>
<circle fill="#4a4cc2" cx="527.17" cy="284.70" r="12.22"/>
<circle fill="#4a4cc2" cx="286.48" cy="288.57" r="15.51"/>
<circle fill="#4a4cc2" cx="567.28" cy="284.04" r="10.57"/>
<circle fill="#4a4cc2" cx="607.39" cy="283.41" r="8.87"/>
<circle fill="#4a4cc2" cx="246.36" cy="289.23" r="13.86"/>
<circle fill="#4a4cc2" cx="647.51" cy="282.77" r="7.22"/>
<circle fill="#4a4cc2" cx="687.62" cy="282.12" r="5.61"/>
<circle fill="#4a4cc2" cx="206.25" cy="289.87" r="12.22"/>
<circle fill="#4a4cc2" cx="166.13" cy="290.51" r="10.58"/>
<circle fill="#4a4cc2" cx="126.01" cy="291.16" r="8.88"/>
<circle fill="#4a4cc2" cx="85.91" cy="291.83" r="7.21"/>
<circle fill="#4a4cc2" cx="45.79" cy="292.45" r="5.61"/>
<path fill="#4a4cc2" d="
  M 347.14 358.97
  Q 350.68 350.68 358.84 346.87
  Q 359.45 346.58 358.85 346.28
  C 347.13 340.28 343.21 326.92 350.14 316.02
  C 357.73 304.10 375.81 303.81 383.90 315.05
  C 392.13 326.48 387.80 338.94 376.37 346.00
  Q 375.75 346.39 376.42 346.66
  Q 384.88 350.07 388.60 358.39
  A 0.27 0.27 0.0 0 0 389.09 358.41
  Q 395.98 345.86 408.91 346.37
  C 427.65 347.12 435.76 370.59 421.76 382.32
  C 410.96 391.37 396.46 388.28 389.44 375.88
  A 0.27 0.27 0.0 0 0 388.96 375.91
  Q 385.32 384.51 376.82 388.30
  A 0.18 0.18 0.0 0 0 376.82 388.63
  C 391.32 395.49 394.12 415.38 380.37 424.58
  C 371.93 430.23 360.41 429.24 353.49 421.64
  C 343.75 410.94 347.29 395.94 359.80 388.85
  Q 360.20 388.63 359.77 388.46
  Q 351.18 385.06 347.39 376.62
  A 0.31 0.30 -43.7 0 0 346.84 376.61
  Q 341.90 386.34 332.13 388.31
  C 309.66 392.83 297.89 363.73 316.57 350.82
  C 327.18 343.49 340.73 348.72 346.57 359.01
  Q 346.89 359.57 347.14 358.97
  Z"
/>
<circle fill="#4a4cc2" cx="407.48" cy="326.73" r="18.99"/>
<circle fill="#4a4cc2" cx="327.23" cy="328.03" r="18.99"/>
<circle fill="#4a4cc2" cx="447.58" cy="326.11" r="17.14"/>
<circle fill="#4a4cc2" cx="487.70" cy="325.46" r="15.66"/>
<circle fill="#4a4cc2" cx="527.82" cy="324.81" r="13.99"/>
<circle fill="#4a4cc2" cx="287.12" cy="328.70" r="17.33"/>
<circle fill="#4a4cc2" cx="567.92" cy="324.17" r="12.33"/>
<circle fill="#4a4cc2" cx="608.05" cy="323.53" r="10.66"/>
<circle fill="#4a4cc2" cx="247.01" cy="329.33" r="15.66"/>
<circle fill="#4a4cc2" cx="648.15" cy="322.88" r="8.93"/>
<circle fill="#4a4cc2" cx="688.27" cy="322.23" r="7.25"/>
<circle fill="#4a4cc2" cx="206.89" cy="329.99" r="13.99"/>
<circle fill="#4a4cc2" cx="728.38" cy="321.59" r="5.61"/>
<circle fill="#4a4cc2" cx="166.78" cy="330.63" r="12.32"/>
<circle fill="#4a4cc2" cx="126.65" cy="331.29" r="10.65"/>
<circle fill="#4a4cc2" cx="86.56" cy="331.92" r="8.93"/>
<circle fill="#4a4cc2" cx="46.44" cy="332.57" r="7.25"/>
<circle fill="#4a4cc2" cx="6.35" cy="333.23" r="5.58"/>
<circle fill="#4a4cc2" cx="448.24" cy="366.22" r="18.79"/>
<circle fill="#4a4cc2" cx="488.35" cy="365.58" r="16.91"/>
<circle fill="#4a4cc2" cx="287.76" cy="368.81" r="18.78"/>
<circle fill="#4a4cc2" cx="528.47" cy="364.93" r="15.04"/>
<circle fill="#4a4cc2" cx="568.58" cy="364.28" r="13.16"/>
<circle fill="#4a4cc2" cx="608.70" cy="363.64" r="11.29"/>
<circle fill="#4a4cc2" cx="247.65" cy="369.45" r="16.91"/>
<circle fill="#4a4cc2" cx="648.81" cy="362.99" r="9.37"/>
<circle fill="#4a4cc2" cx="207.53" cy="370.09" r="15.04"/>
<circle fill="#4a4cc2" cx="688.93" cy="362.35" r="7.45"/>
<circle fill="#4a4cc2" cx="729.02" cy="361.70" r="5.59"/>
<circle fill="#4a4cc2" cx="167.42" cy="370.75" r="13.16"/>
<circle fill="#4a4cc2" cx="127.30" cy="371.41" r="11.29"/>
<circle fill="#4a4cc2" cx="87.19" cy="372.04" r="9.37"/>
<circle fill="#4a4cc2" cx="47.08" cy="372.69" r="7.45"/>
<circle fill="#4a4cc2" cx="6.95" cy="373.33" r="5.60"/>
<circle fill="#4a4cc2" cx="408.78" cy="406.98" r="18.99"/>
<circle fill="#4a4cc2" cx="448.87" cy="406.32" r="17.34"/>
<circle fill="#4a4cc2" cx="328.51" cy="408.28" r="18.99"/>
<circle fill="#4a4cc2" cx="489.00" cy="405.69" r="15.66"/>
<circle fill="#4a4cc2" cx="529.11" cy="405.04" r="13.99"/>
<circle fill="#4a4cc2" cx="288.42" cy="408.91" r="17.15"/>
<circle fill="#4a4cc2" cx="569.22" cy="404.40" r="12.33"/>
<circle fill="#4a4cc2" cx="609.34" cy="403.75" r="10.66"/>
<circle fill="#4a4cc2" cx="248.31" cy="409.57" r="15.66"/>
<circle fill="#4a4cc2" cx="649.43" cy="403.12" r="8.93"/>
<circle fill="#4a4cc2" cx="689.57" cy="402.47" r="7.25"/>
<circle fill="#4a4cc2" cx="208.19" cy="410.21" r="14.00"/>
<circle fill="#4a4cc2" cx="729.64" cy="401.81" r="5.59"/>
<circle fill="#4a4cc2" cx="168.07" cy="410.86" r="12.32"/>
<circle fill="#4a4cc2" cx="127.95" cy="411.51" r="10.66"/>
<circle fill="#4a4cc2" cx="87.85" cy="412.15" r="8.93"/>
<circle fill="#4a4cc2" cx="47.71" cy="412.81" r="7.24"/>
<circle fill="#4a4cc2" cx="7.61" cy="413.43" r="5.61"/>
<circle fill="#4a4cc2" cx="369.29" cy="447.75" r="18.78"/>
<circle fill="#4a4cc2" cx="409.41" cy="447.10" r="17.15"/>
<circle fill="#4a4cc2" cx="329.19" cy="448.39" r="17.33"/>
<circle fill="#4a4cc2" cx="449.52" cy="446.46" r="15.50"/>
<circle fill="#4a4cc2" cx="489.64" cy="445.82" r="13.87"/>
<circle fill="#4a4cc2" cx="529.75" cy="445.15" r="12.22"/>
<circle fill="#4a4cc2" cx="289.05" cy="449.04" r="15.51"/>
<circle fill="#4a4cc2" cx="569.86" cy="444.51" r="10.58"/>
<circle fill="#4a4cc2" cx="609.99" cy="443.87" r="8.88"/>
<circle fill="#4a4cc2" cx="248.94" cy="449.68" r="13.86"/>
<circle fill="#4a4cc2" cx="650.09" cy="443.22" r="7.22"/>
<circle fill="#4a4cc2" cx="690.19" cy="442.58" r="5.60"/>
<circle fill="#4a4cc2" cx="208.83" cy="450.33" r="12.22"/>
<circle fill="#4a4cc2" cx="168.72" cy="450.98" r="10.57"/>
<circle fill="#4a4cc2" cx="128.60" cy="451.63" r="8.88"/>
<circle fill="#4a4cc2" cx="88.48" cy="452.27" r="7.21"/>
<circle fill="#4a4cc2" cx="48.37" cy="452.91" r="5.61"/>
<circle fill="#4a4cc2" cx="369.93" cy="487.86" r="16.91"/>
<circle fill="#4a4cc2" cx="410.05" cy="487.21" r="15.66"/>
<circle fill="#4a4cc2" cx="329.82" cy="488.50" r="15.66"/>
<circle fill="#4a4cc2" cx="450.16" cy="486.57" r="13.87"/>
<circle fill="#4a4cc2" cx="490.28" cy="485.92" r="12.69"/>
<circle fill="#4a4cc2" cx="530.40" cy="485.28" r="11.29"/>
<circle fill="#4a4cc2" cx="570.51" cy="484.62" r="9.86"/>
<circle fill="#4a4cc2" cx="289.70" cy="489.15" r="13.86"/>
<circle fill="#4a4cc2" cx="610.63" cy="483.97" r="8.39"/>
<circle fill="#4a4cc2" cx="650.74" cy="483.33" r="6.99"/>
<circle fill="#4a4cc2" cx="249.59" cy="489.80" r="12.69"/>
<circle fill="#4a4cc2" cx="690.86" cy="482.68" r="5.60"/>
<circle fill="#4a4cc2" cx="209.48" cy="490.45" r="11.28"/>
<circle fill="#4a4cc2" cx="169.37" cy="491.09" r="9.86"/>
<circle fill="#4a4cc2" cx="129.25" cy="491.75" r="8.40"/>
<circle fill="#4a4cc2" cx="89.13" cy="492.39" r="6.98"/>
<circle fill="#4a4cc2" cx="49.01" cy="493.02" r="5.59"/>
<circle fill="#4a4cc2" cx="370.58" cy="527.98" r="15.04"/>
<circle fill="#4a4cc2" cx="410.70" cy="527.34" r="14.00"/>
<circle fill="#4a4cc2" cx="450.82" cy="526.69" r="12.22"/>
<circle fill="#4a4cc2" cx="330.47" cy="528.62" r="13.99"/>
<circle fill="#4a4cc2" cx="490.93" cy="526.03" r="11.28"/>
<circle fill="#4a4cc2" cx="531.07" cy="525.38" r="9.65"/>
<circle fill="#4a4cc2" cx="571.17" cy="524.75" r="8.80"/>
<circle fill="#4a4cc2" cx="290.36" cy="529.26" r="12.22"/>
<circle fill="#4a4cc2" cx="611.28" cy="524.10" r="6.91"/>
<circle fill="#4a4cc2" cx="651.39" cy="523.44" r="5.60"/>
<circle fill="#4a4cc2" cx="250.24" cy="529.92" r="11.28"/>
<circle fill="#4a4cc2" cx="210.12" cy="530.58" r="9.65"/>
<circle fill="#4a4cc2" cx="170.00" cy="531.22" r="8.26"/>
<circle fill="#4a4cc2" cx="129.89" cy="531.86" r="6.91"/>
<circle fill="#4a4cc2" cx="89.76" cy="532.51" r="5.59"/>
<circle fill="#4a4cc2" cx="371.22" cy="568.09" r="13.16"/>
<circle fill="#4a4cc2" cx="411.34" cy="567.45" r="12.33"/>
<circle fill="#4a4cc2" cx="451.46" cy="566.79" r="10.57"/>
<circle fill="#4a4cc2" cx="491.57" cy="566.15" r="9.86"/>
<circle fill="#4a4cc2" cx="331.12" cy="568.74" r="12.33"/>
<circle fill="#4a4cc2" cx="531.70" cy="565.51" r="8.26"/>
<circle fill="#4a4cc2" cx="571.80" cy="564.86" r="7.72"/>
<circle fill="#4a4cc2" cx="611.92" cy="564.20" r="6.65"/>
<circle fill="#4a4cc2" cx="652.03" cy="563.56" r="5.60"/>
<circle fill="#4a4cc2" cx="291.00" cy="569.39" r="10.59"/>
<circle fill="#4a4cc2" cx="250.88" cy="570.04" r="9.86"/>
<circle fill="#4a4cc2" cx="210.76" cy="570.69" r="8.81"/>
<circle fill="#4a4cc2" cx="170.66" cy="571.33" r="7.71"/>
<circle fill="#4a4cc2" cx="130.55" cy="571.97" r="6.66"/>
<circle fill="#4a4cc2" cx="90.42" cy="572.61" r="5.61"/>
<circle fill="#4a4cc2" cx="371.87" cy="608.21" r="11.29"/>
<circle fill="#4a4cc2" cx="411.99" cy="607.57" r="10.66"/>
<circle fill="#4a4cc2" cx="452.10" cy="606.92" r="8.88"/>
<circle fill="#4a4cc2" cx="492.22" cy="606.28" r="8.39"/>
<circle fill="#4a4cc2" cx="331.76" cy="608.86" r="10.66"/>
<circle fill="#4a4cc2" cx="572.45" cy="604.98" r="6.65"/>
<circle fill="#4a4cc2" cx="532.33" cy="605.62" r="6.92"/>
<circle fill="#4a4cc2" cx="612.57" cy="604.34" r="5.61"/>
<circle fill="#4a4cc2" cx="291.64" cy="609.49" r="8.88"/>
<circle fill="#4a4cc2" cx="251.54" cy="610.15" r="8.39"/>
<circle fill="#4a4cc2" cx="211.41" cy="610.80" r="6.92"/>
<circle fill="#4a4cc2" cx="171.30" cy="611.45" r="6.65"/>
<circle fill="#4a4cc2" cx="131.18" cy="612.09" r="5.60"/>
<circle fill="#4a4cc2" cx="412.64" cy="647.68" r="8.94"/>
<circle fill="#4a4cc2" cx="372.52" cy="648.34" r="9.38"/>
<circle fill="#4a4cc2" cx="492.88" cy="646.38" r="6.98"/>
<circle fill="#4a4cc2" cx="573.09" cy="645.10" r="5.61"/>
<circle fill="#4a4cc2" cx="452.75" cy="647.02" r="7.22"/>
<circle fill="#4a4cc2" cx="332.41" cy="648.96" r="8.93"/>
<circle fill="#4a4cc2" cx="532.99" cy="645.75" r="5.59"/>
<circle fill="#4a4cc2" cx="292.29" cy="649.62" r="7.22"/>
<circle fill="#4a4cc2" cx="252.18" cy="650.26" r="6.99"/>
<circle fill="#4a4cc2" cx="212.06" cy="650.90" r="5.60"/>
<circle fill="#4a4cc2" cx="171.95" cy="651.56" r="5.59"/>
<circle fill="#4a4cc2" cx="413.29" cy="687.79" r="7.23"/>
<circle fill="#4a4cc2" cx="373.16" cy="688.43" r="7.44"/>
<circle fill="#4a4cc2" cx="493.50" cy="686.50" r="5.59"/>
<circle fill="#4a4cc2" cx="453.39" cy="687.15" r="5.60"/>
<circle fill="#4a4cc2" cx="333.06" cy="689.08" r="7.24"/>
<circle fill="#4a4cc2" cx="292.93" cy="689.73" r="5.60"/>
<circle fill="#4a4cc2" cx="252.82" cy="690.38" r="5.60"/>
<circle fill="#4a4cc2" cx="413.94" cy="727.91" r="5.61"/>
<circle fill="#4a4cc2" cx="373.82" cy="728.56" r="5.61"/>
<circle fill="#4a4cc2" cx="333.71" cy="729.16" r="5.58"/>
</svg>
