<?xml version="1.0" encoding="UTF-8" standalone="no"?>
<!DOCTYPE svg PUBLIC "-//W3C//DTD SVG 1.1//EN" "http://www.w3.org/Graphics/SVG/1.1/DTD/svg11.dtd">
<svg xmlns="http://www.w3.org/2000/svg" version="1.1" viewBox="0.00 0.00 1576.00 1330.00">
<g stroke-width="2.00" fill="none" stroke-linecap="butt">
<path stroke="#1666a7" vector-effect="non-scaling-stroke" d="
  M 863.25 419.96
  L 863.25 536.25
  A 0.50 0.50 0.0 0 0 863.75 536.75
  L 972.75 536.75
  A 0.50 0.50 0.0 0 0 973.25 536.25
  L 973.25 319.23
  Q 973.25 318.71 972.73 318.71
  L 725.60 318.86
  A 3.96 3.93 19.3 0 0 722.53 320.32
  Q 692.34 357.72 661.49 395.99
  Q 651.83 407.99 645.77 419.24
  Q 645.52 419.71 646.05 419.70
  Q 743.44 418.63 857.19 419.13
  Q 860.33 419.14 862.63 419.30
  Q 863.25 419.34 863.25 419.96"
/>
<path stroke="#1666a7" vector-effect="non-scaling-stroke" d="
  M 502.91 718.09
  Q 502.99 718.17 503.00 718.32
  Q 503.02 718.53 503.16 718.68
  Q 560.74 776.73 642.02 781.16
  Q 648.28 781.51 662.01 781.51
  Q 803.63 781.50 945.24 781.49
  C 953.21 781.49 961.11 780.96 969.04 780.49
  A 0.76 0.75 88.4 0 0 969.75 779.73
  L 969.75 683.50
  A 0.76 0.76 0.0 0 0 968.99 682.74
  Q 821.39 682.78 673.57 682.73
  Q 660.37 682.72 653.62 681.84
  Q 616.22 676.97 591.36 649.21
  C 569.29 624.57 562.32 586.21 562.48 554.50
  Q 562.57 536.78 563.13 519.13
  Q 563.17 517.89 562.39 518.86
  L 459.30 646.73
  Q 459.01 647.08 459.17 647.51
  Q 473.80 687.41 502.91 718.09"
/>
</g>
<path fill="#2b2c6b" d="
  M 785.31 0.00
  L 790.81 0.00
  C 810.77 2.82 823.61 16.49 823.76 36.75
  Q 824.03 73.91 824.00 110.97
  Q 824.00 111.25 824.29 111.25
  Q 1181.24 111.25 1537.96 111.25
  C 1558.73 111.25 1573.27 123.90 1576.00 144.55
  L 1576.00 149.56
  Q 1572.56 174.28 1549.69 181.34
  C 1545.39 182.67 1539.76 182.79 1535.48 182.78
  Q 1510.70 182.69 1485.77 182.76
  Q 1485.25 182.77 1485.25 183.29
  Q 1485.25 574.01 1485.25 964.73
  Q 1485.25 978.19 1483.69 983.51
  C 1480.36 994.92 1470.88 1004.30 1459.35 1007.68
  Q 1454.85 1008.99 1446.40 1009.00
  Q 1136.38 1009.00 825.47 1009.00
  A 1.47 1.47 0.0 0 0 824.00 1010.47
  L 823.99 1137.01
  Q 823.99 1137.46 824.45 1137.46
  Q 923.85 1137.58 1023.24 1137.47
  C 1045.93 1137.44 1061.74 1152.54 1061.75 1175.25
  Q 1061.77 1230.98 1061.73 1286.72
  Q 1061.73 1299.28 1060.20 1304.50
  C 1056.00 1318.83 1043.17 1328.66 1028.19 1330.00
  L 1023.19 1330.00
  C 1001.59 1326.90 989.88 1312.58 989.94 1291.36
  Q 990.07 1251.17 989.96 1210.19
  Q 989.96 1209.00 988.76 1209.00
  L 824.51 1209.00
  Q 824.00 1209.00 824.00 1209.51
  Q 823.98 1251.06 823.99 1292.62
  C 823.99 1313.12 810.68 1327.46 790.45 1330.00
  L 785.18 1330.00
  C 764.99 1327.04 752.18 1313.25 752.09 1292.92
  Q 751.90 1251.73 752.05 1209.56
  A 0.56 0.56 0.0 0 0 751.49 1209.00
  L 586.99 1209.01
  A 1.00 1.00 0.0 0 0 585.99 1210.01
  Q 586.03 1250.67 585.98 1290.85
  Q 585.97 1299.79 584.62 1304.39
  C 580.41 1318.86 567.65 1328.50 552.68 1330.00
  L 547.69 1330.00
  C 527.35 1327.41 514.26 1313.12 514.25 1292.47
  Q 514.23 1236.17 514.27 1179.87
  Q 514.28 1168.65 515.56 1163.86
  C 519.90 1147.67 534.82 1137.52 551.50 1137.52
  Q 651.59 1137.49 751.58 1137.50
  A 0.43 0.42 -0.0 0 0 752.01 1137.08
  L 752.00 1009.72
  A 0.45 0.44 -89.3 0 0 751.57 1009.27
  Q 749.92 1009.21 748.25 1009.21
  Q 439.20 1009.01 130.16 1009.00
  Q 121.34 1009.00 116.60 1007.65
  C 100.79 1003.16 90.75 988.38 90.75 972.25
  Q 90.75 577.77 90.75 183.29
  Q 90.75 182.77 90.23 182.77
  Q 68.37 182.71 46.50 182.75
  Q 32.20 182.78 26.62 181.33
  C 11.01 177.28 2.71 165.65 0.00 149.69
  L 0.00 143.95
  C 1.83 128.77 12.10 116.27 26.86 112.47
  Q 31.59 111.26 42.87 111.26
  Q 396.70 111.24 751.64 111.25
  A 0.39 0.39 0.0 0 0 752.03 110.86
  Q 751.99 77.02 751.99 43.12
  Q 751.99 31.84 753.43 26.50
  C 757.67 10.84 769.40 2.58 785.31 0.00
  Z
  M 1412.95 937.76
  A 0.31 0.31 0.0 0 0 1413.26 937.45
  L 1413.25 183.06
  A 0.31 0.31 0.0 0 0 1412.94 182.75
  L 163.06 182.75
  A 0.31 0.31 0.0 0 0 162.75 183.06
  L 162.75 937.43
  A 0.31 0.31 0.0 0 0 163.06 937.74
  L 1412.95 937.76
  Z"
/>
<path fill="#2b2c6b" d="
  M 814.98 466.75
  C 754.42 466.66 693.40 465.37 632.92 468.73
  A 0.96 0.96 0.0 0 1 631.91 467.74
  L 635.62 352.78
  Q 635.65 351.91 636.19 351.22
  L 699.84 272.31
  A 2.81 2.80 19.4 0 1 702.02 271.27
  L 1020.64 271.21
  Q 1021.07 271.21 1021.07 271.64
  L 1021.03 583.33
  A 1.17 1.17 0.0 0 1 1019.86 584.50
  L 816.12 584.50
  A 0.63 0.62 -90.0 0 1 815.50 583.87
  L 815.50 467.26
  Q 815.50 466.75 814.98 466.75
  Z
  M 863.25 419.96
  L 863.25 536.25
  A 0.50 0.50 0.0 0 0 863.75 536.75
  L 972.75 536.75
  A 0.50 0.50 0.0 0 0 973.25 536.25
  L 973.25 319.23
  Q 973.25 318.71 972.73 318.71
  L 725.60 318.86
  A 3.96 3.93 19.3 0 0 722.53 320.32
  Q 692.34 357.72 661.49 395.99
  Q 651.83 407.99 645.77 419.24
  Q 645.52 419.71 646.05 419.70
  Q 743.44 418.63 857.19 419.13
  Q 860.33 419.14 862.63 419.30
  Q 863.25 419.34 863.25 419.96
  Z"
/>
<path fill="#009fe3" d="
  M 862.63 419.30
  Q 860.33 419.14 857.19 419.13
  Q 743.44 418.63 646.05 419.70
  Q 645.52 419.71 645.77 419.24
  Q 651.83 407.99 661.49 395.99
  Q 692.34 357.72 722.53 320.32
  A 3.96 3.93 19.3 0 1 725.60 318.86
  L 972.73 318.71
  Q 973.25 318.71 973.25 319.23
  L 973.25 536.25
  A 0.50 0.50 0.0 0 1 972.75 536.75
  L 863.75 536.75
  A 0.50 0.50 0.0 0 1 863.25 536.25
  L 863.25 419.96
  Q 863.25 419.34 862.63 419.30
  Z"
/>
<path fill="#2b2c6b" d="
  M 637.01 828.54
  C 546.14 823.47 464.72 770.65 424.62 688.39
  C 417.20 673.17 410.80 656.00 404.59 639.73
  A 1.65 1.63 -36.2 0 1 404.85 638.11
  L 521.71 493.19
  Q 522.02 492.80 522.51 492.78
  L 610.98 488.72
  A 1.08 1.08 0.0 0 1 612.11 489.84
  Q 611.10 518.27 610.37 545.81
  C 609.43 581.02 614.63 627.35 657.87 634.34
  Q 663.44 635.24 677.82 635.24
  Q 847.41 635.26 1016.99 635.25
  A 0.51 0.50 0.0 0 1 1017.50 635.75
  L 1017.50 825.01
  A 0.59 0.59 0.0 0 1 1016.94 825.60
  C 993.19 826.92 969.19 828.83 945.44 828.93
  Q 801.22 829.58 657.00 828.96
  Q 643.48 828.90 637.01 828.54
  Z
  M 502.91 718.09
  Q 502.99 718.17 503.00 718.32
  Q 503.02 718.53 503.16 718.68
  Q 560.74 776.73 642.02 781.16
  Q 648.28 781.51 662.01 781.51
  Q 803.63 781.50 945.24 781.49
  C 953.21 781.49 961.11 780.96 969.04 780.49
  A 0.76 0.75 88.4 0 0 969.75 779.73
  L 969.75 683.50
  A 0.76 0.76 0.0 0 0 968.99 682.74
  Q 821.39 682.78 673.57 682.73
  Q 660.37 682.72 653.62 681.84
  Q 616.22 676.97 591.36 649.21
  C 569.29 624.57 562.32 586.21 562.48 554.50
  Q 562.57 536.78 563.13 519.13
  Q 563.17 517.89 562.39 518.86
  L 459.30 646.73
  Q 459.01 647.08 459.17 647.51
  Q 473.80 687.41 502.91 718.09
  Z"
/>
<path fill="#009fe3" d="
  M 502.91 718.09
  Q 473.80 687.41 459.17 647.51
  Q 459.01 647.08 459.30 646.73
  L 562.39 518.86
  Q 563.17 517.89 563.13 519.13
  Q 562.57 536.78 562.48 554.50
  C 562.32 586.21 569.29 624.57 591.36 649.21
  Q 616.22 676.97 653.62 681.84
  Q 660.37 682.72 673.57 682.73
  Q 821.39 682.78 968.99 682.74
  A 0.76 0.76 0.0 0 1 969.75 683.50
  L 969.75 779.73
  A 0.76 0.75 88.4 0 1 969.04 780.49
  C 961.11 780.96 953.21 781.49 945.24 781.49
  Q 803.63 781.50 662.01 781.51
  Q 648.28 781.51 642.02 781.16
  Q 560.74 776.73 503.16 718.68
  Q 503.02 718.53 503.00 718.32
  Q 502.99 718.17 502.91 718.09
  Z"
/>
</svg>
