<?xml version="1.0" encoding="UTF-8" standalone="no"?>
<!DOCTYPE svg PUBLIC "-//W3C//DTD SVG 1.1//EN" "http://www.w3.org/Graphics/SVG/1.1/DTD/svg11.dtd">
<svg xmlns="http://www.w3.org/2000/svg" version="1.1" viewBox="0.00 0.00 512.00 512.00">
<path fill="#2b2c6b" d="
  M 252.32 0.00
  L 258.06 0.00
  Q 262.52 0.43 266.99 0.60
  C 282.09 1.17 307.27 6.14 308.97 25.50
  Q 309.02 26.05 309.57 26.14
  C 314.88 26.98 320.64 27.63 325.44 29.00
  C 368.85 41.42 391.65 82.94 392.39 125.94
  Q 392.56 136.05 392.49 171.60
  A 0.79 0.79 0.0 0 0 392.96 172.32
  Q 404.39 177.15 408.06 187.88
  Q 409.48 192.07 409.49 200.78
  Q 409.51 213.48 409.50 226.18
  C 409.49 240.32 405.12 250.15 390.71 255.17
  A 1.61 1.58 -88.6 0 0 389.75 256.10
  Q 375.61 293.25 357.95 329.44
  Q 353.25 339.06 344.62 352.05
  C 329.65 374.57 308.56 386.16 282.42 390.39
  C 253.47 395.08 217.20 393.20 191.85 376.65
  C 172.90 364.28 159.85 341.94 150.59 322.43
  Q 135.05 289.65 122.10 255.77
  Q 121.91 255.29 121.43 255.13
  C 106.89 250.38 102.49 240.10 102.50 225.98
  Q 102.50 211.36 102.51 196.75
  C 102.52 182.44 113.83 170.63 127.99 170.76
  C 139.17 170.87 134.26 183.42 139.55 185.95
  A 0.56 0.55 -66.5 0 0 140.30 185.65
  Q 150.96 158.19 153.65 128.92
  C 154.28 122.10 157.36 119.64 163.88 119.49
  C 199.72 118.61 234.45 115.95 268.75 108.51
  C 280.60 105.94 294.74 101.38 304.56 93.67
  C 306.72 91.98 308.46 88.74 311.15 86.88
  C 315.01 84.22 320.21 85.41 322.69 89.18
  Q 323.91 91.02 324.24 95.15
  C 326.20 119.33 340.57 138.33 355.81 156.26
  C 361.34 162.76 355.95 172.25 348.38 170.36
  Q 345.26 169.58 341.64 165.71
  C 327.25 150.35 315.83 131.80 309.70 111.58
  A 0.39 0.39 0.0 0 0 309.13 111.35
  Q 295.81 118.81 280.90 122.78
  C 245.03 132.33 207.87 135.72 170.91 136.28
  A 0.89 0.88 -86.6 0 0 170.05 137.05
  Q 166.35 165.88 155.82 192.95
  A 0.78 0.77 -61.3 0 0 156.08 193.85
  L 171.37 205.35
  Q 171.96 205.79 172.22 205.10
  Q 176.87 193.01 188.12 189.22
  Q 192.46 187.76 201.67 187.76
  Q 215.09 187.75 228.50 187.79
  C 243.39 187.84 253.91 196.42 255.83 211.44
  Q 255.94 212.35 256.28 211.50
  Q 256.67 210.53 256.47 209.42
  Q 256.37 208.90 256.51 208.39
  C 263.08 183.24 286.53 187.80 306.07 187.74
  Q 319.15 187.69 323.76 189.20
  Q 334.98 192.86 339.88 205.23
  A 0.42 0.42 0.0 0 0 340.52 205.41
  Q 349.32 198.86 358.12 192.20
  C 363.10 188.43 368.56 185.26 373.25 190.90
  C 377.27 195.72 375.11 200.72 370.70 204.06
  Q 356.03 215.16 341.28 226.14
  Q 340.86 226.45 340.75 226.96
  C 337.01 243.90 325.55 254.83 307.93 255.94
  C 299.04 256.50 285.86 256.85 277.34 253.32
  Q 262.28 247.09 257.31 230.72
  C 256.62 228.46 256.63 225.91 256.34 223.44
  A 0.40 0.40 0.0 0 0 255.54 223.47
  C 255.06 237.17 246.98 248.18 234.74 253.30
  C 226.40 256.78 215.12 256.32 205.90 255.94
  C 187.76 255.21 175.01 245.25 171.19 226.93
  Q 171.09 226.44 170.69 226.14
  Q 157.13 215.97 143.58 205.82
  Q 142.05 204.68 139.90 204.25
  Q 128.18 201.91 122.30 191.07
  A 0.53 0.53 0.0 0 0 121.40 191.02
  C 120.02 192.95 119.54 194.98 119.53 197.52
  Q 119.45 213.16 119.53 228.80
  C 119.61 242.95 132.30 234.89 136.34 245.43
  Q 148.25 276.46 163.50 309.75
  Q 171.60 327.45 181.67 342.56
  C 202.05 373.11 236.67 377.67 270.75 374.71
  C 295.10 372.60 315.21 364.53 329.32 343.81
  Q 340.68 327.13 348.60 309.83
  Q 362.75 278.95 374.92 247.25
  C 376.79 242.40 378.66 239.57 383.74 238.80
  C 390.40 237.79 392.45 234.91 392.47 228.25
  Q 392.53 212.25 392.49 196.25
  Q 392.47 191.68 388.59 189.22
  C 386.22 187.73 382.80 187.79 380.57 186.94
  C 376.61 185.42 375.54 181.30 375.52 177.05
  Q 375.45 153.90 375.30 130.75
  C 375.04 90.45 355.76 49.70 311.81 43.71
  C 305.80 42.89 291.36 45.05 290.29 34.91
  C 290.01 32.22 291.51 29.26 292.04 26.33
  Q 292.14 25.78 291.74 25.40
  C 285.17 19.24 272.79 17.85 264.43 17.39
  C 220.66 14.97 174.70 27.56 147.29 64.09
  C 130.66 86.24 120.66 114.84 119.51 142.75
  C 119.36 146.31 119.08 149.02 116.38 151.45
  C 112.30 155.12 104.99 153.42 103.12 148.17
  Q 102.39 146.13 102.68 141.78
  Q 105.20 104.22 122.77 71.44
  C 149.30 21.94 197.99 0.88 252.32 0.00
  Z
  M 230.50 204.82
  L 196.18 204.82
  A 8.42 8.42 0.0 0 0 187.76 213.24
  L 187.76 221.28
  A 17.76 17.76 0.0 0 0 205.52 239.04
  L 221.16 239.04
  A 17.76 17.76 0.0 0 0 238.92 221.28
  L 238.92 213.24
  A 8.42 8.42 0.0 0 0 230.50 204.82
  Z
  M 315.82 204.82
  L 281.48 204.82
  A 8.42 8.42 0.0 0 0 273.06 213.24
  L 273.06 221.32
  A 17.91 17.72 -0.0 0 0 290.97 239.04
  L 306.33 239.04
  A 17.91 17.72 0.0 0 0 324.24 221.32
  L 324.24 213.24
  A 8.42 8.42 0.0 0 0 315.82 204.82
  Z"
/>
<path fill="#2b2c6b" d="
  M 256.83 308.39
  A 2.05 2.05 0.0 0 0 255.25 308.39
  C 247.43 311.56 226.07 318.20 218.41 314.79
  C 212.04 311.97 211.85 302.81 218.03 299.77
  Q 219.66 298.97 224.62 298.49
  Q 238.86 297.13 251.97 291.25
  C 255.30 289.76 257.55 290.20 261.09 291.71
  Q 274.51 297.45 290.50 298.74
  C 299.12 299.43 301.60 311.15 293.70 314.71
  C 285.91 318.23 264.66 311.61 256.83 308.39
  Z"
/>
<rect fill="#2b2c6b" x="-16.83" y="-8.40" transform="translate(256.00,332.77) rotate(-0.2)" width="33.66" height="16.80" rx="7.98"/>
<path fill="#2b2c6b" d="
  M 512.00 477.06
  L 512.00 504.05
  C 509.57 515.31 494.95 513.59 494.99 503.25
  Q 495.04 490.87 494.98 478.47
  Q 494.98 477.98 494.49 477.98
  L 17.42 478.01
  A 0.41 0.41 0.0 0 0 17.01 478.42
  Q 16.98 488.81 17.00 499.29
  C 17.02 506.11 16.19 510.76 8.93 512.00
  L 8.21 512.00
  Q 1.15 510.93 0.00 503.93
  L 0.00 476.94
  Q 1.58 465.86 10.48 462.28
  Q 14.30 460.75 23.85 460.75
  Q 242.03 460.75 460.24 460.75
  Q 460.75 460.75 460.75 460.24
  L 460.75 422.16
  Q 460.75 421.62 460.37 421.25
  L 412.52 373.40
  Q 411.95 372.82 411.20 373.14
  Q 402.38 376.86 393.90 374.31
  C 371.37 367.52 369.17 336.71 390.32 326.79
  C 411.70 316.75 433.50 338.73 424.33 359.95
  A 1.43 1.43 0.0 0 0 424.64 361.55
  Q 447.95 384.43 471.18 407.86
  C 475.27 411.98 477.68 413.68 477.78 420.15
  Q 478.10 440.23 477.96 460.28
  Q 477.96 460.86 478.53 460.84
  C 492.14 460.47 509.63 458.21 512.00 477.06
  Z
  M 409.45 349.86
  A 8.37 8.37 0.0 0 0 401.08 341.49
  A 8.37 8.37 0.0 0 0 392.71 349.86
  A 8.37 8.37 0.0 0 0 401.08 358.23
  A 8.37 8.37 0.0 0 0 409.45 349.86
  Z"
/>
<path fill="#2b2c6b" d="
  M 190.26 426.66
  C 144.42 427.27 97.15 428.93 53.70 445.21
  C 46.89 447.75 40.65 440.60 43.06 434.06
  C 46.78 423.98 95.32 416.32 105.78 414.97
  Q 150.65 409.21 195.88 409.81
  C 198.84 409.84 202.19 411.06 203.47 413.54
  Q 210.11 426.49 212.06 430.68
  C 217.20 441.75 202.45 448.70 197.24 439.00
  Q 194.09 433.13 191.31 427.31
  A 1.15 1.15 0.0 0 0 190.26 426.66
  Z"
/>
<rect fill="#2b2c6b" x="-8.43" y="-16.78" transform="translate(256.00,426.65) rotate(0.1)" width="16.86" height="33.56" rx="8.00"/>
<path fill="#2b2c6b" d="
  M 301.94 441.56
  C 297.28 438.11 298.67 433.52 300.99 428.71
  Q 306.77 416.76 308.79 413.55
  C 311.16 409.78 315.63 409.97 320.62 410.02
  C 351.24 410.36 380.94 411.67 411.16 415.96
  Q 429.18 418.52 437.01 420.97
  C 445.38 423.59 444.97 435.86 436.09 437.40
  Q 434.16 437.73 430.43 436.94
  C 394.61 429.28 357.88 427.24 321.35 427.12
  A 0.77 0.75 -75.5 0 0 320.66 427.54
  C 317.48 434.01 312.40 449.32 301.94 441.56
  Z"
/>
</svg>
