<?xml version="1.0" encoding="UTF-8" standalone="no"?>
<!DOCTYPE svg PUBLIC "-//W3C//DTD SVG 1.1//EN" "http://www.w3.org/Graphics/SVG/1.1/DTD/svg11.dtd">
<svg xmlns="http://www.w3.org/2000/svg" version="1.1" viewBox="0.00 0.00 142.00 163.00">
<path stroke="#1666a7" stroke-width="2.00" fill="none" stroke-linecap="butt" vector-effect="non-scaling-stroke" d="
  M 42.63 39.88
  C 46.33 40.85 52.24 44.76 49.90 49.24
  C 48.83 51.27 46.61 51.31 44.74 50.39
  A 1.44 1.42 -0.5 0 1 44.14 49.81
  Q 43.28 48.25 41.57 47.37
  A 1.49 1.49 0.0 0 0 39.40 48.64
  C 39.06 57.78 45.97 63.03 54.40 58.49
  A 1.62 1.59 33.4 0 1 55.32 58.31
  C 61.45 58.98 57.87 64.19 59.64 67.43
  C 61.78 71.36 67.15 71.03 69.38 67.30
  C 70.67 65.15 70.40 58.89 75.58 61.54
  C 78.63 63.10 77.61 68.06 76.15 70.25
  A 1.08 1.07 -52.7 0 0 76.33 71.64
  Q 84.48 78.92 87.66 89.33
  A 0.27 0.26 66.6 0 0 88.05 89.49
  L 88.29 89.34
  A 0.33 0.32 -14.3 0 0 88.45 89.08
  L 88.62 82.68
  A 0.74 0.73 16.0 0 0 88.25 82.03
  C 86.04 80.78 82.51 79.72 83.59 76.31
  Q 84.35 73.93 87.16 73.54
  A 1.44 1.39 -34.3 0 1 88.04 73.69
  C 102.93 81.51 111.10 60.37 96.76 55.75
  C 94.22 54.94 89.00 54.99 89.98 50.73
  C 90.87 46.89 94.72 47.63 97.86 48.34
  Q 104.99 49.97 109.35 56.04
  Q 109.64 56.44 109.96 56.06
  C 117.44 47.24 106.32 41.38 99.65 39.12
  C 95.22 37.62 97.72 29.63 104.02 32.74
  Q 104.93 33.19 104.46 32.29
  C 98.77 21.57 84.16 24.44 83.25 36.84
  A 1.51 1.48 66.7 0 1 82.92 37.69
  C 81.07 39.96 77.73 40.44 76.27 37.58
  C 75.03 35.16 76.87 30.35 78.16 27.51
  Q 78.36 27.06 77.99 26.73
  Q 71.94 21.39 66.12 27.04
  A 1.34 1.34 0.0 0 0 66.06 28.90
  Q 70.34 33.57 70.70 40.23
  C 70.94 44.80 65.96 45.98 63.61 42.53
  A 1.66 1.59 -63.5 0 1 63.34 41.66
  C 63.03 28.65 46.46 25.83 42.02 38.73
  A 0.89 0.88 -73.3 0 0 42.63 39.88"
/>
<path fill="#2b2c6b" d="
  M 75.40 0.00
  L 83.76 0.00
  C 116.76 1.17 139.18 27.55 142.00 59.33
  L 142.00 64.30
  C 141.31 73.06 139.05 79.77 134.42 87.88
  C 131.60 92.80 128.36 97.66 126.45 102.70
  C 121.13 116.77 123.21 132.93 122.77 147.28
  A 3.60 3.58 -4.2 0 1 119.80 150.70
  L 50.39 163.00
  L 48.46 163.00
  Q 45.72 161.81 45.74 159.98
  Q 45.83 151.49 45.71 142.81
  A 0.52 0.52 0.0 0 0 45.13 142.29
  C 40.63 142.76 35.30 144.08 31.38 143.74
  C 12.67 142.13 15.05 122.92 15.29 109.90
  Q 15.30 109.33 14.73 109.30
  C 8.66 108.99 2.10 110.71 0.00 102.94
  L 0.00 100.32
  L 15.21 71.99
  A 1.74 1.72 57.6 0 0 15.41 71.07
  C 12.71 33.29 36.34 2.39 75.40 0.00
  Z
  M 115.47 143.09
  C 115.22 123.18 114.34 106.73 124.75 89.28
  Q 130.48 79.67 130.63 79.34
  C 138.54 61.97 133.39 42.34 122.08 27.44
  Q 109.94 11.45 90.76 8.21
  C 55.42 2.25 25.47 23.81 23.06 59.76
  C 22.69 65.24 23.71 71.98 21.06 76.81
  Q 14.41 88.91 7.80 100.98
  A 0.52 0.52 0.0 0 0 8.25 101.75
  L 19.25 101.75
  A 3.52 3.52 0.0 0 1 22.77 105.29
  Q 22.71 114.33 22.77 123.41
  C 22.91 141.38 37.16 135.95 48.26 134.28
  C 52.36 133.66 53.30 136.25 53.24 139.81
  Q 53.12 146.96 53.31 154.23
  Q 53.33 154.87 53.97 154.76
  L 114.65 144.08
  A 0.99 0.98 84.9 0 0 115.47 143.09
  Z"
/>
<path fill="#2b2c6b" d="
  M 96.00 83.56
  L 96.00 92.31
  A 3.35 3.35 0.0 0 1 93.79 95.46
  C 89.79 96.92 81.77 101.74 80.73 94.27
  Q 79.27 83.67 70.84 76.96
  Q 70.43 76.63 69.92 76.78
  Q 56.55 80.54 51.65 67.92
  Q 51.46 67.44 50.95 67.50
  C 37.45 69.06 28.38 56.22 33.32 43.83
  Q 34.14 41.78 34.36 39.46
  C 35.53 27.05 47.12 20.61 58.78 23.81
  A 0.66 0.64 24.6 0 0 59.50 23.55
  C 64.82 15.51 75.99 14.44 82.84 21.06
  A 0.90 0.89 -38.6 0 0 83.94 21.18
  C 96.69 13.26 112.03 21.84 112.81 36.71
  A 1.13 1.13 0.0 0 0 113.20 37.52
  C 122.40 45.44 121.75 56.70 112.22 64.33
  Q 111.83 64.64 111.79 65.14
  Q 110.64 79.90 96.37 83.10
  Q 96.00 83.18 96.00 83.56
  Z
  M 42.63 39.88
  C 46.33 40.85 52.24 44.76 49.90 49.24
  C 48.83 51.27 46.61 51.31 44.74 50.39
  A 1.44 1.42 -0.5 0 1 44.14 49.81
  Q 43.28 48.25 41.57 47.37
  A 1.49 1.49 0.0 0 0 39.40 48.64
  C 39.06 57.78 45.97 63.03 54.40 58.49
  A 1.62 1.59 33.4 0 1 55.32 58.31
  C 61.45 58.98 57.87 64.19 59.64 67.43
  C 61.78 71.36 67.15 71.03 69.38 67.30
  C 70.67 65.15 70.40 58.89 75.58 61.54
  C 78.63 63.10 77.61 68.06 76.15 70.25
  A 1.08 1.07 -52.7 0 0 76.33 71.64
  Q 84.48 78.92 87.66 89.33
  A 0.27 0.26 66.6 0 0 88.05 89.49
  L 88.29 89.34
  A 0.33 0.32 -14.3 0 0 88.45 89.08
  L 88.62 82.68
  A 0.74 0.73 16.0 0 0 88.25 82.03
  C 86.04 80.78 82.51 79.72 83.59 76.31
  Q 84.35 73.93 87.16 73.54
  A 1.44 1.39 -34.3 0 1 88.04 73.69
  C 102.93 81.51 111.10 60.37 96.76 55.75
  C 94.22 54.94 89.00 54.99 89.98 50.73
  C 90.87 46.89 94.72 47.63 97.86 48.34
  Q 104.99 49.97 109.35 56.04
  Q 109.64 56.44 109.96 56.06
  C 117.44 47.24 106.32 41.38 99.65 39.12
  C 95.22 37.62 97.72 29.63 104.02 32.74
  Q 104.93 33.19 104.46 32.29
  C 98.77 21.57 84.16 24.44 83.25 36.84
  A 1.51 1.48 66.7 0 1 82.92 37.69
  C 81.07 39.96 77.73 40.44 76.27 37.58
  C 75.03 35.16 76.87 30.35 78.16 27.51
  Q 78.36 27.06 77.99 26.73
  Q 71.94 21.39 66.12 27.04
  A 1.34 1.34 0.0 0 0 66.06 28.90
  Q 70.34 33.57 70.70 40.23
  C 70.94 44.80 65.96 45.98 63.61 42.53
  A 1.66 1.59 -63.5 0 1 63.34 41.66
  C 63.03 28.65 46.46 25.83 42.02 38.73
  A 0.89 0.88 -73.3 0 0 42.63 39.88
  Z"
/>
<path fill="#009fe3" d="
  M 49.90 49.24
  C 52.24 44.76 46.33 40.85 42.63 39.88
  A 0.89 0.88 -73.3 0 1 42.02 38.73
  C 46.46 25.83 63.03 28.65 63.34 41.66
  A 1.66 1.59 -63.5 0 0 63.61 42.53
  C 65.96 45.98 70.94 44.80 70.70 40.23
  Q 70.34 33.57 66.06 28.90
  A 1.34 1.34 0.0 0 1 66.12 27.04
  Q 71.94 21.39 77.99 26.73
  Q 78.36 27.06 78.16 27.51
  C 76.87 30.35 75.03 35.16 76.27 37.58
  C 77.73 40.44 81.07 39.96 82.92 37.69
  A 1.51 1.48 66.7 0 0 83.25 36.84
  C 84.16 24.44 98.77 21.57 104.46 32.29
  Q 104.93 33.19 104.02 32.74
  C 97.72 29.63 95.22 37.62 99.65 39.12
  C 106.32 41.38 117.44 47.24 109.96 56.06
  Q 109.64 56.44 109.35 56.04
  Q 104.99 49.97 97.86 48.34
  C 94.72 47.63 90.87 46.89 89.98 50.73
  C 89.00 54.99 94.22 54.94 96.76 55.75
  C 111.10 60.37 102.93 81.51 88.04 73.69
  A 1.44 1.39 -34.3 0 0 87.16 73.54
  Q 84.35 73.93 83.59 76.31
  C 82.51 79.72 86.04 80.78 88.25 82.03
  A 0.74 0.73 16.0 0 1 88.62 82.68
  L 88.45 89.08
  A 0.33 0.32 -14.3 0 1 88.29 89.34
  L 88.05 89.49
  A 0.27 0.26 66.6 0 1 87.66 89.33
  Q 84.48 78.92 76.33 71.64
  A 1.08 1.07 -52.7 0 1 76.15 70.25
  C 77.61 68.06 78.63 63.10 75.58 61.54
  C 70.40 58.89 70.67 65.15 69.38 67.30
  C 67.15 71.03 61.78 71.36 59.64 67.43
  C 57.87 64.19 61.45 58.98 55.32 58.31
  A 1.62 1.59 33.4 0 0 54.40 58.49
  C 45.97 63.03 39.06 57.78 39.40 48.64
  A 1.49 1.49 0.0 0 1 41.57 47.37
  Q 43.28 48.25 44.14 49.81
  A 1.44 1.42 -0.5 0 0 44.74 50.39
  C 46.61 51.31 48.83 51.27 49.90 49.24
  Z"
/>
</svg>
