<?xml version="1.0" encoding="UTF-8" standalone="no"?>
<!DOCTYPE svg PUBLIC "-//W3C//DTD SVG 1.1//EN" "http://www.w3.org/Graphics/SVG/1.1/DTD/svg11.dtd">
<svg xmlns="http://www.w3.org/2000/svg" version="1.1" viewBox="0.00 0.00 512.00 512.00">
<path fill="#2b2c6b" d="
  M 0.00 78.93
  L 0.00 74.70
  C 0.98 46.79 16.00 30.51 44.74 30.51
  Q 204.76 30.48 364.77 30.51
  Q 376.08 30.51 380.94 32.01
  C 400.32 37.98 409.60 61.30 413.57 78.99
  A 0.77 0.76 67.6 0 0 414.72 79.47
  C 440.50 63.17 470.45 50.87 500.95 47.54
  C 508.47 46.72 512.70 49.55 511.60 57.82
  Q 509.53 73.24 507.56 80.82
  Q 500.72 107.04 487.76 130.77
  Q 485.48 134.93 483.55 136.21
  C 479.06 139.21 471.85 134.85 472.44 129.32
  Q 472.64 127.42 474.88 123.04
  C 484.67 103.87 492.09 85.00 495.79 63.64
  A 0.34 0.33 -0.1 0 0 495.40 63.26
  C 428.39 75.39 369.56 124.84 332.86 179.38
  Q 312.55 209.55 303.15 244.54
  A 0.36 0.36 0.0 0 0 303.75 244.88
  Q 368.86 179.76 434.16 114.47
  Q 437.46 111.17 439.55 110.46
  C 444.67 108.73 450.39 114.67 448.62 119.74
  Q 447.90 121.80 444.57 125.15
  Q 379.49 190.65 314.20 255.43
  A 0.41 0.41 0.0 0 0 314.60 256.12
  C 372.40 239.54 422.36 199.94 457.04 151.80
  C 463.73 142.51 475.73 151.14 469.77 159.54
  Q 452.43 184.01 430.60 204.60
  Q 427.44 207.59 424.38 210.70
  Q 424.02 211.06 424.02 211.57
  C 423.92 265.04 422.97 318.57 425.48 372.00
  Q 426.39 391.23 428.91 410.25
  A 0.60 0.59 -3.9 0 0 429.50 410.76
  Q 460.78 410.73 491.50 410.85
  C 497.56 410.87 499.18 414.38 500.31 419.92
  C 506.96 452.68 494.48 481.49 456.89 481.49
  Q 294.19 481.51 131.50 481.49
  C 110.06 481.49 98.88 462.41 93.69 444.05
  C 87.13 420.86 83.78 395.54 83.25 374.75
  C 83.14 370.18 87.35 366.80 91.82 367.46
  C 97.32 368.26 98.10 372.85 98.45 377.99
  Q 99.77 397.70 102.85 417.24
  C 105.26 432.44 111.35 466.83 131.94 466.42
  C 157.82 465.92 161.64 445.72 158.54 424.65
  Q 157.58 418.13 158.14 416.18
  C 159.62 411.00 164.43 410.75 169.51 410.75
  Q 291.37 410.76 413.24 410.74
  Q 413.79 410.74 413.73 410.20
  C 406.97 350.72 408.59 286.06 409.10 224.24
  Q 409.11 223.49 408.51 223.94
  C 401.28 229.25 393.52 235.10 386.69 239.47
  C 358.73 257.35 328.93 270.44 295.80 274.61
  Q 295.05 274.70 294.53 275.23
  Q 284.05 285.80 273.40 296.19
  Q 270.87 298.65 269.25 299.32
  C 263.23 301.80 257.27 295.57 259.87 289.61
  Q 260.52 288.12 262.75 285.89
  Q 273.41 275.21 284.09 264.54
  A 1.54 1.51 71.8 0 0 284.52 263.67
  L 285.84 254.07
  Q 285.92 253.50 285.34 253.50
  Q 208.41 253.50 131.50 253.50
  C 120.95 253.49 120.00 238.51 133.17 238.50
  Q 210.96 238.50 288.40 238.50
  A 0.87 0.86 -80.6 0 0 289.22 237.91
  L 297.87 212.90
  A 0.13 0.12 9.7 0 0 297.75 212.74
  Q 214.07 212.76 131.50 212.74
  C 121.07 212.74 120.07 197.76 132.73 197.76
  Q 218.43 197.74 304.12 197.75
  A 1.20 1.18 14.8 0 0 305.15 197.16
  L 319.61 172.13
  A 0.09 0.08 15.0 0 0 319.53 172.00
  Q 225.08 172.01 132.00 171.92
  C 120.80 171.91 120.15 157.00 132.63 157.00
  Q 231.06 157.00 329.52 157.00
  A 1.87 1.87 0.0 0 0 331.01 156.26
  Q 360.39 117.25 400.15 88.90
  A 0.59 0.58 67.6 0 0 400.38 88.33
  C 397.80 75.10 391.28 51.33 376.70 46.51
  Q 373.68 45.51 367.06 45.51
  Q 219.96 45.49 72.85 45.50
  Q 72.41 45.50 72.64 45.88
  Q 83.53 63.69 87.92 86.52
  C 93.73 116.80 95.70 145.62 96.31 175.43
  C 97.44 230.16 96.13 279.99 96.81 339.72
  C 96.86 344.06 97.55 347.79 93.68 350.50
  C 88.65 354.03 82.19 350.70 82.01 344.50
  C 80.21 281.68 83.24 207.49 79.57 140.25
  Q 78.60 122.44 75.57 101.76
  Q 75.49 101.26 74.99 101.26
  Q 42.57 101.24 10.26 101.24
  C 0.29 101.24 0.41 86.00 0.00 78.93
  Z
  M 72.55 85.37
  C 67.67 67.17 61.30 41.52 36.15 46.10
  C 16.25 49.73 13.11 68.92 15.76 85.63
  Q 15.86 86.25 16.48 86.25
  L 71.88 86.25
  A 0.70 0.70 0.0 0 0 72.55 85.37
  Z
  M 173.94 426.37
  C 175.64 440.35 173.90 454.11 166.12 466.01
  A 0.47 0.47 0.0 0 0 166.65 466.72
  Q 167.01 466.62 167.50 466.62
  Q 313.66 466.54 459.81 466.31
  C 484.03 466.27 489.25 445.94 486.00 426.19
  Q 485.93 425.75 485.48 425.75
  L 174.49 425.75
  A 0.55 0.55 0.0 0 0 173.94 426.37
  Z"
/>
<rect fill="#2b2c6b" x="123.52" y="112.02" width="118.20" height="14.98" rx="7.37"/>
<rect fill="#2b2c6b" x="312.56" y="364.33" width="70.04" height="15.10" rx="7.37"/>
</svg>
