<?xml version="1.0" encoding="UTF-8" standalone="no"?>
<!DOCTYPE svg PUBLIC "-//W3C//DTD SVG 1.1//EN" "http://www.w3.org/Graphics/SVG/1.1/DTD/svg11.dtd">
<svg xmlns="http://www.w3.org/2000/svg" version="1.1" viewBox="0.00 0.00 512.00 512.00">
<path fill="#916dde" d="
  M 273.80 26.70
  C 320.60 46.44 367.52 65.93 414.37 85.56
  Q 430.35 92.26 432.65 93.61
  C 445.90 101.43 451.86 113.14 453.99 128.32
  C 463.98 199.54 457.23 278.92 426.92 344.86
  Q 384.60 436.92 291.20 479.15
  C 281.65 483.46 271.26 488.12 261.23 488.91
  C 251.83 489.65 244.57 488.55 235.31 485.07
  C 189.36 467.75 147.10 437.91 117.35 398.62
  C 83.70 354.19 64.67 301.60 57.50 246.50
  Q 49.46 184.75 58.28 125.74
  Q 61.49 104.24 78.89 93.92
  Q 81.66 92.27 97.15 85.80
  Q 168.18 56.11 239.23 26.43
  Q 256.28 19.30 273.80 26.70
  Z
  M 279.39 46.51
  C 267.55 41.57 258.22 35.87 245.46 41.20
  Q 172.10 71.84 98.72 102.46
  Q 86.82 107.42 83.22 110.59
  Q 75.69 117.21 74.09 128.50
  C 63.10 206.13 71.79 295.53 112.74 363.39
  Q 158.13 438.59 240.96 470.09
  Q 246.17 472.07 249.82 472.62
  C 257.58 473.80 263.61 472.99 271.43 469.98
  C 338.92 443.98 389.71 394.71 416.99 327.60
  C 441.50 267.28 446.14 201.65 439.14 136.78
  C 437.51 121.68 434.62 111.39 419.49 105.05
  Q 349.46 75.73 279.39 46.51
  Z"
/>
<path fill="#916dde" d="
  M 258.95 58.65
  C 310.34 79.94 361.69 101.33 413.00 122.83
  Q 418.49 125.13 419.29 130.71
  Q 430.71 210.35 411.33 285.52
  Q 406.84 302.93 398.26 323.33
  C 372.43 384.70 325.34 429.46 262.94 452.95
  C 258.99 454.43 253.76 454.67 249.84 453.21
  C 167.04 422.34 114.76 355.41 97.00 269.75
  Q 82.72 200.92 92.87 131.07
  C 93.51 126.63 94.95 124.57 98.92 122.91
  Q 175.88 90.76 252.84 58.64
  Q 255.88 57.37 258.95 58.65
  Z
  M 403.33 136.13
  L 256.65 74.84
  A 1.52 1.52 0.0 0 0 255.49 74.84
  L 108.67 136.17
  Q 108.22 136.36 108.16 136.84
  Q 99.77 199.07 111.58 260.73
  C 127.41 343.48 173.94 407.10 253.61 437.56
  Q 254.62 437.95 255.53 438.06
  Q 257.01 438.23 257.53 438.04
  Q 356.18 399.97 390.13 299.71
  C 407.67 247.90 410.99 190.82 403.84 136.80
  A 0.87 0.86 -82.7 0 0 403.33 136.13
  Z"
/>
<path fill="#916dde" d="
  M 314.31 222.85
  Q 326.75 230.96 330.62 244.52
  Q 332.05 249.55 332.08 259.62
  Q 332.16 290.07 332.04 320.50
  Q 332.03 323.91 330.37 328.82
  C 326.23 341.07 316.86 350.23 304.58 353.56
  Q 299.14 355.04 286.79 355.02
  Q 255.12 354.98 223.46 355.00
  Q 212.34 355.00 207.17 353.56
  C 190.97 349.04 179.86 334.04 179.88 317.00
  Q 179.91 291.12 179.88 265.24
  Q 179.86 250.50 181.16 245.35
  Q 184.67 231.35 197.65 222.93
  A 1.30 1.28 73.6 0 0 198.23 221.85
  C 198.08 205.22 196.52 189.86 204.91 174.10
  Q 213.87 157.30 230.08 149.12
  C 264.37 131.83 305.33 152.40 312.67 189.44
  C 314.53 198.80 313.72 211.26 313.84 221.99
  Q 313.84 222.55 314.31 222.85
  Z
  M 214.35 217.27
  L 297.61 217.27
  A 0.21 0.21 0.0 0 0 297.82 217.06
  L 297.82 201.12
  A 42.15 41.66 90.0 0 0 256.16 158.97
  L 255.80 158.97
  A 42.15 41.66 90.0 0 0 214.14 201.12
  L 214.14 217.06
  A 0.21 0.21 0.0 0 0 214.35 217.27
  Z
  M 316.10 254.82
  A 21.56 21.56 0.0 0 0 294.54 233.26
  L 217.46 233.26
  A 21.56 21.56 0.0 0 0 195.90 254.82
  L 195.90 317.44
  A 21.56 21.56 0.0 0 0 217.46 339.00
  L 294.54 339.00
  A 21.56 21.56 0.0 0 0 316.10 317.44
  L 316.10 254.82
  Z"
/>
<path fill="#916dde" d="
  M 264.04 294.65
  Q 263.92 301.73 263.99 308.81
  Q 264.04 313.10 263.13 315.06
  C 260.22 321.36 250.88 320.88 248.53 314.30
  Q 248.00 312.82 248.00 309.64
  Q 248.01 302.17 248.00 294.70
  Q 248.00 294.18 247.52 293.98
  C 232.18 287.34 228.69 266.38 242.41 255.95
  C 255.69 245.84 274.77 253.37 277.82 269.55
  C 279.73 279.74 274.13 289.83 264.52 293.93
  A 0.80 0.79 79.3 0 0 264.04 294.65
  Z
  M 262.13 273.51
  A 6.13 6.13 0.0 0 0 256.00 267.38
  A 6.13 6.13 0.0 0 0 249.87 273.51
  A 6.13 6.13 0.0 0 0 256.00 279.64
  A 6.13 6.13 0.0 0 0 262.13 273.51
  Z"
/>
</svg>
