<?xml version="1.0" encoding="UTF-8" standalone="no"?>
<!DOCTYPE svg PUBLIC "-//W3C//DTD SVG 1.1//EN" "http://www.w3.org/Graphics/SVG/1.1/DTD/svg11.dtd">
<svg xmlns="http://www.w3.org/2000/svg" version="1.1" viewBox="0.00 0.00 512.00 512.00">
<path fill="#2b2c6b" d="
  M 255.07 0.00
  L 257.06 0.00
  C 264.37 1.41 265.99 6.15 265.99 13.30
  Q 265.98 42.43 266.03 71.54
  Q 266.04 77.92 264.65 80.73
  C 259.70 90.74 246.02 85.80 246.01 74.53
  Q 246.00 42.76 246.08 11.00
  Q 246.10 1.80 255.07 0.00
  Z"
/>
<rect fill="#2b2c6b" x="-9.98" y="-39.85" transform="translate(87.50,107.50) rotate(-45.0)" width="19.96" height="79.70" rx="9.79"/>
<rect fill="#2b2c6b" x="-39.85" y="-9.98" transform="translate(424.50,107.50) rotate(-45.0)" width="79.70" height="19.96" rx="9.79"/>
<path fill="#2b2c6b" d="
  M 450.81 210.44
  Q 471.76 231.83 484.70 251.06
  C 489.29 257.88 480.45 266.97 476.18 272.43
  C 430.24 331.21 364.38 381.10 289.08 393.28
  C 185.09 410.11 88.00 343.81 29.49 264.00
  C 26.21 259.53 24.41 254.90 27.76 250.28
  C 68.16 194.58 126.00 146.04 192.69 125.72
  C 292.03 95.46 382.01 140.16 450.81 210.44
  Z
  M 463.17 255.38
  C 425.01 205.67 372.51 162.23 311.58 144.17
  C 207.02 113.18 109.93 176.11 48.68 255.50
  A 0.79 0.78 45.4 0 0 48.68 256.47
  C 87.32 306.57 139.80 350.07 201.44 368.03
  C 305.39 398.34 402.61 335.72 463.17 256.60
  Q 463.64 255.99 463.17 255.38
  Z"
/>
<path fill="#2b2c6b" d="
  M 166.97 242.90
  C 169.33 225.37 189.16 230.68 187.25 242.24
  C 182.17 272.86 195.22 302.78 222.72 317.53
  C 264.13 339.74 314.37 316.08 324.45 270.69
  C 335.73 219.94 288.44 175.28 237.93 188.40
  C 234.64 189.25 229.82 191.47 225.93 190.90
  C 215.09 189.28 214.65 175.23 224.82 171.60
  C 279.93 151.88 339.43 187.97 345.47 246.77
  C 351.24 303.08 303.87 351.22 246.94 345.48
  C 195.49 340.30 160.13 293.57 166.97 242.90
  Z"
/>
<circle fill="#2b2c6b" cx="196.00" cy="206.00" r="9.93"/>
<path fill="#2b2c6b" d="
  M 295.92 255.99
  A 39.92 39.92 0.0 0 1 256.00 295.91
  A 39.92 39.92 0.0 0 1 216.08 255.99
  A 39.92 39.92 0.0 0 1 256.00 216.07
  A 39.92 39.92 0.0 0 1 295.92 255.99
  Z
  M 275.93 256.00
  A 19.94 19.94 0.0 0 0 255.99 236.06
  A 19.94 19.94 0.0 0 0 236.05 256.00
  A 19.94 19.94 0.0 0 0 255.99 275.94
  A 19.94 19.94 0.0 0 0 275.93 256.00
  Z"
/>
<rect fill="#2b2c6b" x="-39.84" y="-9.98" transform="translate(87.50,414.50) rotate(-44.9)" width="79.68" height="19.96" rx="9.79"/>
<rect fill="#2b2c6b" x="-39.83" y="-9.99" transform="translate(424.49,414.49) rotate(44.9)" width="79.66" height="19.98" rx="9.80"/>
<path fill="#2b2c6b" d="
  M 256.94 512.00
  L 254.95 512.00
  Q 245.96 510.07 245.98 501.00
  Q 246.04 469.88 245.98 438.78
  Q 245.97 434.05 247.25 431.48
  C 252.42 421.19 265.98 426.10 265.99 437.61
  Q 266.01 469.06 266.00 500.49
  Q 266.00 510.17 256.94 512.00
  Z"
/>
</svg>
