<?xml version="1.0" encoding="UTF-8" standalone="no"?>
<!DOCTYPE svg PUBLIC "-//W3C//DTD SVG 1.1//EN" "http://www.w3.org/Graphics/SVG/1.1/DTD/svg11.dtd">
<svg xmlns="http://www.w3.org/2000/svg" version="1.1" viewBox="0.00 0.00 129.00 163.00">
<g stroke-width="2.00" fill="none" stroke-linecap="butt">
<path stroke="#1666a7" vector-effect="non-scaling-stroke" d="
  M 74.83 59.17
  A 10.32 10.32 0.0 0 0 64.51 48.85
  A 10.32 10.32 0.0 0 0 54.19 59.17
  A 10.32 10.32 0.0 0 0 64.51 69.49
  A 10.32 10.32 0.0 0 0 74.83 59.17"
/>
<path stroke="#1666a7" vector-effect="non-scaling-stroke" d="
  M 88.44 97.27
  C 83.88 69.97 46.19 69.93 40.53 97.19
  A 0.79 0.78 24.1 0 0 40.84 97.98
  C 55.10 108.49 73.86 108.03 88.13 98.02
  Q 88.52 97.74 88.44 97.27"
/>
</g>
<path fill="#2b2c6b" d="
  M 60.58 0.00
  L 68.29 0.00
  C 101.69 2.58 126.09 27.67 129.00 61.07
  L 129.00 68.57
  C 126.26 99.56 104.76 123.84 73.95 128.75
  Q 73.50 128.82 73.50 129.27
  L 73.50 133.08
  A 0.57 0.57 0.0 0 0 74.08 133.65
  L 78.36 133.56
  Q 78.95 133.55 78.95 134.14
  L 78.92 163.00
  L 72.08 163.00
  L 72.10 141.38
  A 0.74 0.73 0.0 0 0 71.36 140.65
  L 57.62 140.72
  A 0.71 0.71 0.0 0 0 56.92 141.42
  L 56.83 163.00
  L 50.06 163.00
  L 50.04 134.17
  Q 50.03 133.67 50.54 133.68
  L 54.85 133.78
  Q 55.50 133.79 55.50 133.14
  L 55.50 129.47
  Q 55.50 128.88 54.91 128.77
  C 24.00 123.18 2.40 99.69 0.00 68.42
  L 0.00 60.73
  C 2.65 27.30 27.35 3.30 60.58 0.00
  Z
  M 122.07 64.73
  A 57.57 57.57 0.0 0 0 64.50 7.16
  A 57.57 57.57 0.0 0 0 6.93 64.73
  A 57.57 57.57 0.0 0 0 64.50 122.30
  A 57.57 57.57 0.0 0 0 122.07 64.73
  Z
  M 66.4969 129.8064
  A 0.42 0.42 0.0 0 0 66.0762 129.3872
  L 62.8362 129.3928
  A 0.42 0.42 0.0 0 0 62.4169 129.8136
  L 62.4231 133.3136
  A 0.42 0.42 0.0 0 0 62.8438 133.7328
  L 66.0838 133.7272
  A 0.42 0.42 0.0 0 0 66.5031 133.3064
  L 66.4969 129.8064
  Z"
/>
<path fill="#2b2c6b" d="
  M 112.43 64.73
  A 47.90 47.90 0.0 0 1 64.53 112.63
  A 47.90 47.90 0.0 0 1 16.63 64.73
  A 47.90 47.90 0.0 0 1 64.53 16.83
  A 47.90 47.90 0.0 0 1 112.43 64.73
  Z
  M 94.94 91.98
  C 120.32 63.34 96.10 19.21 59.14 24.18
  C 26.20 28.61 13.02 66.85 33.89 91.88
  A 0.48 0.47 33.9 0 0 34.71 91.72
  C 37.67 82.18 43.53 76.95 52.02 72.16
  Q 52.50 71.89 52.14 71.46
  C 37.39 53.96 59.50 31.84 76.09 46.17
  C 83.60 52.65 83.52 64.12 76.76 71.41
  Q 76.28 71.93 76.92 72.22
  Q 89.87 78.25 94.34 91.85
  Q 94.54 92.44 94.94 91.98
  Z
  M 74.83 59.17
  A 10.32 10.32 0.0 0 0 64.51 48.85
  A 10.32 10.32 0.0 0 0 54.19 59.17
  A 10.32 10.32 0.0 0 0 64.51 69.49
  A 10.32 10.32 0.0 0 0 74.83 59.17
  Z
  M 88.44 97.27
  C 83.88 69.97 46.19 69.93 40.53 97.19
  A 0.79 0.78 24.1 0 0 40.84 97.98
  C 55.10 108.49 73.86 108.03 88.13 98.02
  Q 88.52 97.74 88.44 97.27
  Z"
/>
<circle fill="#009fe3" cx="64.51" cy="59.17" r="10.32"/>
<path fill="#009fe3" d="
  M 40.53 97.19
  C 46.19 69.93 83.88 69.97 88.44 97.27
  Q 88.52 97.74 88.13 98.02
  C 73.86 108.03 55.10 108.49 40.84 97.98
  A 0.79 0.78 24.1 0 1 40.53 97.19
  Z"
/>
</svg>
